<svg width="117" height="128" viewBox="0 0 117 128" fill="none" xmlns="http://www.w3.org/2000/svg">
<path d="M78.6996 87.7809C78.6996 79.6172 71.8973 73.0032 63.4912 73.0032C59.4817 73.0032 55.8317 74.5252 53.0942 77.0158C54.0896 75.051 54.6427 72.8648 54.6427 70.5402C54.6427 62.3765 47.8404 55.7625 39.4343 55.7625C31.0282 55.7625 24.2259 62.3765 24.2259 70.5402C24.2259 72.422 24.613 74.2208 25.2767 75.8812C22.7604 74.0824 19.6358 73.0032 16.2899 73.0032C7.88383 73.0032 1.08154 79.6172 1.08154 87.7809C1.08154 95.5295 7.19255 101.867 14.9903 102.503C12.7229 105.077 11.3679 108.425 11.3679 112.078C11.3679 120.242 18.1979 126.856 26.5763 126.856C34.9547 126.856 41.7847 120.242 41.7847 112.078C41.7847 111.995 41.757 111.912 41.757 111.829C41.1487 111.885 40.5404 111.912 39.9044 111.912C30.0881 111.912 22.1521 104.191 22.1521 94.6716C22.1521 85.1519 30.0881 77.4309 39.9044 77.4309C49.7207 77.4309 57.6567 85.1519 57.6567 94.6716C57.6567 103.583 50.7161 110.888 41.7847 111.829C41.7847 111.912 41.757 111.995 41.757 112.078C41.757 120.242 48.5593 126.856 56.9654 126.856C65.3715 126.856 72.1738 120.242 72.1738 112.078C72.1738 108.149 70.57 104.551 67.9984 101.922C74.1923 100.04 78.6996 94.4226 78.6996 87.7809Z" fill="#004B9D"/>
<path d="M56.9377 127.825C49.9418 127.825 43.9691 123.48 41.7293 117.419C39.4895 123.48 33.5168 127.825 26.5209 127.825C17.6171 127.825 10.3447 120.768 10.3447 112.078C10.3447 108.924 11.3402 105.824 13.1652 103.223C5.67162 101.812 0.0583496 95.3359 0.0583496 87.781C0.0583496 79.0914 7.30307 72.0346 16.2345 72.0346C18.8061 72.0346 21.3224 72.6435 23.5899 73.7781C23.3686 72.6988 23.2304 71.6195 23.2304 70.5403C23.2304 61.8507 30.4751 54.7939 39.4066 54.7939C48.338 54.7939 55.5827 61.8507 55.5827 70.5403C55.5827 71.8409 55.4168 73.0862 55.1127 74.3316C57.629 72.8372 60.5047 72.0346 63.4911 72.0346C72.3949 72.0346 79.6673 79.0914 79.6673 87.781C79.6673 94.2566 75.7131 99.9297 69.6574 102.337C71.9248 105.105 73.1415 108.509 73.1415 112.078C73.1139 120.768 65.8691 127.825 56.9377 127.825ZM42.6971 112.687C43.0289 120.048 49.2782 125.915 56.9653 125.915C64.8184 125.915 71.2335 119.716 71.2335 112.078C71.2335 108.536 69.851 105.16 67.307 102.586L66.201 101.452L67.6941 101.009C73.6945 99.2102 77.7317 93.8968 77.7317 87.781C77.7317 80.143 71.3165 73.9441 63.4634 73.9441C59.8411 73.9441 56.3846 75.2725 53.7024 77.7077L51.0479 80.1154C55.5827 83.4362 58.5415 88.7219 58.5415 94.6717C58.5415 103.749 51.7945 111.331 42.6971 112.687ZM16.2345 73.9441C8.38148 73.9441 1.96631 80.143 1.96631 87.781C1.96631 94.8931 7.69019 100.954 14.9902 101.562L16.8705 101.728L15.6262 103.14C13.4417 105.63 12.225 108.813 12.225 112.078C12.225 119.716 18.6402 125.915 26.4933 125.915C34.0975 125.915 40.3191 120.131 40.7338 112.881C40.4297 112.881 40.1255 112.909 39.8213 112.909C29.5073 112.909 21.1012 104.745 21.1012 94.6994C21.1012 84.6538 29.5073 76.4901 39.8213 76.4901C43.8308 76.4901 47.5361 77.7077 50.5778 79.8109L52.1816 76.5731C53.1494 74.6636 53.6195 72.6158 53.6195 70.5403C53.6195 62.9023 47.2043 56.7034 39.3513 56.7034C31.4982 56.7034 25.083 62.9023 25.083 70.5403C25.083 72.2284 25.4149 73.9165 26.0508 75.5215L27.2399 78.538L24.6683 76.6561C22.2073 74.885 19.2762 73.9441 16.2345 73.9441ZM39.849 78.3996C30.5857 78.3996 23.0368 85.7054 23.0368 94.6994C23.0368 103.693 30.5857 110.999 39.849 110.999C40.3191 110.999 40.7615 110.972 41.2039 110.944L41.6463 110.888C50.1907 110.003 56.6612 103.029 56.6612 94.6994C56.6612 85.7054 49.1123 78.3996 39.849 78.3996Z" fill="#004B9D"/>
<path d="M91.7233 117.06H65.6202C51.7115 117.06 40.402 105.741 40.402 91.8214V66.3063C40.402 52.3864 51.7115 41.0679 65.6202 41.0679H91.7233C105.632 41.0679 116.942 52.3864 116.942 66.3063V91.8214C116.942 105.741 105.632 117.06 91.7233 117.06ZM65.6479 43.005C52.7899 43.005 42.3376 53.4657 42.3376 66.3339V91.8491C42.3376 104.717 52.7899 115.178 65.6479 115.178H91.751C104.609 115.178 115.061 104.717 115.061 91.8491V66.3339C115.061 53.4657 104.609 43.005 91.751 43.005H65.6479Z" fill="#004B9D"/>
<path d="M86.5525 106.654H69.2702C57.6289 106.654 48.1444 97.1624 48.1444 85.5118V72.9203C48.1444 61.2697 57.6289 51.7776 69.2702 51.7776H86.5525C98.1938 51.7776 107.678 61.2697 107.678 72.9203V85.5118C107.678 97.1901 98.1938 106.654 86.5525 106.654ZM69.2702 53.7147C58.6797 53.7147 50.0524 62.3489 50.0524 72.9479V85.5395C50.0524 96.1385 58.6797 104.773 69.2702 104.773H86.5525C97.143 104.773 105.77 96.1385 105.77 85.5395V72.9479C105.77 62.3489 97.143 53.7147 86.5525 53.7147H69.2702Z" fill="#004B9D"/>
<path d="M91.5575 42.2028H67.0859C62.4957 42.2028 58.7904 38.4669 58.7904 33.9007C58.7904 29.3069 62.5234 25.5986 67.0859 25.5986H91.5575C96.1477 25.5986 99.853 29.3346 99.853 33.9007C99.853 38.4669 96.1201 42.2028 91.5575 42.2028ZM67.0582 27.4804C63.5188 27.4804 60.6707 30.3585 60.6707 33.8731C60.6707 37.4153 63.5465 40.2657 67.0582 40.2657H91.5299C95.0693 40.2657 97.9174 37.3876 97.9174 33.8731C97.9174 30.3308 95.0417 27.4804 91.5299 27.4804H67.0582Z" fill="#004B9D"/>
<path d="M79.5014 26.6774C75.0495 26.6774 71.4271 23.0522 71.4271 18.5967V8.08071C71.4271 3.62525 75.0495 0 79.5014 0C83.9533 0 87.5757 3.62525 87.5757 8.08071V18.5967C87.548 23.0798 83.9533 26.6774 79.5014 26.6774ZM79.5014 1.93716C76.1002 1.93716 73.3351 4.70452 73.3351 8.10839V18.6244C73.3351 22.0282 76.1002 24.7956 79.5014 24.7956C82.9025 24.7956 85.6677 22.0282 85.6677 18.6244V8.10839C85.6677 4.70452 82.9025 1.93716 79.5014 1.93716Z" fill="#004B9D"/>
<path d="M86.8291 12.6746C86.8291 12.6746 109.282 27.2586 109.282 12.6746C109.282 -1.88178 86.8291 12.6746 86.8291 12.6746Z" fill="#004B9D"/>
</svg>
