<svg width="383" height="163" viewBox="0 0 383 163" fill="none" xmlns="http://www.w3.org/2000/svg">
<path d="M239.421 60.7196L239.464 63.0748L241.477 64.3809L239.207 65.1088L238.565 67.357L237.087 65.4728L234.668 65.5585L236.06 63.6529L235.203 61.4476L237.537 62.1756L239.421 60.7196Z" fill="#004B9D"/>
<path d="M235.566 65.0879L237.065 65.045C237.214 65.045 237.343 65.1093 237.45 65.2163L238.371 66.3939L238.777 65.0022C238.82 64.8523 238.927 64.7453 239.077 64.7025L240.469 64.2528L239.227 63.4606C239.099 63.3964 239.034 63.2465 239.013 63.0967L238.991 61.6407L237.792 62.54C237.685 62.6256 237.536 62.647 237.386 62.6042L235.951 62.176L236.465 63.5249C236.529 63.6533 236.508 63.8246 236.422 63.9531L235.566 65.0879ZM238.67 67.7856H238.649C238.478 67.8285 238.306 67.7642 238.199 67.6144L236.872 65.9229L234.688 65.9871C234.517 66.0085 234.367 65.9015 234.281 65.7516C234.195 65.6017 234.217 65.409 234.302 65.2806L235.544 63.5891L234.774 61.6193C234.709 61.4694 234.752 61.2767 234.859 61.1697C234.988 61.0412 235.159 60.977 235.309 61.0412L237.407 61.6835L239.12 60.3989C239.248 60.2918 239.441 60.2704 239.591 60.3561C239.741 60.4417 239.826 60.5916 239.848 60.7629L239.891 62.8611L241.711 64.0387C241.861 64.1244 241.925 64.2957 241.903 64.467C241.882 64.6382 241.753 64.7881 241.604 64.8309L239.548 65.4947L238.97 67.5073C238.927 67.6358 238.82 67.7428 238.67 67.7856Z" fill="#004B9D"/>
<path d="M174.974 48.0018L175.017 50.3356L177.051 51.6416L174.76 52.3696L174.117 54.6177L172.662 52.7336L170.221 52.8192L171.612 50.9137L170.777 48.7298L173.09 49.4363L174.974 48.0018Z" fill="#004B9D"/>
<path d="M171.12 52.3477L172.619 52.3049C172.769 52.3049 172.898 52.3691 172.983 52.4762L173.904 53.6538L174.311 52.2407C174.353 52.1122 174.461 51.9837 174.61 51.9409L176.002 51.4913L174.76 50.6991C174.632 50.6134 174.568 50.485 174.546 50.3351L174.525 48.8792L173.326 49.7784C173.219 49.864 173.069 49.8855 172.94 49.8426L171.506 49.4144L172.02 50.7633C172.084 50.8918 172.041 51.0631 171.955 51.1915L171.12 52.3477ZM174.225 55.0669H174.204C174.032 55.1097 173.861 55.0455 173.754 54.8956L172.426 53.2042L170.243 53.2684C170.071 53.2898 169.921 53.1827 169.836 53.0329C169.75 52.883 169.772 52.7117 169.857 52.5618L171.099 50.8704L170.328 48.9006C170.264 48.7507 170.307 48.558 170.414 48.4509C170.521 48.3225 170.692 48.2582 170.863 48.3225L172.962 48.9648L174.675 47.6801C174.803 47.5731 174.996 47.5517 175.146 47.6373C175.296 47.723 175.403 47.8728 175.403 48.0441L175.445 50.1424L177.265 51.32C177.415 51.4056 177.479 51.5769 177.458 51.7482C177.437 51.9195 177.308 52.048 177.158 52.1122L175.103 52.7759L174.525 54.7886C174.503 54.8956 174.375 55.0241 174.225 55.0669Z" fill="#004B9D"/>
<path d="M146.862 108.83L145.277 110.543L145.834 112.877L143.671 111.849L141.637 113.005L141.894 110.65L140.096 109.023L142.408 108.616L143.307 106.432L144.506 108.552L146.862 108.83Z" fill="#004B9D"/>
<path d="M143.563 111.399C143.67 111.378 143.777 111.378 143.863 111.42L145.169 112.063L144.848 110.628C144.805 110.478 144.848 110.328 144.955 110.221L145.94 109.151L144.441 108.98C144.313 108.958 144.184 108.872 144.099 108.744L143.371 107.438L142.814 108.765C142.75 108.915 142.643 109.022 142.471 109.044L141.058 109.301L142.172 110.307C142.279 110.414 142.343 110.543 142.321 110.692L142.172 112.191L143.435 111.463C143.478 111.42 143.52 111.42 143.563 111.399ZM145.94 113.326C145.833 113.347 145.726 113.347 145.64 113.305L143.692 112.362L141.872 113.412C141.722 113.497 141.551 113.497 141.401 113.412C141.272 113.326 141.187 113.155 141.208 112.983L141.444 110.842L139.816 109.365C139.688 109.236 139.645 109.087 139.688 108.894C139.731 108.744 139.881 108.616 140.031 108.573L142.107 108.209L142.921 106.282C142.985 106.11 143.135 106.003 143.306 106.003C143.478 106.003 143.649 106.068 143.713 106.239L144.784 108.145L146.925 108.38C147.096 108.401 147.246 108.508 147.289 108.658C147.353 108.808 147.31 109.001 147.203 109.108L145.79 110.65L146.282 112.769C146.325 112.919 146.261 113.112 146.133 113.219C146.047 113.283 146.004 113.305 145.94 113.326Z" fill="#004B9D"/>
<path d="M79.053 109.43L77.49 111.143L78.0253 113.498L75.8628 112.449L73.8502 113.626L74.1071 111.25L72.3086 109.644L74.621 109.216L75.5202 107.053L76.6978 109.173L79.053 109.43Z" fill="#004B9D"/>
<path d="M75.7546 112.021C75.8616 111.999 75.9687 111.999 76.0543 112.042L77.3604 112.684L77.0178 111.25C76.975 111.1 77.0178 110.95 77.1249 110.843L78.1098 109.773L76.611 109.601C76.4825 109.58 76.3541 109.494 76.2684 109.366L75.5405 108.06L74.9838 109.387C74.9195 109.537 74.7911 109.644 74.6412 109.666L73.2281 109.922L74.3414 110.929C74.4485 111.036 74.4913 111.164 74.4913 111.314L74.3414 112.813L75.6047 112.085C75.6689 112.042 75.7117 112.021 75.7546 112.021ZM78.1312 113.926C78.0241 113.948 77.9171 113.948 77.8314 113.905L75.883 112.963L74.0631 114.012C73.9132 114.098 73.7419 114.098 73.5921 114.012C73.4422 113.926 73.378 113.776 73.378 113.584L73.5921 111.443L71.9648 109.965C71.8364 109.837 71.7935 109.687 71.8364 109.516C71.8792 109.344 72.0077 109.237 72.1789 109.194L74.2558 108.83L75.0694 106.882C75.1336 106.711 75.2835 106.625 75.4548 106.604C75.6261 106.604 75.7974 106.668 75.8616 106.818L76.9322 108.723L79.0732 108.98C79.2445 109.002 79.373 109.109 79.4372 109.259C79.4801 109.409 79.4586 109.58 79.3516 109.708L77.9171 111.25L78.4309 113.37C78.4737 113.541 78.4095 113.712 78.281 113.819C78.2596 113.883 78.1954 113.926 78.1312 113.926Z" fill="#004B9D"/>
<path d="M43.9397 53.5257L42.3553 55.26L42.8905 57.5937L40.7494 56.5446L38.7154 57.7222L38.9723 55.3456L37.1738 53.7184L39.4862 53.3116L40.3855 51.1491L41.5631 53.2473L43.9397 53.5257Z" fill="#004B9D"/>
<path d="M40.6199 56.1164C40.727 56.095 40.8341 56.095 40.9197 56.1378L42.2258 56.7802L41.8832 55.3456C41.8618 55.1958 41.8832 55.0459 41.9902 54.9388L42.9751 53.8683L41.4764 53.697C41.3479 53.6756 41.2194 53.5899 41.1338 53.4615L40.4058 52.1554L39.8492 53.4829C39.7849 53.6114 39.6779 53.7398 39.5066 53.7612L38.0935 53.9967L39.2068 55.0031C39.3139 55.1101 39.3781 55.2386 39.3567 55.3885L39.2068 56.8872L40.4701 56.1592C40.5557 56.1378 40.5771 56.1164 40.6199 56.1164ZM43.018 58.022C42.9109 58.0434 42.8039 58.0434 42.7182 58.0006L40.7698 57.0585L38.9499 58.1076C38.8 58.1933 38.6287 58.1933 38.4789 58.1076C38.329 58.0006 38.2647 57.8507 38.2862 57.6794L38.5003 55.5383L36.873 54.061C36.7446 53.9325 36.7018 53.7826 36.7446 53.5899C36.7874 53.4401 36.9373 53.3116 37.0871 53.2688L39.164 52.9048L39.9776 50.9564C40.0418 50.8065 40.1917 50.6995 40.363 50.6781C40.5343 50.6566 40.7056 50.7423 40.7698 50.8922L41.8404 52.8191L43.9815 53.0761C44.1527 53.0975 44.2812 53.2045 44.3454 53.3544C44.3883 53.5043 44.3668 53.697 44.2598 53.804L42.8253 55.3885L43.3391 57.5081C43.3819 57.6794 43.3177 57.8507 43.1892 57.9578C43.125 57.9792 43.0608 58.0006 43.018 58.022Z" fill="#004B9D"/>
<path d="M247.985 125.895L246.422 127.607L246.957 129.941L244.794 128.892L242.782 130.07L243.039 127.715L241.219 126.087L243.553 125.659L244.452 123.497L245.629 125.616L247.985 125.895Z" fill="#004B9D"/>
<path d="M244.686 128.463C244.793 128.442 244.9 128.442 244.986 128.485L246.292 129.127L245.971 127.714C245.928 127.564 245.971 127.414 246.078 127.307L247.063 126.236L245.586 126.065C245.457 126.044 245.329 125.958 245.243 125.83L244.515 124.524L243.958 125.851C243.894 126.001 243.787 126.108 243.616 126.129L242.203 126.386L243.316 127.393C243.423 127.5 243.487 127.628 243.466 127.778L243.316 129.255L244.579 128.527C244.601 128.485 244.643 128.463 244.686 128.463ZM247.063 130.369C246.956 130.39 246.849 130.39 246.763 130.347L244.815 129.405L242.995 130.454C242.845 130.54 242.674 130.54 242.524 130.454C242.395 130.369 242.31 130.219 242.331 130.026L242.545 127.885L240.918 126.408C240.789 126.301 240.747 126.129 240.789 125.958C240.832 125.787 240.982 125.68 241.132 125.637L243.209 125.273L244.023 123.325C244.087 123.153 244.237 123.046 244.408 123.046C244.579 123.025 244.751 123.11 244.815 123.26L245.885 125.166L248.026 125.423C248.198 125.444 248.348 125.551 248.39 125.701C248.455 125.851 248.412 126.022 248.305 126.151L246.892 127.692L247.384 129.812C247.427 129.983 247.363 130.155 247.234 130.262C247.191 130.326 247.127 130.369 247.063 130.369Z" fill="#004B9D"/>
<path d="M244.387 119.578C244.366 119.578 244.344 119.599 244.323 119.599C244.087 119.621 243.852 119.449 243.83 119.214L238.242 71.6175C238.221 71.3606 238.392 71.1465 238.627 71.1251C238.863 71.1037 239.098 71.275 239.12 71.5105L244.708 119.107C244.751 119.321 244.601 119.535 244.387 119.578Z" fill="#004B9D"/>
<path d="M244.965 120.348C244.944 120.348 244.922 120.37 244.901 120.37C244.623 120.391 244.387 120.22 244.344 119.963L237.643 70.868C237.6 70.611 237.793 70.3755 238.071 70.3541C238.349 70.3327 238.585 70.504 238.628 70.7609L245.351 119.877C245.372 120.092 245.201 120.306 244.965 120.348Z" fill="#004B9D"/>
<path d="M244.965 120.348C244.944 120.348 244.922 120.37 244.901 120.37C244.623 120.391 244.387 120.22 244.344 119.963L237.643 70.868C237.6 70.611 237.793 70.3755 238.071 70.3541C238.349 70.3327 238.585 70.504 238.628 70.7609L245.351 119.877C245.372 120.092 245.201 120.306 244.965 120.348Z" stroke="#003977" stroke-width="0.377794" stroke-miterlimit="10"/>
<path d="M198.632 150.367C198.439 150.431 198.204 150.324 198.118 150.131C198.011 149.896 198.118 149.639 198.332 149.532L238.756 130.797C238.992 130.69 239.248 130.797 239.356 131.011C239.463 131.226 239.356 131.504 239.141 131.611L198.696 150.324C198.675 150.345 198.653 150.345 198.632 150.367Z" fill="#004B9D"/>
<path d="M197.882 150.967C197.668 151.031 197.432 150.924 197.347 150.71C197.24 150.474 197.347 150.196 197.561 150.067L239.505 130.155C239.74 130.048 240.019 130.155 240.126 130.391C240.233 130.626 240.126 130.905 239.89 131.012L197.946 150.924C197.925 150.945 197.903 150.945 197.882 150.967Z" fill="#004B9D"/>
<path d="M197.882 150.967C197.668 151.031 197.432 150.924 197.347 150.71C197.24 150.474 197.347 150.196 197.561 150.067L239.505 130.155C239.74 130.048 240.019 130.155 240.126 130.391C240.233 130.626 240.126 130.905 239.89 131.012L197.946 150.924C197.925 150.945 197.903 150.945 197.882 150.967Z" stroke="#003977" stroke-width="0.377794" stroke-miterlimit="10"/>
<path d="M178.27 147.626C178.12 147.669 177.948 147.626 177.841 147.498L148.444 116.773C148.273 116.58 148.273 116.302 148.466 116.152C148.637 115.981 148.937 115.981 149.087 116.152L178.484 146.877C178.655 147.069 178.655 147.348 178.462 147.519C178.419 147.562 178.355 147.605 178.27 147.626Z" fill="#004B9D"/>
<path d="M178.869 148.396C178.698 148.439 178.526 148.396 178.419 148.268L147.845 116.023C147.673 115.831 147.673 115.531 147.866 115.36C148.059 115.167 148.359 115.188 148.53 115.36L179.105 147.604C179.276 147.797 179.276 148.097 179.083 148.268C179.019 148.332 178.955 148.375 178.869 148.396Z" fill="#004B9D"/>
<path d="M178.869 148.396C178.698 148.439 178.526 148.396 178.419 148.268L147.845 116.023C147.673 115.831 147.673 115.531 147.866 115.36C148.059 115.167 148.359 115.188 148.53 115.36L179.105 147.604C179.276 147.797 179.276 148.097 179.083 148.268C179.019 148.332 178.955 148.375 178.869 148.396Z" stroke="#003977" stroke-width="0.377794" stroke-miterlimit="10"/>
<path d="M231.133 62.582C231.069 62.6034 231.005 62.6034 230.94 62.582L180.518 52.6474C180.282 52.6045 180.132 52.369 180.175 52.1335C180.218 51.898 180.454 51.7267 180.711 51.7695L231.133 61.7042C231.369 61.747 231.54 61.9825 231.497 62.218C231.433 62.4321 231.304 62.5392 231.133 62.582Z" fill="#004B9D"/>
<path d="M231.733 63.3531C231.669 63.3745 231.583 63.3959 231.54 63.3745L179.876 52.1552C179.64 52.1124 179.469 51.8126 179.533 51.4915C179.597 51.1703 179.833 50.9562 180.09 51.0204L231.733 62.2397C231.99 62.2825 232.14 62.6037 232.075 62.9035C232.054 63.139 231.904 63.3103 231.733 63.3531Z" fill="#004B9D"/>
<path d="M231.733 63.3531C231.669 63.3745 231.583 63.3959 231.54 63.3745L179.876 52.1552C179.64 52.1124 179.469 51.8126 179.533 51.4915C179.597 51.1703 179.833 50.9562 180.09 51.0204L231.733 62.2397C231.99 62.2825 232.14 62.6037 232.075 62.9035C232.054 63.139 231.904 63.3103 231.733 63.3531Z" stroke="#003977" stroke-width="0.377794" stroke-miterlimit="10"/>
<path d="M342.193 34.0842C342.128 34.1056 342.043 34.1056 341.957 34.0842L293.676 20.6596C293.44 20.5954 293.29 20.3384 293.376 20.1029C293.44 19.8674 293.697 19.7175 293.933 19.7818L342.214 33.2064C342.45 33.2706 342.6 33.5275 342.514 33.7631C342.471 33.9344 342.343 34.0414 342.193 34.0842Z" fill="#004B9D"/>
<path d="M342.792 34.8551C342.707 34.8765 342.621 34.8765 342.557 34.8551L293.076 20.0388C292.819 19.9745 292.691 19.6748 292.776 19.3964C292.862 19.1181 293.119 18.9468 293.354 19.011L342.835 33.8488C343.071 33.913 343.22 34.2128 343.135 34.4911C343.071 34.6624 342.942 34.8123 342.792 34.8551Z" fill="#004B9D"/>
<path d="M342.792 34.8551C342.707 34.8765 342.621 34.8765 342.557 34.8551L293.076 20.0388C292.819 19.9745 292.691 19.6748 292.776 19.3964C292.862 19.1181 293.119 18.9468 293.354 19.011L342.835 33.8488C343.071 33.913 343.22 34.2128 343.135 34.4911C343.071 34.6624 342.942 34.8123 342.792 34.8551Z" stroke="#003977" stroke-width="0.377794" stroke-miterlimit="10"/>
<path d="M243.359 59.6491C243.209 59.692 243.038 59.6491 242.931 59.5207C242.759 59.3494 242.759 59.0711 242.952 58.8998L280.1 22.5013C280.271 22.33 280.55 22.33 280.721 22.5013C280.892 22.6726 280.892 22.9509 280.721 23.1222L243.573 59.5207C243.487 59.5849 243.423 59.6277 243.359 59.6491Z" fill="#004B9D"/>
<path d="M242.589 60.27C242.439 60.3128 242.247 60.2699 242.14 60.1415C241.968 59.9702 241.968 59.6704 242.161 59.4992L280.808 21.9017C281 21.7304 281.279 21.7304 281.471 21.9017C281.664 22.0729 281.664 22.3727 281.471 22.544L242.803 60.1415C242.739 60.2057 242.675 60.2485 242.589 60.27Z" fill="#004B9D"/>
<path d="M242.589 60.27C242.439 60.3128 242.247 60.2699 242.14 60.1415C241.968 59.9702 241.968 59.6704 242.161 59.4992L280.808 21.9017C281 21.7304 281.279 21.7304 281.471 21.9017C281.664 22.0729 281.664 22.3727 281.471 22.544L242.803 60.1415C242.739 60.2057 242.675 60.2485 242.589 60.27Z" stroke="#003977" stroke-width="0.377794" stroke-miterlimit="10"/>
<path d="M170.284 46.0746C170.091 46.1174 169.898 46.0532 169.791 45.8819L142.45 1.71124C142.321 1.49713 142.385 1.21879 142.578 1.09033C142.792 0.961863 143.071 1.02609 143.199 1.2402L170.541 45.3894C170.669 45.6035 170.605 45.8819 170.391 46.0104C170.369 46.0318 170.327 46.0532 170.284 46.0746Z" fill="#004B9D"/>
<path d="M170.884 46.8452C170.692 46.888 170.477 46.8024 170.37 46.6311L141.851 0.961657C141.723 0.747548 141.787 0.469208 142.001 0.319332C142.215 0.190867 142.515 0.255099 142.643 0.469208L171.163 46.1386C171.291 46.3527 171.227 46.6311 171.013 46.7809C170.97 46.8238 170.927 46.8452 170.884 46.8452Z" fill="#004B9D"/>
<path d="M170.884 46.8452C170.692 46.888 170.477 46.8024 170.37 46.6311L141.851 0.961657C141.723 0.747548 141.787 0.469208 142.001 0.319332C142.215 0.190867 142.515 0.255099 142.643 0.469208L171.163 46.1386C171.291 46.3527 171.227 46.6311 171.013 46.7809C170.97 46.8238 170.927 46.8452 170.884 46.8452Z" stroke="#003977" stroke-width="0.377794" stroke-miterlimit="10"/>
<path d="M145.619 103.113C145.511 103.134 145.404 103.134 145.297 103.07C145.083 102.941 144.998 102.684 145.105 102.47L169.749 57.1005C169.877 56.8864 170.134 56.8008 170.348 56.9293C170.562 57.0577 170.648 57.3147 170.541 57.5288L145.897 102.92C145.833 103.005 145.726 103.091 145.619 103.113Z" fill="#004B9D"/>
<path d="M144.868 103.734C144.761 103.755 144.633 103.755 144.526 103.691C144.29 103.563 144.205 103.284 144.333 103.07L170.476 56.5016C170.604 56.2661 170.883 56.1805 171.118 56.3089C171.354 56.4374 171.439 56.7157 171.311 56.9298L145.19 103.499C145.125 103.606 144.997 103.691 144.868 103.734Z" fill="#004B9D"/>
<path d="M144.868 103.734C144.761 103.755 144.633 103.755 144.526 103.691C144.29 103.563 144.205 103.284 144.333 103.07L170.476 56.5016C170.604 56.2661 170.883 56.1805 171.118 56.3089C171.354 56.4374 171.439 56.7157 171.311 56.9298L145.19 103.499C145.125 103.606 144.997 103.691 144.868 103.734Z" stroke="#003977" stroke-width="0.377794" stroke-miterlimit="10"/>
<path d="M136.605 109.793C136.562 109.793 136.54 109.815 136.519 109.793L82.9061 111.742C82.6492 111.742 82.4565 111.549 82.4351 111.313C82.4137 111.078 82.6278 110.864 82.8633 110.842L136.476 108.894C136.733 108.894 136.926 109.087 136.947 109.344C136.947 109.558 136.797 109.729 136.605 109.793Z" fill="#004B9D"/>
<path d="M137.354 109.3C137.311 109.322 137.289 109.322 137.247 109.322L82.1136 112.362C81.8567 112.384 81.6426 112.148 81.6426 111.87C81.6426 111.591 81.8353 111.334 82.0922 111.334L137.225 108.316C137.482 108.294 137.675 108.53 137.696 108.808C137.718 109.044 137.568 109.236 137.354 109.3Z" fill="#004B9D"/>
<path d="M137.354 109.3C137.311 109.322 137.289 109.322 137.247 109.322L82.1136 112.362C81.8567 112.384 81.6426 112.148 81.6426 111.87C81.6426 111.591 81.8353 111.334 82.0922 111.334L137.225 108.316C137.482 108.294 137.675 108.53 137.696 108.808C137.718 109.044 137.568 109.236 137.354 109.3Z" stroke="#003977" stroke-width="0.377794" stroke-miterlimit="10"/>
<path d="M71.516 105.19C71.3233 105.233 71.1306 105.168 71.0235 104.997L43.6176 61.4473C43.4892 61.2546 43.5534 60.9549 43.7461 60.8264C43.9602 60.6979 44.2385 60.7622 44.367 60.9763L71.7729 104.526C71.9014 104.74 71.8372 105.018 71.623 105.147C71.623 105.168 71.5588 105.19 71.516 105.19Z" fill="#004B9D"/>
<path d="M72.1145 105.961C71.9218 106.003 71.7077 105.939 71.6006 105.746L43.0171 60.6765C42.8886 60.4624 42.9529 60.1841 43.167 60.0342C43.3811 59.9057 43.6808 59.9699 43.8093 60.1841L72.3928 105.254C72.5213 105.468 72.457 105.746 72.2429 105.896C72.2215 105.939 72.1573 105.961 72.1145 105.961Z" fill="#004B9D"/>
<path d="M72.1145 105.961C71.9218 106.003 71.7077 105.939 71.6006 105.746L43.0171 60.6765C42.8886 60.4624 42.9529 60.1841 43.167 60.0342C43.3811 59.9057 43.6808 59.9699 43.8093 60.1841L72.3928 105.254C72.5213 105.468 72.457 105.746 72.2429 105.896C72.2215 105.939 72.1573 105.961 72.1145 105.961Z" stroke="#003977" stroke-width="0.377794" stroke-miterlimit="10"/>
<path d="M43.8099 49.2C43.7029 49.2214 43.5958 49.2214 43.4888 49.1572C43.2747 49.0287 43.189 48.7718 43.2961 48.5577L67.5974 3.14522C67.7045 2.93111 67.9828 2.84547 68.1969 2.97393C68.411 3.1024 68.4967 3.35933 68.3896 3.57344L44.0883 48.9645C44.0241 49.093 43.917 49.1572 43.8099 49.2Z" fill="#004B9D"/>
<path d="M43.0598 49.7998C42.9527 49.8212 42.8243 49.8212 42.7172 49.757C42.4817 49.6285 42.3961 49.3502 42.5245 49.1361L68.3246 2.52462C68.4531 2.2891 68.7314 2.22487 68.9669 2.33192C69.2025 2.46039 69.2881 2.73872 69.1596 2.95283L43.381 49.5857C43.3167 49.6928 43.1883 49.7784 43.0598 49.7998Z" fill="#004B9D"/>
<path d="M43.0598 49.7998C42.9527 49.8212 42.8243 49.8212 42.7172 49.757C42.4817 49.6285 42.3961 49.3502 42.5245 49.1361L68.3246 2.52462C68.4531 2.2891 68.7314 2.22487 68.9669 2.33192C69.2025 2.46039 69.2881 2.73872 69.1596 2.95283L43.381 49.5857C43.3167 49.6928 43.1883 49.7784 43.0598 49.7998Z" stroke="#003977" stroke-width="0.377794" stroke-miterlimit="10"/>
<path d="M183.946 149.511L178.357 152.358L183.881 154.906L184.716 160.923L189.084 156.448L195.165 157.326L192.339 151.973L195.272 146.513L189.17 147.691L184.888 143.452L183.946 149.511Z" fill="#004B9D"/>
<path d="M188.378 155.527C188.635 155.335 188.934 155.249 189.256 155.292L193.088 155.849L191.332 152.509C191.161 152.166 191.161 151.781 191.332 151.417L193.131 148.076L189.405 148.804C189.02 148.89 188.635 148.762 188.378 148.505L185.701 145.85L185.102 149.682C185.038 150.046 184.824 150.367 184.481 150.539L181.012 152.294L184.374 153.857C184.738 154.029 184.973 154.35 185.038 154.735L185.552 158.418L188.249 155.635C188.292 155.613 188.335 155.57 188.378 155.527ZM195.872 158.247C195.636 158.418 195.315 158.504 194.994 158.461L189.491 157.669L185.552 161.737C185.252 162.036 184.781 162.165 184.352 162.036C183.946 161.908 183.625 161.544 183.582 161.094L182.832 155.699L177.886 153.408C177.501 153.215 177.223 152.83 177.223 152.38C177.223 151.952 177.458 151.524 177.865 151.331L182.897 148.74L183.753 143.259C183.817 142.831 184.117 142.488 184.545 142.338C184.952 142.21 185.402 142.317 185.723 142.617L189.555 146.428L195.058 145.357C195.508 145.272 195.936 145.443 196.214 145.807C196.471 146.171 196.514 146.642 196.3 147.027L193.666 151.973L196.214 156.769C196.428 157.155 196.385 157.626 196.128 157.968C196.043 158.075 195.957 158.161 195.872 158.247Z" fill="#004B9D"/>
</svg>
