<svg width="1211" height="1230" viewBox="0 0 1211 1230" fill="none" xmlns="http://www.w3.org/2000/svg">
<path d="M596.236 1229.62C485.273 1229.62 376.52 1199.75 281.697 1143.16L301.776 1109.53C390.45 1162.47 492.286 1190.43 596.236 1190.43C913.657 1190.43 1171.9 932.186 1171.9 614.86C1171.9 297.439 913.657 39.1973 596.236 39.1973C493.151 39.1973 396.599 65.0407 309.461 115.863L289.767 82.0454C382.956 27.5726 486.041 0 596.236 0C935.178 0 1211 275.822 1211 614.86C1211 953.802 935.178 1229.62 596.236 1229.62Z" fill="#003572"/>
<path d="M602.481 13.4492H593.546V108.849H602.481V13.4492Z" fill="#003572"/>
<path d="M351.83 172.162L344.048 176.678L289.767 82.2389L297.549 77.7235L351.83 172.162Z" fill="#003572"/>
<path d="M83.7622 304.596L79.2486 312.418L161.874 360.098L166.388 352.277L83.7622 304.596Z" fill="#003572"/>
<path d="M95.8939 601.122H0.494507V610.057H95.8939V601.122Z" fill="#003572"/>
<path d="M159.209 851.755L76.5836 899.436L81.0491 907.174L163.675 859.493L159.209 851.755Z" fill="#003572"/>
<path d="M339.346 1037.19L278.989 1141.78L286.728 1146.25L347.085 1041.66L339.346 1037.19Z" fill="#003572"/>
<path d="M597.101 1107.71H588.07V1203.11H597.101V1107.71Z" fill="#003572"/>
<path d="M846.608 1039.82L838.787 1044.34L886.467 1126.96L894.289 1122.45L846.608 1039.82Z" fill="#003572"/>
<path d="M1024.24 864.264L1028.66 856.386L1111.28 904.134L1106.76 911.915L1024.24 864.264Z" fill="#003572"/>
<path d="M1190.06 606.501H1094.66V615.532H1190.06V606.501Z" fill="#003572"/>
<path d="M1109.45 309.392L1026.82 357.073L1031.33 364.894L1113.96 317.214L1109.45 309.392Z" fill="#003572"/>
<path d="M891.091 92.3311L843.41 174.956L851.232 179.47L898.913 96.8447L891.091 92.3311Z" fill="#003572"/>
<path d="M543.685 93.2861L539.554 93.7664L532.06 21.7125L536.095 21.2321L543.685 93.2861Z" fill="#003572"/>
<path d="M489.693 101.645L485.658 102.509L470.574 31.7043L474.609 30.8396L489.693 101.645Z" fill="#003572"/>
<path d="M414.402 46.6794L410.473 47.9567L432.871 116.845L436.8 115.568L414.402 46.6794Z" fill="#003572"/>
<path d="M356.304 68.7615L352.526 70.4329L381.835 136.678L385.612 135.006L356.304 68.7615Z" fill="#003572"/>
<path d="M248.388 130.589L245.045 133.016L287.61 191.626L290.952 189.199L248.388 130.589Z" fill="#003572"/>
<path d="M199.958 169.544L196.881 172.301L245.219 226.253L248.296 223.496L199.958 169.544Z" fill="#003572"/>
<path d="M155.762 213.42L152.994 216.488L206.78 265.014L209.547 261.947L155.762 213.42Z" fill="#003572"/>
<path d="M116.439 261.612L114.002 264.948L172.496 307.672L174.933 304.336L116.439 261.612Z" fill="#003572"/>
<path d="M53.874 369.039L52.191 372.811L118.342 402.322L120.025 398.55L53.874 369.039Z" fill="#003572"/>
<path d="M31.3649 427.09L30.0876 431.019L98.9763 453.416L100.254 449.488L31.3649 427.09Z" fill="#003572"/>
<path d="M15.0918 487.158L14.2276 491.198L85.0649 506.352L85.9292 502.312L15.0918 487.158Z" fill="#003572"/>
<path d="M4.62585 552.7L76.6798 560.29L77.1601 556.255L5.10621 548.665L4.62585 552.7Z" fill="#003572"/>
<path d="M4.62585 672.984L5.01014 677.019L77.1601 669.429L76.6798 665.394L4.62585 672.984Z" fill="#003572"/>
<path d="M84.956 719.381L14.1187 734.535L14.9829 738.575L85.8202 723.421L84.956 719.381Z" fill="#003572"/>
<path d="M98.9763 772.269L30.0876 794.667L31.3649 798.595L100.254 776.197L98.9763 772.269Z" fill="#003572"/>
<path d="M118.311 823.341L52.1606 852.853L53.8437 856.625L119.994 827.114L118.311 823.341Z" fill="#003572"/>
<path d="M172.559 918.064L174.961 921.426L116.357 963.986L113.955 960.72L172.559 918.064Z" fill="#003572"/>
<path d="M206.787 960.754L153.002 1009.28L155.769 1012.35L209.555 963.821L206.787 960.754Z" fill="#003572"/>
<path d="M245.371 999.539L196.845 1053.32L199.912 1056.09L248.439 1002.31L245.371 999.539Z" fill="#003572"/>
<path d="M287.57 1034.12L245.005 1092.73L248.347 1095.15L290.912 1036.54L287.57 1034.12Z" fill="#003572"/>
<path d="M381.996 1089.07L385.743 1090.7L356.249 1156.9L352.502 1155.17L381.996 1089.07Z" fill="#003572"/>
<path d="M432.88 1108.79L410.482 1177.68L414.411 1178.96L436.809 1110.07L432.88 1108.79Z" fill="#003572"/>
<path d="M485.725 1123.18L470.571 1194.02L474.611 1194.88L489.765 1124.04L485.725 1123.18Z" fill="#003572"/>
<path d="M539.703 1131.97L531.909 1203.98L536.016 1204.43L543.81 1132.41L539.703 1131.97Z" fill="#003572"/>
<path d="M648.788 1132.4L652.823 1131.92L660.412 1203.97L656.281 1204.45L648.788 1132.4Z" fill="#003572"/>
<path d="M706.787 1123.2L702.747 1124.06L717.901 1194.9L721.941 1194.03L706.787 1123.2Z" fill="#003572"/>
<path d="M759.518 1108.85L755.589 1110.12L777.987 1179.01L781.916 1177.74L759.518 1108.85Z" fill="#003572"/>
<path d="M810.375 1089.08L806.602 1090.76L836.114 1156.91L839.886 1155.23L810.375 1089.08Z" fill="#003572"/>
<path d="M901.457 1036.52L904.819 1034.02L947.379 1092.72L944.017 1095.12L901.457 1036.52Z" fill="#003572"/>
<path d="M947.12 999.532L944.053 1002.3L992.579 1056.08L995.646 1053.32L947.12 999.532Z" fill="#003572"/>
<path d="M985.737 960.659L982.97 963.727L1036.76 1012.25L1039.52 1009.19L985.737 960.659Z" fill="#003572"/>
<path d="M1019.87 917.94L1017.44 921.276L1075.93 964L1078.37 960.664L1019.87 917.94Z" fill="#003572"/>
<path d="M1074.02 823.318L1072.34 827.09L1138.49 856.601L1140.17 852.829L1074.02 823.318Z" fill="#003572"/>
<path d="M1093.48 772.242L1092.2 776.171L1161.09 798.568L1162.36 794.64L1093.48 772.242Z" fill="#003572"/>
<path d="M1106.57 723.421L1107.44 719.386L1178.24 734.469L1177.38 738.504L1106.57 723.421Z" fill="#003572"/>
<path d="M1115.72 665.212L1115.27 669.319L1187.29 677.113L1187.74 673.006L1115.72 665.212Z" fill="#003572"/>
<path d="M1187.32 548.558L1115.3 556.352L1115.74 560.46L1187.76 552.665L1187.32 548.558Z" fill="#003572"/>
<path d="M1107.34 506.298L1106.57 502.263L1177.38 487.18L1178.24 491.215L1107.34 506.298Z" fill="#003572"/>
<path d="M1161.05 427.196L1092.16 449.594L1093.44 453.522L1162.33 431.125L1161.05 427.196Z" fill="#003572"/>
<path d="M1138.49 369.189L1072.34 398.701L1074.02 402.473L1140.17 372.962L1138.49 369.189Z" fill="#003572"/>
<path d="M1049.41 353.543L1047.39 349.989L1110.12 313.77L1112.14 317.324L1049.41 353.543Z" fill="#003572"/>
<path d="M1075.98 261.528L1017.49 304.259L1019.93 307.595L1078.42 264.864L1075.98 261.528Z" fill="#003572"/>
<path d="M1036.76 213.445L982.971 261.971L985.738 265.039L1039.52 216.512L1036.76 213.445Z" fill="#003572"/>
<path d="M947.091 226.152L944.112 223.462L992.533 169.566L995.607 172.352L947.091 226.152Z" fill="#003572"/>
<path d="M944.053 130.631L901.329 189.125L904.664 191.561L947.388 133.067L944.053 130.631Z" fill="#003572"/>
<path d="M836.172 68.7759L806.798 134.992L810.575 136.667L839.948 70.451L836.172 68.7759Z" fill="#003572"/>
<path d="M778.033 46.6928L755.635 115.582L759.564 116.859L781.962 47.9701L778.033 46.6928Z" fill="#003572"/>
<path d="M706.815 102.509L702.78 101.645L717.863 30.8396L721.802 31.6082L706.815 102.509Z" fill="#003572"/>
<path d="M656.401 21.2978L648.607 93.3159L652.714 93.7604L660.508 21.7423L656.401 21.2978Z" fill="#003572"/>
<path d="M602.481 13.4492H593.546V108.849H602.481V13.4492Z" fill="#003572"/>
<path d="M351.829 172.162L344.047 176.678L289.767 82.2389L297.548 77.7235L351.829 172.162Z" fill="#003572"/>
<path d="M83.7622 304.596L79.2486 312.418L161.874 360.098L166.388 352.277L83.7622 304.596Z" fill="#003572"/>
<path d="M95.8939 601.122H0.494507V610.057H95.8939V601.122Z" fill="#003572"/>
<path d="M159.208 851.755L76.5829 899.436L81.0485 907.174L163.674 859.493L159.208 851.755Z" fill="#003572"/>
<path d="M339.346 1037.19L278.989 1141.78L286.728 1146.25L347.085 1041.66L339.346 1037.19Z" fill="#003572"/>
<path d="M597.101 1107.71H588.071V1203.11H597.101V1107.71Z" fill="#003572"/>
<path d="M846.608 1039.82L838.787 1044.34L886.467 1126.96L894.289 1122.45L846.608 1039.82Z" fill="#003572"/>
<path d="M1024.24 864.263L1028.66 856.385L1111.28 904.132L1106.76 911.914L1024.24 864.263Z" fill="#003572"/>
<path d="M1190.06 606.501H1094.66V615.532H1190.06V606.501Z" fill="#003572"/>
<path d="M1109.45 309.392L1026.82 357.073L1031.33 364.894L1113.96 317.214L1109.45 309.392Z" fill="#003572"/>
<path d="M891.092 92.3311L843.411 174.956L851.233 179.47L898.913 96.8447L891.092 92.3311Z" fill="#003572"/>
<path d="M543.685 93.2861L539.554 93.7664L532.06 21.7125L536.095 21.2321L543.685 93.2861Z" fill="#003572"/>
<path d="M489.692 101.645L485.657 102.509L470.574 31.7043L474.609 30.8396L489.692 101.645Z" fill="#003572"/>
<path d="M414.402 46.6794L410.473 47.9567L432.871 116.845L436.8 115.568L414.402 46.6794Z" fill="#003572"/>
<path d="M356.304 68.7615L352.526 70.4329L381.835 136.678L385.612 135.006L356.304 68.7615Z" fill="#003572"/>
<path d="M248.387 130.589L245.045 133.016L287.609 191.626L290.952 189.199L248.387 130.589Z" fill="#003572"/>
<path d="M199.958 169.544L196.881 172.301L245.219 226.253L248.296 223.496L199.958 169.544Z" fill="#003572"/>
<path d="M155.761 213.42L152.994 216.488L206.779 265.014L209.546 261.947L155.761 213.42Z" fill="#003572"/>
<path d="M116.439 261.612L114.002 264.948L172.496 307.672L174.933 304.336L116.439 261.612Z" fill="#003572"/>
<path d="M53.8733 369.039L52.1903 372.811L118.341 402.322L120.024 398.55L53.8733 369.039Z" fill="#003572"/>
<path d="M31.3642 427.09L30.0869 431.019L98.9756 453.416L100.253 449.488L31.3642 427.09Z" fill="#003572"/>
<path d="M15.0918 487.158L14.2276 491.198L85.0649 506.352L85.9292 502.312L15.0918 487.158Z" fill="#003572"/>
<path d="M4.62518 552.703L76.6791 560.292L77.1595 556.257L5.10554 548.668L4.62518 552.703Z" fill="#003572"/>
<path d="M4.62518 672.984L5.00947 677.019L77.1595 669.429L76.6791 665.394L4.62518 672.984Z" fill="#003572"/>
<path d="M84.9567 719.381L14.1193 734.535L14.9835 738.575L85.8209 723.421L84.9567 719.381Z" fill="#003572"/>
<path d="M98.9763 772.269L30.0876 794.667L31.3649 798.595L100.254 776.197L98.9763 772.269Z" fill="#003572"/>
<path d="M118.311 823.341L52.1606 852.853L53.8437 856.625L119.994 827.114L118.311 823.341Z" fill="#003572"/>
<path d="M172.559 918.064L174.961 921.426L116.357 963.986L113.955 960.72L172.559 918.064Z" fill="#003572"/>
<path d="M206.787 960.754L153.001 1009.28L155.769 1012.35L209.554 963.821L206.787 960.754Z" fill="#003572"/>
<path d="M245.371 999.539L196.845 1053.32L199.912 1056.09L248.439 1002.31L245.371 999.539Z" fill="#003572"/>
<path d="M287.57 1034.12L245.005 1092.73L248.347 1095.15L290.912 1036.54L287.57 1034.12Z" fill="#003572"/>
<path d="M381.996 1089.07L385.743 1090.71L356.249 1156.9L352.502 1155.17L381.996 1089.07Z" fill="#003572"/>
<path d="M432.88 1108.79L410.482 1177.68L414.411 1178.96L436.809 1110.07L432.88 1108.79Z" fill="#003572"/>
<path d="M485.725 1123.18L470.571 1194.02L474.611 1194.88L489.765 1124.04L485.725 1123.18Z" fill="#003572"/>
<path d="M539.703 1131.97L531.909 1203.98L536.016 1204.43L543.81 1132.41L539.703 1131.97Z" fill="#003572"/>
<path d="M648.788 1132.4L652.823 1131.92L660.412 1203.97L656.281 1204.45L648.788 1132.4Z" fill="#003572"/>
<path d="M706.787 1123.2L702.747 1124.06L717.901 1194.9L721.941 1194.03L706.787 1123.2Z" fill="#003572"/>
<path d="M759.517 1108.85L755.589 1110.12L777.986 1179.01L781.915 1177.74L759.517 1108.85Z" fill="#003572"/>
<path d="M810.375 1089.08L806.602 1090.76L836.114 1156.91L839.886 1155.23L810.375 1089.08Z" fill="#003572"/>
<path d="M901.457 1036.52L904.819 1034.02L947.379 1092.72L944.017 1095.12L901.457 1036.52Z" fill="#003572"/>
<path d="M947.12 999.532L944.053 1002.3L992.579 1056.08L995.646 1053.32L947.12 999.532Z" fill="#003572"/>
<path d="M985.737 960.656L982.97 963.724L1036.76 1012.25L1039.52 1009.18L985.737 960.656Z" fill="#003572"/>
<path d="M1019.87 917.94L1017.44 921.276L1075.93 964L1078.37 960.664L1019.87 917.94Z" fill="#003572"/>
<path d="M1074.02 823.318L1072.34 827.09L1138.49 856.601L1140.17 852.829L1074.02 823.318Z" fill="#003572"/>
<path d="M1093.48 772.242L1092.2 776.171L1161.09 798.568L1162.36 794.64L1093.48 772.242Z" fill="#003572"/>
<path d="M1106.57 723.421L1107.43 719.386L1178.24 734.469L1177.37 738.504L1106.57 723.421Z" fill="#003572"/>
<path d="M1115.72 665.212L1115.27 669.319L1187.29 677.113L1187.74 673.006L1115.72 665.212Z" fill="#003572"/>
<path d="M1187.32 548.558L1115.3 556.352L1115.74 560.46L1187.76 552.665L1187.32 548.558Z" fill="#003572"/>
<path d="M1107.34 506.298L1106.57 502.263L1177.37 487.18L1178.24 491.215L1107.34 506.298Z" fill="#003572"/>
<path d="M1161.05 427.196L1092.16 449.594L1093.44 453.522L1162.33 431.125L1161.05 427.196Z" fill="#003572"/>
<path d="M1138.49 369.189L1072.34 398.701L1074.02 402.473L1140.17 372.962L1138.49 369.189Z" fill="#003572"/>
<path d="M1049.41 353.543L1047.39 349.989L1110.12 313.77L1112.14 317.324L1049.41 353.543Z" fill="#003572"/>
<path d="M1075.98 261.528L1017.49 304.259L1019.93 307.595L1078.42 264.864L1075.98 261.528Z" fill="#003572"/>
<path d="M1036.76 213.445L982.971 261.971L985.738 265.039L1039.52 216.512L1036.76 213.445Z" fill="#003572"/>
<path d="M947.091 226.152L944.112 223.462L992.533 169.566L995.607 172.352L947.091 226.152Z" fill="#003572"/>
<path d="M944.053 130.631L901.329 189.125L904.664 191.561L947.388 133.067L944.053 130.631Z" fill="#003572"/>
<path d="M836.172 68.7759L806.798 134.992L810.575 136.667L839.948 70.451L836.172 68.7759Z" fill="#003572"/>
<path d="M778.033 46.6928L755.635 115.582L759.564 116.859L781.962 47.9701L778.033 46.6928Z" fill="#003572"/>
<path d="M706.815 102.509L702.78 101.645L717.863 30.8396L721.802 31.6082L706.815 102.509Z" fill="#003572"/>
<path d="M656.401 21.2978L648.607 93.3159L652.714 93.7604L660.508 21.7423L656.401 21.2978Z" fill="#003572"/>
<path fill-rule="evenodd" clip-rule="evenodd" d="M266.912 505.78V320.13H289.946C302.896 320.13 310.688 326.777 310.688 345.342V480.568C310.688 499.133 302.896 505.78 289.946 505.78H266.912ZM290.634 283H226V542.91H290.634C331.431 542.91 351.485 520.333 351.485 478.734V347.29C351.485 305.69 331.545 283 290.634 283ZM418.411 400.005V320.13H438.122C452.561 320.13 458.864 328.267 458.864 346.832V372.501C458.864 393.358 449.582 400.005 434.34 400.005H418.411ZM459.323 510.937C459.323 532.137 460.698 536.263 462.99 542.91H504.474C500.349 533.283 500.005 524.001 500.005 511.395V471.286C500.005 444.125 493.358 424.415 472.96 415.934C491.181 407.454 499.661 389.92 499.661 363.219V342.82C499.661 302.711 481.44 283 439.153 283H377.499V542.91H418.411V437.135H432.507C451.072 437.135 459.323 445.959 459.323 470.14V510.937ZM567.733 392.556H623.772V429.686H567.733V505.78H638.211V542.91H526.821V283H638.211V320.13H567.733V392.556ZM741.809 460.513H702.501L722.098 329.069L741.809 460.513ZM754.414 542.91H795.67L754.185 283H694.365L652.651 542.91H690.125L697.23 495.81H747.309L754.414 542.91ZM901.215 467.503L929.063 283H985.789V542.91H947.169V356.458L918.978 542.91H880.358L849.875 359.093V542.91H814.235V283H871.076L901.215 467.503ZM320.901 592.623H226V620.58H258.107V787.995H288.794V620.58H320.901V592.623ZM365.021 787.995H334.333V592.623H365.021V676.385H399.858V592.623H431.091V787.995H399.858V704.232H365.021V787.995ZM526.32 674.965H484.166V620.58H537.131V592.623H453.479V787.995H537.131V760.037H484.166V702.812H526.32V674.965ZM586.82 620.58V680.535H598.833C610.3 680.535 617.289 675.511 617.289 659.894V640.674C617.289 626.695 612.593 620.58 601.673 620.58H586.82ZM620.347 787.885L620.26 787.619C618.67 782.749 617.617 779.521 617.617 763.969V733.282C617.617 715.153 611.501 708.382 597.523 708.382H586.82V787.885H556.133V592.623H602.437C634.216 592.623 647.977 607.475 647.977 637.507V652.905C647.977 672.999 641.533 686.104 627.882 692.547C643.171 698.99 648.304 713.733 648.304 734.155V764.296C648.304 773.797 648.632 780.787 651.58 787.995H620.347V787.885ZM727.261 725.971H697.666L712.409 627.247L727.261 725.971ZM736.653 788H767.668L736.435 592.738H691.441L660.208 788H688.383L693.734 752.617H731.411L736.653 788ZM812.661 620.58V686.65H827.186C837.014 686.65 842.256 682.172 842.256 668.303V639.036C842.256 625.057 836.905 620.58 827.186 620.58H812.661ZM872.944 640.892V666.337C872.944 697.571 857.873 714.607 827.186 714.607H812.661V787.995H781.974V592.623H827.186C857.873 592.623 872.944 609.659 872.944 640.892ZM877.968 592.623L916.736 723.234V787.885H947.424V723.234L986.192 592.623H956.925L933.445 681.626L910.075 592.623H877.968Z" fill="url(#paint0_linear)"/>
<defs>
<linearGradient id="paint0_linear" x1="935" y1="271.5" x2="932.08" y2="787.885" gradientUnits="userSpaceOnUse">
<stop stop-color="#003774"/>
<stop offset="1" stop-color="#00428A"/>
</linearGradient>
</defs>
</svg>
