<svg width="135" height="101" viewBox="0 0 135 101" fill="none" xmlns="http://www.w3.org/2000/svg">
<path d="M43.3646 86.4181C68.7719 86.4181 86.7343 66.9194 86.7343 43.6392V43.4028C86.7343 20.1226 69.0083 0.860304 43.6009 0.860304C18.1936 0.860304 0.231169 20.359 0.231169 43.6392V43.8755C0.231169 67.1558 17.9572 86.4181 43.3646 86.4181ZM43.6009 72.9463C27.1748 72.9463 15.4756 59.7108 15.4756 43.6392V43.4028C15.4756 27.3312 26.9384 14.3321 43.3646 14.3321C59.7907 14.3321 71.4899 27.5676 71.4899 43.6392V43.8755C71.4899 59.9472 60.0271 72.9463 43.6009 72.9463ZM100.16 100.599H134.076V93.0358H111.859L123.677 83.3456C130.767 77.5551 133.721 73.5371 133.721 67.1558C133.721 59.12 127.34 53.4476 118.004 53.4476C109.614 53.4476 104.769 57.3473 100.396 63.4924L106.541 68.3375C109.85 63.8469 113.395 61.3653 117.532 61.3653C121.549 61.3653 124.74 63.9651 124.74 67.8648C124.74 71.8827 122.258 74.7189 116.35 79.564L100.16 93.2722V100.599Z" fill="#004B9D"/>
</svg>
