<svg width="129" height="129" viewBox="0 0 129 129" fill="none" xmlns="http://www.w3.org/2000/svg">
<circle cx="64.5" cy="64.5" r="64.414" fill="#4196CA" fill-opacity="0.5" stroke="white" stroke-width="0.172"/>
<path d="M63.3981 51.3172V43.9359C63.3981 43.2836 63.913 42.7687 64.5653 42.7687C65.2176 42.7687 65.7326 43.2836 65.7326 43.9359V51.3172C69.7837 50.7335 72.9422 47.2317 72.9422 43.0433C72.9422 34.9754 67.0715 17.5694 64.5653 10.0165C62.0591 17.5694 56.1885 34.9754 56.1885 43.0433C56.2228 47.2661 59.347 50.7679 63.3981 51.3172Z" fill="white"/>
<path d="M63.3975 53.6859V57.634H65.732V53.6859C64.9767 53.7889 64.2557 53.7889 63.3975 53.6859Z" fill="white"/>
<path d="M111.29 47.4034H80.7349C80.0826 47.4034 79.5676 47.9183 79.5676 48.5706C79.5676 49.2229 80.0826 49.7379 80.7349 49.7379H100.269L91.8926 95.5704C91.7553 96.3943 91 97.0123 90.176 97.0123H39.0222C38.1639 97.0123 37.443 96.3943 37.3056 95.5704L28.8944 49.7379H48.429C49.0813 49.7379 49.5963 49.2229 49.5963 48.5706C49.5963 47.9183 49.0813 47.4034 48.429 47.4034H17.874C17.1531 47.4034 16.6038 48.0557 16.7068 48.7766L27.6242 108.307C28.1391 111.088 30.5767 113.114 33.3919 113.114H95.7377C98.5529 113.114 100.99 111.088 101.505 108.307L112.423 48.7766C112.594 48.0557 112.011 47.4034 111.29 47.4034Z" fill="white"/>
</svg>
