<svg width="568" height="451" viewBox="0 0 568 451" fill="none" xmlns="http://www.w3.org/2000/svg">
<path d="M342.121 167H345.745V156.104L350.425 163.208H350.521L355.249 156.032V167H358.921V150.2H354.937L350.521 157.304L346.105 150.2H342.121V167ZM362.957 167H375.749V163.712H366.629V160.184H374.549V156.896H366.629V153.488H375.629V150.2H362.957V167ZM379.036 167H391.108V163.64H382.732V150.2H379.036V167ZM392.455 167H396.223L397.759 163.232H404.863L406.399 167H410.263L403.063 150.08H399.655L392.455 167ZM399.079 159.968L401.311 154.52L403.543 159.968H399.079ZM414.612 167H418.308V153.608H423.42V150.2H409.5V153.608H414.612V167ZM433.696 167.288C438.88 167.288 442.648 163.376 442.648 158.6V158.552C442.648 153.776 438.928 149.912 433.744 149.912C428.56 149.912 424.792 153.824 424.792 158.6V158.648C424.792 163.424 428.512 167.288 433.696 167.288ZM433.744 163.88C430.768 163.88 428.656 161.48 428.656 158.6V158.552C428.656 155.672 430.72 153.32 433.696 153.32C436.672 153.32 438.784 155.72 438.784 158.6V158.648C438.784 161.528 436.72 163.88 433.744 163.88ZM445.926 167H449.574V156.32L457.71 167H460.854V150.2H457.206V160.544L449.334 150.2H445.926V167ZM465.055 167H468.751V150.2H465.055V167ZM472.95 167H476.598V156.32L484.734 167H487.878V150.2H484.23V160.544L476.358 150.2H472.95V167Z" fill="white"/>
<path d="M197.948 370.38C197.948 363.742 192.416 358.363 185.581 358.363C182.321 358.363 179.353 359.601 177.127 361.626C177.936 360.029 178.386 358.251 178.386 356.361C178.386 349.722 172.854 344.344 166.019 344.344C159.183 344.344 153.652 349.722 153.652 356.361C153.652 357.891 153.967 359.354 154.506 360.704C152.46 359.241 149.92 358.363 147.199 358.363C140.363 358.363 134.832 363.742 134.832 370.38C134.832 376.681 139.801 381.834 146.142 382.352C144.298 384.445 143.196 387.167 143.196 390.138C143.196 396.776 148.75 402.154 155.563 402.154C162.376 402.154 167.93 396.776 167.93 390.138C167.93 390.07 167.908 390.003 167.908 389.935C167.413 389.98 166.918 390.003 166.401 390.003C158.419 390.003 151.966 383.724 151.966 375.983C151.966 368.242 158.419 361.964 166.401 361.964C174.383 361.964 180.837 368.242 180.837 375.983C180.837 383.229 175.193 389.17 167.93 389.935C167.93 390.003 167.908 390.07 167.908 390.138C167.908 396.776 173.439 402.154 180.274 402.154C187.11 402.154 192.641 396.776 192.641 390.138C192.641 386.942 191.337 384.017 189.246 381.879C194.283 380.349 197.948 375.781 197.948 370.38Z" fill="white"/>
<path d="M180.252 402.942C174.563 402.942 169.706 399.409 167.885 394.481C166.064 399.409 161.207 402.942 155.518 402.942C148.278 402.942 142.364 397.204 142.364 390.138C142.364 387.572 143.174 385.052 144.658 382.937C138.564 381.789 134 376.523 134 370.38C134 363.314 139.891 357.576 147.154 357.576C149.245 357.576 151.291 358.071 153.135 358.994C152.955 358.116 152.842 357.238 152.842 356.361C152.842 349.295 158.734 343.556 165.996 343.556C173.259 343.556 179.15 349.295 179.15 356.361C179.15 357.418 179.015 358.431 178.768 359.444C180.814 358.228 183.152 357.576 185.581 357.576C192.821 357.576 198.735 363.314 198.735 370.38C198.735 375.646 195.519 380.259 190.595 382.217C192.439 384.467 193.428 387.235 193.428 390.138C193.406 397.204 187.515 402.942 180.252 402.942ZM168.672 390.633C168.942 396.619 174.023 401.389 180.274 401.389C186.66 401.389 191.877 396.349 191.877 390.138C191.877 387.257 190.752 384.512 188.684 382.419L187.784 381.497L188.999 381.137C193.878 379.674 197.161 375.353 197.161 370.38C197.161 364.169 191.944 359.129 185.558 359.129C182.613 359.129 179.802 360.209 177.621 362.189L175.463 364.147C179.15 366.847 181.556 371.145 181.556 375.983C181.556 383.364 176.07 389.53 168.672 390.633ZM147.154 359.129C140.768 359.129 135.551 364.169 135.551 370.38C135.551 376.163 140.206 381.092 146.142 381.587L147.671 381.722L146.659 382.869C144.883 384.895 143.893 387.482 143.893 390.138C143.893 396.349 149.11 401.389 155.496 401.389C161.679 401.389 166.738 396.686 167.076 390.79C166.828 390.79 166.581 390.813 166.334 390.813C157.947 390.813 151.111 384.174 151.111 376.006C151.111 367.837 157.947 361.199 166.334 361.199C169.594 361.199 172.607 362.189 175.08 363.899L176.384 361.266C177.171 359.714 177.554 358.048 177.554 356.361C177.554 350.15 172.337 345.109 165.951 345.109C159.566 345.109 154.349 350.15 154.349 356.361C154.349 357.733 154.619 359.106 155.136 360.411L156.103 362.864L154.012 361.334C152.011 359.894 149.627 359.129 147.154 359.129ZM166.356 362.752C158.824 362.752 152.685 368.692 152.685 376.006C152.685 383.319 158.824 389.26 166.356 389.26C166.738 389.26 167.098 389.238 167.458 389.215L167.818 389.17C174.766 388.45 180.027 382.779 180.027 376.006C180.027 368.692 173.889 362.752 166.356 362.752Z" fill="white"/>
<path d="M208.538 394.188H187.312C176.002 394.188 166.806 384.984 166.806 373.665V352.917C166.806 341.598 176.002 332.395 187.312 332.395H208.538C219.848 332.395 229.045 341.598 229.045 352.917V373.665C229.045 384.984 219.848 394.188 208.538 394.188ZM187.335 333.97C176.879 333.97 168.38 342.476 168.38 352.94V373.688C168.38 384.152 176.879 392.658 187.335 392.658H208.561C219.016 392.658 227.516 384.152 227.516 373.688V352.94C227.516 342.476 219.016 333.97 208.561 333.97H187.335Z" fill="white"/>
<path d="M204.333 385.727H190.28C180.814 385.727 173.102 378.008 173.102 368.535V358.296C173.102 348.822 180.814 341.103 190.28 341.103H204.333C213.8 341.103 221.512 348.822 221.512 358.296V368.535C221.512 378.031 213.8 385.727 204.333 385.727ZM190.28 342.678C181.668 342.678 174.653 349.699 174.653 358.318V368.557C174.653 377.176 181.668 384.197 190.28 384.197H204.333C212.945 384.197 219.961 377.176 219.961 368.557V358.318C219.961 349.699 212.945 342.678 204.333 342.678H190.28Z" fill="white"/>
<path d="M208.403 333.318H188.504C184.772 333.318 181.759 330.28 181.759 326.567C181.759 322.831 184.794 319.816 188.504 319.816H208.403C212.136 319.816 215.149 322.854 215.149 326.567C215.149 330.28 212.114 333.318 208.403 333.318ZM188.482 321.346C185.604 321.346 183.288 323.686 183.288 326.544C183.288 329.425 185.626 331.742 188.482 331.742H208.381C211.259 331.742 213.575 329.402 213.575 326.544C213.575 323.664 211.237 321.346 208.381 321.346H188.482Z" fill="white"/>
<path d="M198.6 320.693C194.98 320.693 192.034 317.745 192.034 314.122V305.571C192.034 301.948 194.98 299 198.6 299C202.22 299 205.166 301.948 205.166 305.571V314.122C205.143 317.768 202.22 320.693 198.6 320.693ZM198.6 300.575C195.834 300.575 193.586 302.826 193.586 305.593V314.145C193.586 316.912 195.834 319.163 198.6 319.163C201.366 319.163 203.614 316.912 203.614 314.145V305.593C203.614 302.826 201.366 300.575 198.6 300.575Z" fill="white"/>
<path d="M204.558 309.306C204.558 309.306 222.816 321.166 222.816 309.306C222.816 297.47 204.558 309.306 204.558 309.306Z" fill="white"/>
<path d="M155.33 447H159.098L160.634 443.232H167.738L169.274 447H173.138L165.938 430.08H162.53L155.33 447ZM161.954 439.968L164.186 434.52L166.418 439.968H161.954ZM175.731 447H179.427V441.624H182.331L185.931 447H190.251L186.147 441C188.283 440.208 189.747 438.504 189.747 435.792V435.744C189.747 434.16 189.243 432.84 188.307 431.904C187.203 430.8 185.547 430.2 183.411 430.2H175.731V447ZM179.427 438.36V433.536H183.099C184.899 433.536 186.003 434.352 186.003 435.936V435.984C186.003 437.4 184.971 438.36 183.171 438.36H179.427ZM201.235 447.288C206.419 447.288 210.187 443.376 210.187 438.6V438.552C210.187 433.776 206.467 429.912 201.283 429.912C196.099 429.912 192.331 433.824 192.331 438.6V438.648C192.331 443.424 196.051 447.288 201.235 447.288ZM201.283 443.88C198.307 443.88 196.195 441.48 196.195 438.6V438.552C196.195 435.672 198.259 433.32 201.235 433.32C204.211 433.32 206.323 435.72 206.323 438.6V438.648C206.323 441.528 204.259 443.88 201.283 443.88ZM213.465 447H217.089V436.104L221.769 443.208H221.865L226.593 436.032V447H230.265V430.2H226.281L221.865 437.304L217.449 430.2H213.465V447ZM232.861 447H236.629L238.165 443.232H245.269L246.805 447H250.669L243.469 430.08H240.061L232.861 447ZM239.485 439.968L241.717 434.52L243.949 439.968H239.485Z" fill="white"/>
<path d="M136.191 278.524H140.607V266.395H152.794V262.156H140.607V250.027H136.191V262.156H124.004V266.395H136.191V278.524Z" fill="white"/>
<path d="M39.42 293.614C56.62 293.614 68.78 280.414 68.78 264.654V264.494C68.78 248.734 56.78 235.694 39.58 235.694C22.38 235.694 10.22 248.894 10.22 264.654V264.814C10.22 280.574 22.22 293.614 39.42 293.614ZM39.58 284.494C28.46 284.494 20.54 275.534 20.54 264.654V264.494C20.54 253.614 28.3 244.814 39.42 244.814C50.54 244.814 58.46 253.774 58.46 264.654V264.814C58.46 275.694 50.7 284.494 39.58 284.494ZM77.8688 303.214H100.829V298.094H85.7888L93.7888 291.534C98.5888 287.614 100.589 284.894 100.589 280.574C100.589 275.134 96.2688 271.294 89.9488 271.294C84.2688 271.294 80.9888 273.934 78.0288 278.094L82.1888 281.374C84.4288 278.334 86.8288 276.654 89.6288 276.654C92.3488 276.654 94.5088 278.414 94.5088 281.054C94.5088 283.774 92.8288 285.694 88.8288 288.974L77.8688 298.254V303.214Z" fill="white"/>
<path fill-rule="evenodd" clip-rule="evenodd" d="M215.865 128.385H215.891C216.074 128.333 216.231 128.176 216.257 128.045L216.964 125.586L219.475 124.775C219.658 124.697 219.815 124.54 219.842 124.33C219.868 124.121 219.789 123.912 219.606 123.807L217.382 122.368L217.33 119.804C217.33 119.595 217.199 119.412 217.016 119.307C216.833 119.202 216.597 119.229 216.44 119.359L214.347 120.929L211.783 120.144C211.574 120.066 211.365 120.144 211.234 120.301C211.103 120.432 211.051 120.667 211.129 120.851L212.071 123.258L210.554 125.324C210.449 125.508 210.423 125.717 210.528 125.9C210.632 126.083 210.815 126.214 211.025 126.188L213.693 126.109L215.315 128.176C215.446 128.359 215.656 128.438 215.865 128.385Z" fill="white"/>
<path fill-rule="evenodd" clip-rule="evenodd" d="M9.20529 9.05727C9.3361 9.13576 9.49308 9.18808 9.65005 9.13576C9.70238 9.10959 9.72854 9.10959 9.78087 9.10959C9.96401 9.00494 10.0687 8.8218 10.0687 8.6125L10.0425 6.04855L12.214 4.53111C12.3971 4.42646 12.4756 4.21716 12.4495 4.00786C12.4233 3.79856 12.2663 3.64158 12.1094 3.56309L9.5454 2.80437L8.76052 0.371236C8.68203 0.188097 8.52506 0.0311206 8.31575 0.00495785C8.10645 -0.0212049 7.92331 0.0572833 7.76634 0.21426L6.22274 2.33344L3.55414 2.30728C3.34483 2.30728 3.13553 2.43809 3.05704 2.62123C2.95239 2.80437 3.00472 3.03984 3.10937 3.19681L4.67913 5.23751L3.84193 7.67064C3.76344 7.85378 3.81576 8.06308 3.94658 8.22006C4.10355 8.37704 4.31286 8.42936 4.52216 8.35087L7.05994 7.51366L9.20529 9.05727Z" fill="white"/>
<path fill-rule="evenodd" clip-rule="evenodd" d="M180.964 199.548C181.068 199.6 181.199 199.6 181.33 199.574C181.408 199.548 181.461 199.522 181.565 199.443C181.722 199.312 181.801 199.077 181.749 198.894L181.147 196.304L182.874 194.42C183.004 194.289 183.057 194.054 182.978 193.87C182.926 193.687 182.743 193.556 182.533 193.53L179.917 193.242L178.609 190.914C178.531 190.705 178.321 190.626 178.112 190.626C177.903 190.626 177.719 190.757 177.641 190.966L176.647 193.321L174.109 193.766C173.926 193.818 173.743 193.975 173.69 194.158C173.638 194.394 173.69 194.577 173.847 194.734L175.836 196.539L175.548 199.155C175.522 199.365 175.626 199.574 175.783 199.679C175.967 199.783 176.176 199.783 176.359 199.679L178.583 198.397L180.964 199.548Z" fill="white"/>
<path fill-rule="evenodd" clip-rule="evenodd" d="M355.417 87.1527C355.521 87.205 355.652 87.205 355.783 87.1789C355.861 87.1789 355.94 87.1265 355.94 87.0742C356.123 86.9434 356.202 86.7341 356.149 86.5248L355.521 83.9347L357.274 82.051C357.405 81.9201 357.457 81.7108 357.379 81.5015C357.3 81.3184 357.143 81.1876 356.934 81.1614L354.318 80.8475L353.01 78.519C352.905 78.3359 352.722 78.2312 352.513 78.2312C352.303 78.2312 352.12 78.362 352.042 78.5713L351.047 80.9521L348.51 81.3969C348.327 81.4231 348.143 81.58 348.091 81.7893C348.039 81.9725 348.091 82.2079 348.248 82.3387L350.236 84.144L349.975 86.7603C349.975 86.9696 350.053 87.1789 350.236 87.2835C350.42 87.3882 350.629 87.3882 350.812 87.2835L353.036 86.0015L355.417 87.1527Z" fill="white"/>
<path d="M477.832 65.9089L475.896 68.0281L476.55 70.8798L473.908 69.5978L471.448 71.0368L471.762 68.1327L469.565 66.1705L472.39 65.6473L473.489 63.0048L474.928 65.5949L477.832 65.9089Z" fill="white"/>
<path d="M473.777 69.074C473.908 69.0478 474.039 69.0478 474.144 69.1001L475.739 69.885L475.347 68.1321C475.295 67.949 475.347 67.7658 475.478 67.635L476.681 66.3269L474.876 66.1176C474.693 66.0914 474.562 65.9868 474.458 65.856L473.568 64.26L472.888 65.8821C472.809 66.0653 472.678 66.1961 472.469 66.1961L470.742 66.51L472.103 67.7397C472.234 67.8705 472.312 68.0275 472.286 68.2106L472.103 70.042L473.646 69.1525C473.699 69.1001 473.725 69.074 473.777 69.074ZM476.708 71.4025C476.577 71.4286 476.446 71.4286 476.341 71.3763L473.934 70.2251L471.71 71.5071C471.527 71.6118 471.318 71.6118 471.135 71.5071C470.978 71.4025 470.873 71.1931 470.899 70.9838L471.161 68.3676L469.173 66.5885C469.016 66.4315 468.963 66.2222 469.016 66.0391C469.068 65.856 469.251 65.6728 469.434 65.6467L471.972 65.2019L472.966 62.8211C473.045 62.6379 473.228 62.481 473.437 62.481C473.646 62.481 473.856 62.5594 473.934 62.7687L475.242 65.0972L477.859 65.4112C478.068 65.4373 478.251 65.5682 478.303 65.7513C478.382 65.9344 478.33 66.1699 478.199 66.3007L476.472 68.1844L477.074 70.7745C477.126 70.9838 477.048 71.1932 476.891 71.324C476.838 71.3501 476.76 71.4025 476.708 71.4025Z" fill="white"/>
<path fill-rule="evenodd" clip-rule="evenodd" d="M430.085 109.052C430.111 109.052 430.164 109.052 430.19 109.025C430.373 108.973 430.504 108.869 430.53 108.764L431.498 106.305L434.009 105.755C434.219 105.677 434.376 105.546 434.428 105.363C434.48 105.153 434.428 104.944 434.271 104.813L432.309 103.06L432.571 100.392C432.571 100.182 432.492 99.9732 432.309 99.8685C432.126 99.7639 431.916 99.7639 431.733 99.8685L429.562 101.255L427.233 100.156C427.024 100.078 426.815 100.104 426.658 100.235C426.501 100.366 426.422 100.575 426.475 100.784L427.076 103.401L425.35 105.389C425.219 105.52 425.193 105.755 425.271 105.938C425.35 106.121 425.533 106.252 425.742 106.278L428.28 106.488L429.562 108.79C429.666 108.973 429.876 109.078 430.085 109.052Z" fill="white"/>
<path fill-rule="evenodd" clip-rule="evenodd" d="M517.705 89.2198C517.835 89.3768 518.045 89.4553 518.254 89.403C518.463 89.3506 518.62 89.1675 518.62 88.9582L519.144 86.3681L521.498 85.3739C521.708 85.2954 521.812 85.1123 521.838 84.903C521.865 84.6937 521.76 84.5105 521.577 84.4059L519.327 83.0454L519.117 80.3768C519.117 80.1675 518.987 79.9844 518.777 79.9059C518.568 79.8274 518.359 79.8536 518.202 80.0105L516.318 81.7634L513.833 81.1094C513.623 81.0571 513.44 81.1355 513.283 81.2925C513.152 81.4495 513.126 81.685 513.205 81.8681L514.277 84.3274L512.943 86.6036C512.865 86.7867 512.865 86.996 512.969 87.1791C513.1 87.3623 513.283 87.4408 513.492 87.4408L516.03 87.1791L517.705 89.2198Z" fill="white"/>
<path fill-rule="evenodd" clip-rule="evenodd" d="M565.87 58.1647C566.001 58.2432 566.132 58.2432 566.262 58.217C566.278 58.2091 566.297 58.2012 566.316 58.1925C566.362 58.1726 566.417 58.1489 566.472 58.1124C566.655 57.9816 566.707 57.7723 566.681 57.563L566.106 54.9728L567.858 53.1153C567.989 52.9845 568.042 52.7752 567.963 52.5659C567.911 52.3827 567.728 52.2258 567.518 52.1996L564.928 51.8595L563.646 49.5048C563.542 49.3217 563.358 49.217 563.149 49.217C562.94 49.2432 562.757 49.374 562.678 49.5572L561.658 51.9118L559.12 52.3304C558.911 52.3566 558.728 52.4874 558.675 52.6967C558.623 52.8798 558.675 53.1153 558.832 53.2461L560.794 55.0775L560.481 57.6938C560.454 57.9031 560.533 58.1124 560.716 58.217C560.899 58.3217 561.108 58.3478 561.292 58.2432L563.515 56.9874L565.87 58.1647Z" fill="white"/>
<path fill-rule="evenodd" clip-rule="evenodd" d="M98.1062 200.281C98.2108 200.334 98.3416 200.334 98.4725 200.308C98.5509 200.308 98.6294 200.255 98.6556 200.177C98.8126 200.046 98.8911 199.837 98.8387 199.627L98.2108 197.037L99.9637 195.153C100.095 194.996 100.121 194.787 100.068 194.604C99.9899 194.421 99.8329 194.29 99.6236 194.264L97.0073 193.95L95.6992 191.621C95.6207 191.438 95.4114 191.36 95.2021 191.36C94.9928 191.386 94.8097 191.491 94.7312 191.7L93.737 194.081L91.1992 194.526C90.9899 194.578 90.8329 194.709 90.7806 194.918C90.7283 195.127 90.7806 195.31 90.9376 195.467L92.926 197.273L92.6643 199.889C92.6643 200.124 92.7428 200.308 92.926 200.412C93.1091 200.517 93.3184 200.517 93.5015 200.412L95.7254 199.13L98.1062 200.281Z" fill="white"/>
<path fill-rule="evenodd" clip-rule="evenodd" d="M55.1995 131.97C55.3041 132.022 55.4349 132.022 55.5657 131.996C55.6181 131.97 55.6966 131.944 55.775 131.918C55.932 131.787 56.0105 131.578 55.9582 131.368L55.3303 128.778L57.0832 126.842C57.214 126.711 57.2402 126.476 57.1878 126.293C57.1093 126.109 56.9524 125.979 56.7431 125.953L54.1268 125.639L52.8187 123.284C52.7402 123.101 52.5309 122.996 52.3216 123.022C52.1123 123.048 51.9291 123.179 51.8506 123.362L50.8564 125.743L48.3187 126.188C48.1355 126.24 47.9524 126.397 47.9001 126.58C47.8477 126.816 47.9001 126.999 48.057 127.156L50.0454 128.961L49.7838 131.578C49.7576 131.787 49.8361 131.97 50.0192 132.101C50.2024 132.205 50.4117 132.205 50.5948 132.101L52.8187 130.819L55.1995 131.97Z" fill="white"/>
<path fill-rule="evenodd" clip-rule="evenodd" d="M93.4755 61.6186C93.6063 61.6971 93.7633 61.7232 93.8941 61.6709L93.8942 61.6709C93.9465 61.6447 93.9988 61.6186 94.0249 61.5924C94.2081 61.4878 94.3127 61.2785 94.2866 61.0692L94.0773 58.5314L96.1441 56.8831C96.3011 56.7523 96.3796 56.543 96.3272 56.3337C96.2749 56.1244 96.1179 55.9674 95.9086 55.9151L93.3185 55.3657L92.3505 52.9849C92.2982 52.8017 92.115 52.6709 91.9057 52.6448C91.6964 52.6448 91.4871 52.7494 91.3825 52.9064L89.9959 55.1302L87.3273 55.3134C87.118 55.3395 86.9348 55.4704 86.8563 55.6535C86.7778 55.8628 86.804 56.0721 86.961 56.2291L88.6877 58.1651L88.0075 60.6244C87.929 60.8337 88.0075 61.043 88.1645 61.1738C88.3214 61.3308 88.5569 61.357 88.7401 61.2785L91.2255 60.2581L93.4755 61.6186Z" fill="white"/>
<path fill-rule="evenodd" clip-rule="evenodd" d="M66.4493 27.2146C66.7371 27.4762 67.1034 27.607 67.4958 27.5809C67.596 27.5809 67.6961 27.5655 67.8197 27.5466C67.8576 27.5408 67.8977 27.5347 67.9406 27.5285C68.4115 27.3454 68.7778 26.9006 68.8301 26.3774L69.5627 19.7844L75.6324 16.6187C76.1034 16.357 76.4173 15.86 76.3911 15.3105C76.365 14.7611 76.0249 14.264 75.5278 14.0547L69.2226 11.3338L67.9929 4.81928C67.8883 4.29602 67.522 3.87742 66.9987 3.72044C66.5016 3.58963 65.9522 3.72044 65.5859 4.11288L60.929 9.05764L54.0743 8.19427C53.5249 8.11578 53.0017 8.37741 52.7139 8.82218C52.4261 9.26694 52.3999 9.84252 52.6877 10.3135L56.0889 16.0431L53.1325 22.0082C52.897 22.4791 52.9493 23.0809 53.2633 23.4995C53.5772 23.9181 54.1267 24.1012 54.6499 24.0227L61.4522 22.6361L66.4493 27.2146Z" fill="white"/>
<path fill-rule="evenodd" clip-rule="evenodd" d="M174.606 58.7142C174.711 58.7665 174.842 58.7665 174.972 58.7404C175.034 58.7404 175.08 58.7076 175.135 58.668C175.15 58.6576 175.165 58.6467 175.182 58.6357C175.339 58.5049 175.417 58.2956 175.365 58.0863L174.763 55.4962L176.49 53.6125C176.621 53.4817 176.673 53.2724 176.594 53.0631C176.542 52.8799 176.359 52.7491 176.15 52.7229L173.533 52.409L172.225 50.0805C172.147 49.8974 171.937 49.7927 171.728 49.7927C171.519 49.8189 171.336 49.9497 171.257 50.1328L170.263 52.5136L167.725 52.9584C167.542 53.0107 167.359 53.1416 167.307 53.3509C167.254 53.534 167.307 53.7433 167.464 53.9003L169.452 55.7055L169.19 58.3218C169.164 58.5311 169.269 58.7404 169.426 58.845C169.609 58.9497 169.818 58.9497 170.001 58.845L172.225 57.5631L174.606 58.7142Z" fill="white"/>
<path fill-rule="evenodd" clip-rule="evenodd" d="M304.53 220.373C304.635 220.425 304.766 220.425 304.896 220.399C304.975 220.399 305.053 220.347 305.106 220.268C305.263 220.138 305.341 219.928 305.289 219.719L304.687 217.129L306.414 215.245C306.545 215.088 306.597 214.879 306.519 214.696C306.466 214.513 306.283 214.382 306.074 214.356L303.458 214.042L302.149 211.713C302.071 211.53 301.862 211.425 301.652 211.451C301.443 211.451 301.26 211.582 301.181 211.792L300.187 214.172L297.649 214.617C297.466 214.669 297.283 214.8 297.231 215.01C297.178 215.219 297.231 215.428 297.388 215.559L299.376 217.364L299.115 219.981C299.088 220.216 299.193 220.399 299.35 220.504C299.533 220.608 299.742 220.608 299.926 220.504L302.149 219.222L304.53 220.373Z" fill="white"/>
<path d="M302.649 207.975C302.629 207.975 302.61 207.998 302.59 207.998C302.338 208.021 302.124 207.836 302.085 207.559L296.005 154.557C295.967 154.279 296.141 154.025 296.394 154.002C296.646 153.979 296.86 154.164 296.899 154.441L302.998 207.466C303.018 207.698 302.862 207.929 302.649 207.975Z" fill="white"/>
<path d="M245.716 244.836C245.481 244.914 245.193 244.783 245.088 244.548C244.958 244.26 245.088 243.946 245.35 243.815L294.745 220.923C295.033 220.792 295.347 220.923 295.478 221.185C295.609 221.446 295.478 221.786 295.216 221.917L245.795 244.783C245.769 244.809 245.742 244.809 245.716 244.836Z" fill="white"/>
<path d="M244.801 245.569C244.539 245.647 244.252 245.516 244.147 245.255C244.016 244.967 244.147 244.627 244.409 244.47L295.661 220.138C295.949 220.008 296.289 220.138 296.42 220.426C296.551 220.714 296.42 221.054 296.132 221.185L244.879 245.516C244.853 245.542 244.827 245.542 244.801 245.569Z" fill="white"/>
<path fill-rule="evenodd" clip-rule="evenodd" d="M295.699 220.222C295.699 220.222 295.7 220.222 295.699 220.222L244.452 244.551C244.228 244.688 244.122 244.978 244.231 245.217L244.232 245.221C244.317 245.431 244.544 245.54 244.757 245.485C244.773 245.473 244.788 245.466 244.798 245.461L244.799 245.46C244.812 245.454 244.813 245.453 244.814 245.451L244.826 245.44L296.093 221.102L296.094 221.101C296.337 220.991 296.446 220.705 296.336 220.464C296.226 220.222 295.94 220.113 295.699 220.222ZM295.623 220.055C295.958 219.903 296.352 220.055 296.504 220.388C296.656 220.723 296.504 221.117 296.171 221.268C296.171 221.269 296.171 221.268 296.171 221.268L244.931 245.594C244.912 245.61 244.894 245.619 244.883 245.624L244.881 245.625C244.869 245.631 244.868 245.632 244.866 245.634L244.85 245.65L244.827 245.657C244.522 245.748 244.186 245.597 244.062 245.291C243.911 244.956 244.065 244.569 244.361 244.391L244.369 244.386L295.623 220.055Z" fill="white"/>
<path d="M220.836 241.487C220.652 241.539 220.443 241.487 220.312 241.33L184.391 203.786C184.182 203.551 184.182 203.211 184.417 203.028C184.626 202.818 184.993 202.818 185.176 203.028L221.097 240.571C221.307 240.807 221.307 241.147 221.071 241.356C221.019 241.408 220.94 241.461 220.836 241.487Z" fill="white"/>
<path d="M221.568 242.428C221.359 242.48 221.15 242.428 221.019 242.271L183.658 202.87C183.449 202.635 183.449 202.268 183.685 202.059C183.92 201.824 184.286 201.85 184.496 202.059L221.856 241.46C222.065 241.696 222.065 242.062 221.83 242.271C221.751 242.35 221.673 242.402 221.568 242.428Z" fill="white"/>
<path fill-rule="evenodd" clip-rule="evenodd" d="M184.43 202.123C184.253 201.948 183.946 201.928 183.75 202.124L183.746 202.128C183.553 202.299 183.547 202.606 183.726 202.808C183.727 202.808 183.727 202.809 183.727 202.809L221.09 242.212C221.194 242.337 221.364 242.384 221.546 242.339C221.63 242.318 221.695 242.276 221.765 242.206L221.769 242.202C221.961 242.031 221.967 241.725 221.788 241.522C221.788 241.522 221.788 241.522 221.787 241.521L184.431 202.124C184.43 202.124 184.43 202.123 184.43 202.123ZM183.621 201.992C183.896 201.72 184.319 201.752 184.561 201.994L184.562 201.996L221.923 241.397L221.925 241.399C222.163 241.667 222.169 242.091 221.893 242.338C221.807 242.424 221.715 242.486 221.59 242.517C221.355 242.576 221.108 242.52 220.95 242.332L183.59 202.931C183.351 202.663 183.345 202.239 183.621 201.992Z" fill="white"/>
<path d="M276.61 135.982C276.543 136.006 276.475 136.006 276.407 135.982L223.368 124.98C223.12 124.932 222.963 124.671 223.008 124.41C223.053 124.15 223.3 123.96 223.571 124.007L276.61 135.01C276.858 135.057 277.038 135.318 276.993 135.579C276.926 135.816 276.79 135.935 276.61 135.982Z" fill="white"/>
<path d="M523.486 79.4865C523.251 79.5388 523.016 79.4603 522.885 79.251C522.728 78.9894 522.806 78.6493 523.068 78.4923L556.635 56.9865C556.896 56.8296 557.236 56.9081 557.393 57.1697C557.55 57.4313 557.472 57.7714 557.21 57.9284L523.643 79.4342C523.565 79.4603 523.513 79.4865 523.486 79.4865Z" fill="white"/>
<path d="M522.571 80.2461C522.335 80.2984 522.074 80.2199 521.943 80.0106C521.786 79.7228 521.838 79.3827 522.126 79.1996L557.524 56.2549C557.786 56.0979 558.152 56.1764 558.335 56.438C558.492 56.6996 558.44 57.0659 558.152 57.249L522.754 80.1938C522.675 80.2199 522.623 80.2199 522.571 80.2461Z" fill="white"/>
<path fill-rule="evenodd" clip-rule="evenodd" d="M557.573 56.333C557.572 56.3332 557.572 56.3335 557.571 56.3337L522.176 79.2768C521.937 79.429 521.886 79.7118 522.022 79.9641C522.127 80.1291 522.339 80.1997 522.541 80.1584C522.574 80.1435 522.606 80.1361 522.633 80.1301C522.636 80.1293 522.64 80.1284 522.644 80.1276C522.667 80.1225 522.689 80.1177 522.714 80.1099L558.102 57.1718C558.342 57.0192 558.39 56.7119 558.258 56.4881C558.101 56.2674 557.791 56.2031 557.573 56.333ZM557.477 56.176C557.781 55.9934 558.201 56.0853 558.411 56.3852L558.414 56.3906C558.594 56.6897 558.536 57.1133 558.202 57.3264C558.202 57.3265 558.202 57.3263 558.202 57.3264L522.794 80.2773L522.783 80.281C522.744 80.2942 522.709 80.3016 522.683 80.3074C522.679 80.3082 522.676 80.309 522.672 80.3097C522.644 80.3161 522.627 80.3208 522.612 80.3284L522.602 80.3334L522.591 80.3359C522.326 80.3947 522.021 80.3088 521.865 80.0594L521.862 80.0548C521.686 79.7323 521.741 79.3358 522.076 79.1222C522.076 79.1221 522.076 79.1223 522.076 79.1222L557.477 56.176Z" fill="white"/>
<path d="M509.332 80.9257C509.228 80.9518 509.123 80.9518 508.992 80.8995L487.46 71.978C487.172 71.8734 487.042 71.5332 487.146 71.2716C487.251 70.9838 487.591 70.853 487.853 70.9577L509.385 79.8792C509.672 79.9838 509.803 80.2978 509.699 80.5856C509.62 80.7687 509.489 80.8733 509.332 80.9257Z" fill="white"/>
<path d="M510.039 81.8677C509.934 81.8939 509.803 81.8939 509.672 81.8416L486.702 71.2718C486.388 71.141 486.257 70.7486 486.388 70.4085C486.518 70.0422 486.858 69.8852 487.172 70.016L510.143 80.5858C510.457 80.7166 510.588 81.109 510.457 81.4491C510.379 81.6584 510.222 81.7893 510.039 81.8677Z" fill="white"/>
<path fill-rule="evenodd" clip-rule="evenodd" d="M487.136 70.1003C486.877 69.9934 486.589 70.1169 486.474 70.4394L486.473 70.4415L486.473 70.4415C486.356 70.7456 486.479 71.0793 486.737 71.1869L486.74 71.1882L486.74 71.1882L509.709 81.757C509.816 81.7994 509.923 81.8003 510.009 81.7802C510.172 81.7088 510.304 81.5946 510.371 81.4168L510.371 81.4161C510.488 81.1119 510.366 80.7782 510.108 80.6707L510.105 80.6694L510.105 80.6693L487.136 70.1003ZM486.301 70.3764C486.448 69.9677 486.839 69.7776 487.208 69.9311L487.211 69.9324L487.211 69.9324L510.18 80.5015C510.549 80.6561 510.687 81.1063 510.543 81.4818C510.454 81.7198 510.275 81.8665 510.075 81.9523L510.068 81.9552L510.061 81.957C509.94 81.9873 509.789 81.9872 509.638 81.927L509.634 81.9252L509.634 81.9251L486.665 71.3561C486.296 71.2015 486.158 70.7518 486.301 70.3764Z" fill="white"/>
<path d="M436.73 99.9201C436.521 99.9724 436.338 99.9201 436.181 99.737C435.998 99.5277 435.998 99.1614 436.233 98.9783L463.547 74.2545C463.783 74.0452 464.123 74.0713 464.306 74.3068C464.515 74.5161 464.489 74.8824 464.254 75.0655L436.94 99.7893C436.887 99.8678 436.809 99.9201 436.73 99.9201Z" fill="white"/>
<path d="M435.815 100.679C435.605 100.731 435.396 100.679 435.239 100.496C435.03 100.26 435.056 99.8941 435.292 99.6848L464.411 73.522C464.646 73.3127 465.012 73.3389 465.222 73.5744C465.431 73.8098 465.431 74.1761 465.196 74.3854L436.05 100.548C435.998 100.6 435.893 100.653 435.815 100.679Z" fill="white"/>
<path fill-rule="evenodd" clip-rule="evenodd" d="M464.472 73.5907C464.472 73.5907 464.472 73.5908 464.472 73.5908L435.353 99.7532L435.353 99.7535C435.154 99.93 435.133 100.238 435.308 100.435L435.309 100.436L435.309 100.436C435.441 100.59 435.612 100.634 435.789 100.591C435.861 100.566 435.948 100.52 435.985 100.483L435.989 100.48L435.989 100.48L465.134 74.3169L465.134 74.3166C465.327 74.1452 465.333 73.8378 465.153 73.6355C464.977 73.437 464.668 73.4161 464.472 73.5907ZM464.35 73.4533C464.624 73.2093 465.048 73.2408 465.29 73.5132C465.529 73.7818 465.535 74.2067 465.257 74.4539C465.257 74.454 465.257 74.4541 465.257 74.4541L436.113 100.615C436.046 100.681 435.927 100.738 435.844 100.766L435.837 100.768L435.837 100.768C435.597 100.828 435.351 100.767 435.17 100.556C434.927 100.282 434.958 99.8582 435.23 99.6162C435.23 99.6161 435.23 99.6161 435.23 99.616L464.349 73.4536L464.35 73.4533Z" fill="white"/>
<path d="M421.138 102.746C421.059 102.772 420.955 102.772 420.85 102.746L361.853 86.3416C361.565 86.2631 361.382 85.9492 361.487 85.6614C361.565 85.3736 361.879 85.1905 362.167 85.269L421.164 101.673C421.452 101.751 421.635 102.065 421.53 102.353C421.478 102.563 421.321 102.693 421.138 102.746Z" fill="white"/>
<path d="M421.87 103.687C421.766 103.714 421.661 103.714 421.583 103.687L361.12 85.5828C360.807 85.5043 360.65 85.1381 360.754 84.798C360.859 84.4578 361.173 84.2485 361.461 84.327L421.923 102.458C422.21 102.536 422.394 102.903 422.289 103.243C422.21 103.452 422.054 103.635 421.87 103.687Z" fill="white"/>
<path fill-rule="evenodd" clip-rule="evenodd" d="M361.435 84.4155C361.209 84.3545 360.936 84.5183 360.842 84.825C360.748 85.1301 360.894 85.4315 361.143 85.4936L361.147 85.4946L421.612 103.6C421.669 103.619 421.754 103.621 421.847 103.599C421.99 103.557 422.129 103.405 422.202 103.213C422.292 102.913 422.126 102.609 421.898 102.547L421.896 102.546L361.436 84.4158C361.436 84.4157 361.436 84.4156 361.435 84.4155ZM360.666 84.7709C360.781 84.3978 361.136 84.1431 361.485 84.2383L361.487 84.2389L421.947 102.369C421.947 102.369 421.948 102.369 421.948 102.369C422.295 102.465 422.494 102.89 422.377 103.27L422.375 103.275C422.291 103.5 422.117 103.713 421.896 103.776L421.893 103.777C421.777 103.806 421.654 103.808 421.555 103.775C421.554 103.775 421.554 103.775 421.553 103.775L361.096 85.6715C360.718 85.5756 360.551 85.1453 360.666 84.7709Z" fill="white"/>
<path d="M301.677 132.549C301.494 132.602 301.285 132.549 301.154 132.392C300.945 132.183 300.945 131.843 301.18 131.634L346.572 87.157C346.782 86.9477 347.122 86.9477 347.331 87.157C347.54 87.3663 347.54 87.7064 347.331 87.9157L301.939 132.392C301.834 132.471 301.756 132.523 301.677 132.549Z" fill="white"/>
<path d="M48.1092 12.589C48.0308 12.6152 47.9784 12.6152 47.8999 12.6152L14.6471 7.77505C14.3332 7.72273 14.15 7.4611 14.1762 7.14714C14.2285 6.85935 14.4901 6.65005 14.8041 6.70238L48.0569 11.5163C48.3447 11.5686 48.554 11.8564 48.5279 12.1442C48.4755 12.3535 48.3186 12.5367 48.1092 12.589Z" fill="white"/>
<path d="M48.8419 13.5047C48.7634 13.557 48.6849 13.557 48.6064 13.557L13.81 7.85354C13.496 7.77505 13.3129 7.27796 13.3652 6.70238C13.4437 6.1268 13.7576 5.70819 14.0716 5.76052L48.8942 11.4378C49.2082 11.4902 49.3913 12.0134 49.3128 12.589C49.2605 13.0338 49.0512 13.3739 48.8419 13.5047Z" fill="white"/>
<path fill-rule="evenodd" clip-rule="evenodd" d="M13.4566 6.71275C13.4318 6.98881 13.4639 7.24169 13.5362 7.43161C13.6091 7.62296 13.7153 7.73337 13.8289 7.7634L48.6139 13.465C48.6899 13.4649 48.7399 13.4621 48.7909 13.4281L48.7931 13.4266C48.9714 13.3152 49.1712 13.0051 49.2215 12.5782L49.2217 12.5766C49.2593 12.3008 49.2335 12.0413 49.1641 11.8483C49.0931 11.6508 48.9869 11.5466 48.8793 11.5286C48.8792 11.5286 48.8793 11.5286 48.8793 11.5286L14.0568 5.8513C13.9489 5.83332 13.8219 5.89362 13.7037 6.05117C13.5877 6.20579 13.4944 6.43791 13.4566 6.71275ZM14.0866 5.66974C13.8806 5.63549 13.6934 5.75826 13.5565 5.94077C13.4177 6.12589 13.3149 6.39009 13.2741 6.68994L13.2736 6.69404C13.2464 6.99276 13.2798 7.27543 13.3643 7.49711C13.4476 7.71591 13.5886 7.893 13.7877 7.94277L48.5989 13.649L48.6121 13.649C48.688 13.649 48.7903 13.6491 48.8918 13.582M14.0866 5.66974C14.0866 5.66975 14.0865 5.66973 14.0866 5.66974V5.66974Z" fill="white"/>
<path d="M86.8824 50.5776C86.647 50.6299 86.4115 50.5514 86.2807 50.3421L72.179 28.4439C71.9958 28.1823 72.1005 27.8422 72.3359 27.6852C72.5976 27.5282 72.9377 27.6067 73.0947 27.8422L87.1964 49.7404C87.3533 50.002 87.2749 50.3421 87.0394 50.4991C86.9871 50.5253 86.9347 50.5514 86.8824 50.5776Z" fill="white"/>
<path d="M87.5889 51.5189C87.3273 51.5712 87.0918 51.4666 86.9348 51.2573L71.4465 27.5538C71.2633 27.2661 71.3418 26.8998 71.6296 26.7428C71.9174 26.5597 72.2837 26.6382 72.4668 26.9259L87.9552 50.6294C88.1383 50.9172 88.0598 51.2573 87.772 51.4404C87.7197 51.4666 87.6412 51.4928 87.5889 51.5189Z" fill="white"/>
<path fill-rule="evenodd" clip-rule="evenodd" d="M72.3892 26.9753C72.2337 26.7311 71.9246 26.6641 71.679 26.8204L71.6737 26.8238C71.4381 26.9523 71.3663 27.256 71.5238 27.504C71.5239 27.5042 71.5237 27.5039 71.5238 27.504L87.0101 51.2044C87.1458 51.3838 87.3418 51.4703 87.5597 51.4308C87.5866 51.4181 87.6171 51.4059 87.6441 51.3951L87.6463 51.3943C87.678 51.3816 87.7053 51.3706 87.7268 51.3602C87.9688 51.2034 88.032 50.9219 87.8778 50.6792C87.8777 50.6791 87.8779 50.6793 87.8778 50.6792L72.3892 26.9753ZM72.5441 26.8761C72.3337 26.546 71.9122 26.4558 71.5828 26.6635C71.2453 26.8497 71.161 27.2766 71.3688 27.6032L86.8578 51.3076L86.8612 51.3125C87.0371 51.5471 87.307 51.6691 87.6069 51.6091L87.619 51.6067L87.63 51.6012C87.652 51.5902 87.6808 51.5786 87.7146 51.5651L87.7167 51.5643C87.7478 51.5518 87.7835 51.5375 87.8131 51.5227L87.8214 51.518C88.1513 51.3081 88.2436 50.9114 88.0328 50.58L72.5441 26.8761C72.544 26.8759 72.5442 26.8762 72.5441 26.8761Z" fill="white"/>
<path d="M163.749 54.8414C163.696 54.8414 163.67 54.8414 163.618 54.8676L102.031 56.6205C101.717 56.6205 101.481 56.385 101.455 56.0972C101.455 55.7833 101.691 55.5478 101.979 55.5478L163.566 53.7949C163.853 53.7949 164.115 54.0304 164.115 54.3443C164.167 54.5536 163.984 54.7891 163.749 54.8414Z" fill="white"/>
<path d="M164.664 54.2663C164.612 54.2663 164.586 54.2924 164.534 54.2924L101.115 57.3273C100.801 57.3535 100.54 57.0657 100.54 56.7256C100.54 56.3593 100.775 56.0715 101.089 56.0715L164.534 53.0104C164.848 52.9843 165.109 53.2721 165.109 53.6383C165.109 53.9261 164.9 54.1878 164.664 54.2663Z" fill="white"/>
<path fill-rule="evenodd" clip-rule="evenodd" d="M165.017 53.6384C165.017 53.3097 164.787 53.0817 164.541 53.1021L164.538 53.1023L101.089 56.1636C100.841 56.1636 100.632 56.3937 100.632 56.7256C100.632 57.0253 100.86 57.2563 101.108 57.2356L101.111 57.2354L164.534 54.2003C164.543 54.2003 164.55 54.1986 164.57 54.1921L164.572 54.1914C164.589 54.1858 164.614 54.1773 164.647 54.1749C164.842 54.1037 165.017 53.8803 165.017 53.6384ZM164.528 52.9186C164.909 52.8879 165.201 53.2351 165.201 53.6384C165.201 53.9672 164.965 54.263 164.694 54.3535L164.679 54.3583H164.664C164.655 54.3583 164.648 54.3601 164.628 54.3666L164.626 54.3673C164.607 54.3738 164.576 54.384 164.536 54.3844L101.123 57.419C101.122 57.419 101.122 57.4191 101.121 57.4191C100.742 57.4496 100.448 57.1055 100.448 56.7256C100.448 56.3257 100.708 55.9809 101.087 55.9795L164.526 52.9188C164.527 52.9187 164.527 52.9187 164.528 52.9186Z" fill="white"/>
<path d="M211.077 117.397C210.842 117.449 210.606 117.371 210.475 117.161L177.066 63.1876C176.909 62.926 176.987 62.5859 177.223 62.4289C177.484 62.272 177.824 62.3504 177.981 62.6121L211.391 116.56C211.548 116.821 211.47 117.161 211.208 117.318C211.182 117.345 211.129 117.371 211.077 117.397Z" fill="white"/>
<path d="M211.81 118.338C211.574 118.391 211.313 118.286 211.182 118.077L176.333 62.2717C176.176 62.01 176.254 61.6699 176.516 61.4868C176.778 61.3298 177.144 61.4083 177.301 61.6699L212.15 117.475C212.307 117.737 212.228 118.077 211.967 118.26C211.914 118.312 211.862 118.338 211.81 118.338Z" fill="white"/>
<path fill-rule="evenodd" clip-rule="evenodd" d="M176.566 61.564C176.344 61.7215 176.282 62.007 176.411 62.2236C176.412 62.2239 176.411 62.2234 176.411 62.2236L211.26 118.028C211.26 118.028 211.26 118.028 211.26 118.028C211.369 118.203 211.591 118.293 211.79 118.249L211.8 118.246H211.81C211.829 118.246 211.859 118.237 211.902 118.195L211.907 118.189L211.914 118.185C212.138 118.027 212.201 117.741 212.071 117.523C212.071 117.523 212.071 117.523 212.071 117.523L177.222 61.7172C177.094 61.5032 176.787 61.4335 176.566 61.564ZM177.379 61.6218C177.194 61.3141 176.771 61.2268 176.469 61.4079L176.463 61.4114C176.165 61.6204 176.071 62.0133 176.254 62.319L211.104 118.125C211.254 118.366 211.55 118.486 211.82 118.43C211.899 118.427 211.967 118.387 212.026 118.331C212.319 118.121 212.411 117.731 212.229 117.428L177.379 61.6218C177.379 61.6216 177.38 61.6221 177.379 61.6218Z" fill="white"/>
<path d="M180.938 187.094C180.807 187.12 180.676 187.12 180.545 187.042C180.284 186.885 180.179 186.571 180.31 186.309L210.423 130.87C210.58 130.609 210.894 130.504 211.156 130.661C211.417 130.818 211.522 131.132 211.391 131.393L181.278 186.858C181.199 186.963 181.068 187.068 180.938 187.094Z" fill="white"/>
<path d="M180.022 187.853C179.891 187.88 179.734 187.88 179.603 187.801C179.315 187.644 179.211 187.304 179.368 187.042L211.312 130.138C211.469 129.851 211.809 129.746 212.097 129.903C212.385 130.06 212.49 130.4 212.333 130.662L180.414 187.566C180.336 187.696 180.179 187.801 180.022 187.853Z" fill="white"/>
<path fill-rule="evenodd" clip-rule="evenodd" d="M212.053 129.984C211.811 129.852 211.526 129.938 211.393 130.183L211.393 130.184L179.448 187.087L179.447 187.09C179.32 187.301 179.4 187.585 179.647 187.72L179.651 187.722C179.752 187.783 179.88 187.787 179.998 187.764C180.139 187.716 180.271 187.624 180.335 187.519C180.335 187.519 180.335 187.519 180.335 187.518L212.252 130.617L212.254 130.614C212.381 130.403 212.301 130.119 212.053 129.984ZM211.232 130.094C211.413 129.763 211.808 129.64 212.141 129.822C212.469 130.001 212.598 130.396 212.412 130.708C212.412 130.708 212.412 130.709 212.412 130.709L180.493 187.613C180.4 187.768 180.221 187.884 180.051 187.941L180.04 187.944C179.899 187.973 179.716 187.975 179.557 187.881C179.231 187.702 179.102 187.307 179.288 186.996C179.288 186.996 179.289 186.995 179.289 186.995L211.232 130.094C211.232 130.094 211.232 130.094 211.232 130.094Z" fill="white"/>
<path d="M169.923 195.257C169.871 195.257 169.844 195.283 169.818 195.257L104.307 197.638C103.993 197.638 103.757 197.403 103.731 197.115C103.705 196.827 103.967 196.565 104.254 196.539L169.766 194.158C170.08 194.158 170.315 194.394 170.342 194.708C170.342 194.969 170.158 195.179 169.923 195.257Z" fill="white"/>
<path d="M170.839 194.655C170.786 194.681 170.76 194.681 170.708 194.681L103.339 198.396C103.025 198.423 102.763 198.135 102.763 197.795C102.763 197.454 102.999 197.141 103.313 197.141L170.682 193.452C170.996 193.425 171.231 193.713 171.257 194.053C171.283 194.341 171.1 194.577 170.839 194.655Z" fill="white"/>
<path fill-rule="evenodd" clip-rule="evenodd" d="M171.165 194.06C171.141 193.748 170.932 193.523 170.689 193.543L170.687 193.543L103.313 197.233C103.066 197.233 102.855 197.486 102.855 197.795C102.855 198.094 103.083 198.325 103.331 198.305L103.334 198.304L170.708 194.589C170.736 194.589 170.747 194.589 170.758 194.587C170.766 194.586 170.777 194.583 170.797 194.573L170.805 194.569L170.812 194.567C171.036 194.5 171.187 194.301 171.166 194.062L171.165 194.06ZM171.349 194.046C171.32 193.679 171.06 193.329 170.675 193.36C170.675 193.36 170.674 193.36 170.674 193.36L103.31 197.049C102.93 197.05 102.671 197.424 102.671 197.795C102.671 198.175 102.966 198.519 103.345 198.488C103.345 198.488 103.346 198.488 103.346 198.488L170.71 194.773C170.734 194.773 170.761 194.773 170.788 194.769C170.817 194.764 170.843 194.755 170.873 194.741C171.168 194.649 171.379 194.378 171.349 194.046Z" fill="white"/>
<path d="M90.3884 189.632C90.1529 189.684 89.9175 189.606 89.7866 189.397L56.2983 136.182C56.1414 135.946 56.2199 135.58 56.4553 135.423C56.7169 135.266 57.0571 135.344 57.214 135.606L90.7023 188.821C90.8593 189.083 90.7808 189.423 90.5192 189.58C90.5192 189.606 90.4407 189.632 90.3884 189.632Z" fill="white"/>
<path d="M91.1211 190.574C90.8856 190.626 90.624 190.548 90.4931 190.312L55.5659 135.24C55.4089 134.978 55.4874 134.638 55.749 134.455C56.0107 134.298 56.3769 134.376 56.5339 134.638L91.4612 189.711C91.6182 189.972 91.5397 190.312 91.278 190.495C91.2519 190.548 91.1734 190.574 91.1211 190.574Z" fill="white"/>
<path fill-rule="evenodd" clip-rule="evenodd" d="M55.7992 134.532C55.577 134.689 55.515 134.975 55.6443 135.191C55.6445 135.192 55.6446 135.192 55.6448 135.192L90.5738 190.267C90.6807 190.46 90.8966 190.53 91.1012 190.484L91.111 190.482H91.1211C91.1339 190.482 91.1539 190.478 91.1721 190.47C91.1913 190.462 91.196 190.454 91.1958 190.454L91.2062 190.433L91.2253 190.42C91.4497 190.263 91.5127 189.976 91.3829 189.759C91.3827 189.758 91.3825 189.758 91.3823 189.758L56.4551 134.685C56.3267 134.471 56.0203 134.401 55.7992 134.532ZM56.6122 134.59C56.4269 134.282 56.0034 134.195 55.7018 134.376L55.6963 134.379C55.3977 134.588 55.3036 134.981 55.4871 135.287L90.4141 190.359C90.5675 190.633 90.8685 190.721 91.132 190.666C91.1688 190.664 91.2097 190.655 91.2468 190.638C91.2803 190.623 91.3197 190.599 91.347 190.559C91.6328 190.347 91.7202 189.963 91.5401 189.663L56.6128 134.591C56.6126 134.59 56.6124 134.59 56.6122 134.59Z" fill="white"/>
<path d="M56.5338 121.216C56.403 121.242 56.2722 121.242 56.1414 121.164C55.8798 121.007 55.7751 120.693 55.9059 120.431L85.6006 64.9398C85.7315 64.6782 86.0716 64.5735 86.3332 64.7305C86.5948 64.8875 86.6995 65.2014 86.5687 65.4631L56.8739 120.928C56.7955 121.085 56.6646 121.164 56.5338 121.216Z" fill="white"/>
<path d="M55.618 121.949C55.4872 121.975 55.3302 121.975 55.1994 121.897C54.9116 121.74 54.807 121.399 54.964 121.138L86.4901 64.1815C86.647 63.8938 86.9872 63.8153 87.2749 63.9461C87.5627 64.1031 87.6674 64.4432 87.5104 64.7048L56.0105 121.687C55.932 121.818 55.775 121.923 55.618 121.949Z" fill="white"/>
<path fill-rule="evenodd" clip-rule="evenodd" d="M87.2338 64.0284C86.9828 63.916 86.7003 63.9883 86.5708 64.2256L55.0429 121.185C54.916 121.397 54.9961 121.681 55.2435 121.816L55.2468 121.818C55.3499 121.879 55.4801 121.883 55.6 121.859L55.6029 121.858C55.7341 121.836 55.8666 121.747 55.9308 121.641C55.9311 121.641 55.9313 121.64 55.9316 121.64L87.4315 64.6574C87.558 64.4466 87.4789 64.164 87.2338 64.0284ZM86.4094 64.1373C86.5935 63.8001 86.9893 63.7152 87.313 63.8623L87.3191 63.8651C87.6469 64.0438 87.7759 64.4393 87.5902 64.7507C87.5899 64.7512 87.5896 64.7516 87.5893 64.7521L56.0894 121.735C55.9967 121.889 55.8164 122.009 55.6347 122.039C55.4936 122.067 55.3115 122.07 55.1538 121.976C54.8273 121.797 54.6988 121.403 54.8843 121.092C54.8845 121.091 54.8848 121.091 54.8851 121.09L86.4094 64.1373C86.4094 64.1373 86.4095 64.1372 86.4094 64.1373Z" fill="white"/>
<path d="M527.123 111.903C526.861 111.955 526.574 111.85 526.469 111.589L518.96 92.7515C518.856 92.4637 518.986 92.1497 519.274 92.0451C519.562 91.9404 519.876 92.0712 519.981 92.359L527.489 111.17C527.594 111.458 527.463 111.772 527.175 111.876C527.149 111.903 527.123 111.903 527.123 111.903Z" fill="white"/>
<path d="M527.803 112.844C527.489 112.923 527.175 112.766 527.044 112.478L518.201 91.8618C518.071 91.5479 518.228 91.2078 518.542 91.1031C518.856 90.9985 519.248 91.1293 519.379 91.4432L528.222 112.033C528.353 112.347 528.196 112.687 527.856 112.818C527.856 112.818 527.829 112.844 527.803 112.844Z" fill="white"/>
<path fill-rule="evenodd" clip-rule="evenodd" d="M519.294 91.4786C519.185 91.2183 518.849 91.0976 518.571 91.1904C518.308 91.2779 518.176 91.5611 518.286 91.826C518.286 91.8261 518.286 91.8259 518.286 91.826L527.128 112.44C527.128 112.44 527.128 112.44 527.128 112.44C527.241 112.687 527.511 112.823 527.781 112.755L527.791 112.753L527.804 112.739L527.822 112.732C528.119 112.618 528.246 112.33 528.137 112.069C528.137 112.069 528.137 112.069 528.137 112.069L519.294 91.4786ZM519.463 91.4074C519.31 91.0401 518.862 90.8993 518.512 91.0158C518.147 91.1375 517.965 91.5343 518.117 91.8972L526.96 112.514L526.961 112.516C527.108 112.841 527.462 113.02 527.817 112.936C527.851 112.932 527.877 112.916 527.89 112.908C527.895 112.904 527.9 112.901 527.904 112.898C528.277 112.746 528.457 112.36 528.307 111.998L519.463 91.4074C519.463 91.4072 519.464 91.4075 519.463 91.4074Z" fill="white"/>
<path fill-rule="evenodd" clip-rule="evenodd" d="M241.269 254.726C241.661 254.778 242.054 254.673 242.341 254.464C242.446 254.359 242.551 254.255 242.655 254.124C242.969 253.705 243.022 253.13 242.76 252.659L239.647 246.798L242.865 240.755C243.126 240.284 243.074 239.708 242.76 239.263C242.42 238.819 241.897 238.609 241.347 238.714L234.623 240.022L229.94 235.365C229.548 234.999 228.998 234.868 228.501 235.025C227.978 235.208 227.612 235.627 227.533 236.15L226.487 242.848L220.339 246.013C219.842 246.249 219.554 246.772 219.554 247.295C219.554 247.845 219.894 248.316 220.365 248.551L226.408 251.351L227.324 257.944C227.376 258.493 227.769 258.938 228.266 259.095C228.789 259.252 229.365 259.095 229.731 258.728L234.545 253.758L241.269 254.726Z" fill="white"/>
<path fill-rule="evenodd" clip-rule="evenodd" d="M289.867 148.499C290.12 148.803 290.48 148.993 290.833 149.034C290.981 149.028 291.129 149.022 291.294 148.997C291.809 148.903 292.238 148.515 292.365 147.992L294.053 141.574L300.517 139.316C301.029 139.148 301.381 138.689 301.452 138.15C301.504 137.592 301.261 137.083 300.786 136.788L294.959 133.188L294.677 126.589C294.637 126.054 294.322 125.585 293.85 125.363C293.342 125.143 292.789 125.202 292.376 125.533L287.064 129.744L280.399 127.9C279.874 127.736 279.308 127.925 278.953 128.309C278.58 128.713 278.51 129.29 278.697 129.782L281.238 135.939L277.439 141.404C277.104 141.843 277.091 142.436 277.35 142.889C277.628 143.359 278.157 143.634 278.675 143.613L285.584 143.227L289.867 148.499Z" fill="white"/>
<path fill-rule="evenodd" clip-rule="evenodd" d="M481.481 72.9002C481.874 72.9386 482.259 72.8196 482.536 72.5992C482.635 72.4904 482.734 72.3816 482.832 72.2466C483.125 71.8152 483.151 71.2357 482.87 70.7725L479.509 65.0025L482.434 58.8218C482.672 58.3398 482.594 57.7641 482.262 57.3289C481.904 56.8948 481.374 56.7035 480.833 56.8282L474.209 58.3819L469.342 53.8759C468.936 53.5224 468.384 53.4108 467.897 53.5862C467.385 53.7887 467.04 54.2219 466.986 54.7499L466.249 61.5091L460.282 64.9064C459.798 65.1606 459.536 65.696 459.56 66.2211C459.585 66.7725 459.944 67.233 460.423 67.4524L466.557 70.0454L467.766 76.6293C467.843 77.1788 468.254 77.6111 468.755 77.7509C469.282 77.8897 469.847 77.7115 470.195 77.3308L474.754 72.1695L481.481 72.9002Z" fill="white"/>
<path fill-rule="evenodd" clip-rule="evenodd" d="M536.358 132.99C536.672 133.2 537.064 133.304 537.431 133.226C537.588 133.226 537.718 133.173 537.849 133.043C538.32 132.807 538.608 132.31 538.608 131.787L538.556 125.168L544.207 121.296C544.678 120.982 544.887 120.432 544.809 119.909C544.73 119.386 544.338 118.941 543.814 118.784L537.248 116.848L535.233 110.543C535.076 110.046 534.631 109.653 534.108 109.575C533.585 109.496 533.062 109.705 532.748 110.124L528.719 115.592L521.785 115.54C521.236 115.54 520.739 115.854 520.503 116.325C520.268 116.822 520.32 117.397 520.66 117.816L524.716 123.101L522.492 129.38C522.309 129.903 522.413 130.452 522.806 130.845C523.172 131.237 523.748 131.368 524.245 131.211L530.838 129.04L536.358 132.99Z" fill="white"/>
</svg>
