<svg width="380" height="175" viewBox="0 0 380 175" fill="none" xmlns="http://www.w3.org/2000/svg">
<path d="M196.698 90.9628L196.733 92.8977L198.387 93.9707L196.522 94.5688L195.994 96.4158L194.781 94.8678L192.793 94.9382L193.936 93.3726L193.233 91.5608L195.15 92.1589L196.698 90.9628Z" fill="white"/>
<path d="M193.532 94.5515L194.763 94.5163C194.886 94.5163 194.992 94.5691 195.08 94.657L195.836 95.6245L196.17 94.4811C196.205 94.358 196.293 94.27 196.417 94.2349L197.56 93.8655L196.54 93.2146C196.434 93.1618 196.381 93.0387 196.364 92.9156L196.346 91.7194L195.361 92.4582C195.273 92.5286 195.15 92.5462 195.027 92.511L193.848 92.1592L194.271 93.2674C194.323 93.3729 194.306 93.5137 194.235 93.6192L193.532 94.5515ZM196.082 96.7679H196.065C195.924 96.803 195.783 96.7503 195.695 96.6271L194.605 95.2375L192.811 95.2903C192.67 95.3079 192.547 95.2199 192.476 95.0968C192.406 94.9736 192.424 94.8153 192.494 94.7098L193.514 93.3202L192.881 91.7018C192.828 91.5787 192.863 91.4204 192.951 91.3324C193.057 91.2269 193.198 91.1741 193.321 91.2269L195.044 91.7546L196.452 90.6992C196.557 90.6113 196.716 90.5937 196.839 90.664C196.962 90.7344 197.032 90.8575 197.05 90.9982L197.085 92.7221L198.58 93.6896C198.703 93.7599 198.756 93.9006 198.738 94.0414C198.721 94.1821 198.615 94.3052 198.492 94.3404L196.804 94.8857L196.329 96.5392C196.293 96.6447 196.205 96.7327 196.082 96.7679Z" fill="white"/>
<path d="M143.751 80.5144L143.786 82.4317L145.457 83.5048L143.575 84.1028L143.048 85.9498L141.851 84.4019L139.846 84.4722L140.99 82.9067L140.304 81.1125L142.203 81.693L143.751 80.5144Z" fill="white"/>
<path d="M140.585 84.0849L141.816 84.0497C141.939 84.0497 142.045 84.1025 142.115 84.1905L142.872 85.1579L143.206 83.997C143.241 83.8914 143.329 83.7859 143.452 83.7507L144.596 83.3813L143.575 82.7305C143.47 82.6601 143.417 82.5546 143.399 82.4314L143.382 81.2353L142.397 81.9741C142.309 82.0444 142.186 82.062 142.08 82.0269L140.902 81.675L141.324 82.7832C141.377 82.8888 141.341 83.0295 141.271 83.135L140.585 84.0849ZM143.136 86.3189H143.118C142.977 86.3541 142.837 86.3013 142.749 86.1782L141.658 84.7885L139.864 84.8413C139.723 84.8589 139.6 84.7709 139.53 84.6478C139.459 84.5247 139.477 84.384 139.547 84.2608L140.567 82.8712L139.934 81.2529C139.881 81.1297 139.917 80.9714 140.005 80.8835C140.092 80.7779 140.233 80.7252 140.374 80.7779L142.098 81.3057L143.505 80.2502C143.611 80.1623 143.769 80.1447 143.892 80.215C144.015 80.2854 144.103 80.4085 144.103 80.5493L144.138 82.2731L145.633 83.2406C145.757 83.3109 145.809 83.4517 145.792 83.5924C145.774 83.7331 145.669 83.8387 145.545 83.8914L143.857 84.4367L143.382 86.0902C143.364 86.1782 143.259 86.2837 143.136 86.3189Z" fill="white"/>
<path d="M2.35857 1.93663L0.370865 1.91904L1.54942 3.4494L0.916165 5.2612L2.79833 4.64554L4.38146 5.78891L4.36387 3.87157L5.99976 2.74579L4.10001 2.20049L3.51953 0.371094L2.35857 1.93663Z" fill="white"/>
<path d="M2.69449 4.29537C2.80003 4.27778 2.90557 4.29537 2.99353 4.34814L3.99617 5.06934V3.8732C3.99617 3.75007 4.06653 3.64453 4.15449 3.55658L5.13954 2.87055L3.99617 2.55393C3.87304 2.51875 3.78509 2.4308 3.74991 2.30766L3.38051 1.16429L2.65931 2.16694C2.58895 2.25489 2.48341 2.30766 2.36027 2.30766H1.12895L1.85015 3.23995C1.92052 3.34549 1.93811 3.46863 1.90293 3.59176L1.49835 4.68236L2.6769 4.29537H2.69449ZM4.47111 6.14235C4.36557 6.17753 4.26003 6.14235 4.17208 6.08958L2.72967 5.05175L1.02341 5.61464C0.882688 5.66742 0.741965 5.63223 0.636423 5.52669C0.548472 5.42115 0.513291 5.28043 0.566062 5.1573L1.12895 3.5214L0.0735335 2.14935C0.00317223 2.04381 -0.0320084 1.8855 0.0383529 1.76236C0.0911238 1.63923 0.231846 1.55128 0.372569 1.55128L2.16678 1.56887L3.20461 0.144056C3.31015 0.038514 3.43328 -0.0142569 3.57401 0.00333337C3.71473 0.0209237 3.82027 0.126466 3.87304 0.249598L4.40075 1.8855L6.1246 2.39562C6.23014 2.44839 6.33568 2.55393 6.35327 2.69465C6.37086 2.83537 6.31809 2.9761 6.19496 3.04646L4.73497 4.0667L4.75256 5.79055C4.75256 5.93127 4.6822 6.0544 4.55906 6.12476C4.52388 6.12476 4.50629 6.12476 4.47111 6.14235Z" fill="white"/>
<path d="M120.655 130.488L119.353 131.895L119.811 133.813L118.034 132.968L116.363 133.918L116.574 131.983L115.097 130.646L116.996 130.312L117.735 128.518L118.72 130.26L120.655 130.488Z" fill="white"/>
<path d="M117.946 132.599C118.034 132.581 118.122 132.581 118.193 132.616L119.266 133.144L119.002 131.965C118.966 131.842 119.002 131.719 119.09 131.631L119.899 130.752L118.667 130.611C118.562 130.593 118.456 130.523 118.386 130.417L117.788 129.344L117.331 130.435C117.278 130.558 117.19 130.646 117.049 130.664L115.888 130.875L116.803 131.702C116.891 131.79 116.944 131.895 116.926 132.018L116.803 133.249L117.841 132.651C117.876 132.616 117.911 132.616 117.946 132.599ZM119.899 134.182C119.811 134.199 119.723 134.199 119.653 134.164L118.052 133.39L116.557 134.252C116.433 134.323 116.293 134.323 116.17 134.252C116.064 134.182 115.994 134.041 116.011 133.9L116.205 132.141L114.868 130.928C114.762 130.822 114.727 130.699 114.762 130.541C114.798 130.417 114.921 130.312 115.044 130.277L116.75 129.978L117.419 128.395C117.471 128.254 117.594 128.166 117.735 128.166C117.876 128.166 118.017 128.219 118.069 128.359L118.949 129.925L120.708 130.118C120.849 130.136 120.972 130.224 121.007 130.347C121.06 130.47 121.025 130.629 120.937 130.716L119.776 131.983L120.18 133.724C120.215 133.848 120.163 134.006 120.057 134.094C119.987 134.147 119.952 134.164 119.899 134.182Z" fill="white"/>
<path d="M237.947 54.9374L236.663 56.3446L237.103 58.262L235.326 57.4L233.673 58.3675L233.884 56.4326L232.389 55.0957L234.306 54.7439L235.045 52.9673L236.012 54.7087L237.947 54.9374Z" fill="white"/>
<path d="M235.238 57.0485C235.326 57.0309 235.414 57.0309 235.485 57.0661L236.558 57.5938L236.276 56.4152C236.241 56.2921 236.276 56.169 236.364 56.081L237.173 55.2015L235.942 55.0608C235.819 55.0608 235.713 54.9904 235.661 54.8849L235.062 53.8119L234.605 54.9025C234.552 55.0256 234.447 55.096 234.324 55.1136L233.163 55.3246L234.077 56.1514C234.165 56.2393 234.201 56.3449 234.201 56.468L234.077 57.6993L235.115 57.1013C235.168 57.0661 235.203 57.0661 235.238 57.0485ZM237.191 58.614C237.103 58.6316 237.015 58.6316 236.945 58.5964L235.344 57.8225L233.849 58.6844C233.726 58.7548 233.585 58.7548 233.462 58.6844C233.339 58.614 233.286 58.4733 233.286 58.3326L233.462 56.5736L232.125 55.3598C232.019 55.2719 231.984 55.1136 232.019 54.9904C232.054 54.8497 232.178 54.7442 232.301 54.7266L234.007 54.4275L234.675 52.8268C234.728 52.6861 234.851 52.5981 234.992 52.5981C235.133 52.5981 235.256 52.6685 235.326 52.7916L236.206 54.3572L237.965 54.5683C238.106 54.5859 238.211 54.6738 238.264 54.7969C238.317 54.9377 238.281 55.0784 238.194 55.1663L237.015 56.4328L237.437 58.1743C237.472 58.315 237.42 58.4557 237.296 58.5437C237.296 58.5788 237.244 58.614 237.191 58.614Z" fill="white"/>
<path d="M319.25 44.3134L317.948 45.7382L318.388 47.6555L316.611 46.7936L314.958 47.7611L315.169 45.8085L313.691 44.4893L315.591 44.1375L316.33 42.3608L317.297 44.1023L319.25 44.3134Z" fill="white"/>
<path d="M316.523 46.4411C316.611 46.4235 316.699 46.4235 316.77 46.4587L317.843 46.9864L317.579 45.8078C317.544 45.6847 317.579 45.5615 317.667 45.4736L318.476 44.5941L317.262 44.4534C317.139 44.4358 317.051 44.3654 316.981 44.2775L316.383 43.2044L315.925 44.295C315.873 44.4182 315.785 44.5061 315.644 44.5061L314.483 44.7172L315.398 45.544C315.486 45.6319 315.538 45.7374 315.521 45.8606L315.398 47.0919L316.436 46.4938C316.471 46.4587 316.488 46.4411 316.523 46.4411ZM318.494 48.0066C318.406 48.0242 318.318 48.0242 318.247 47.989L316.629 47.215L315.134 48.077C315.011 48.1473 314.87 48.1473 314.747 48.077C314.641 48.0066 314.571 47.8659 314.589 47.7252L314.764 45.9661L313.428 44.77C313.322 44.6644 313.287 44.5237 313.322 44.4006C313.357 44.2775 313.48 44.1543 313.603 44.1367L315.31 43.8377L315.978 42.237C316.031 42.1138 316.154 42.0083 316.295 42.0083C316.436 42.0083 316.576 42.0611 316.629 42.2018L317.509 43.7673L319.268 43.9784C319.408 43.996 319.531 44.084 319.567 44.2071C319.619 44.3302 319.584 44.4885 319.496 44.5765L318.335 45.843L318.74 47.5844C318.775 47.7252 318.722 47.8659 318.617 47.9538C318.582 47.9714 318.529 48.0066 318.494 48.0066Z" fill="white"/>
<path d="M289.733 70.699L287.869 71.1212L287.13 72.9506L286.162 71.2268L284.263 71.0684L285.547 69.5909L285.089 67.6383L286.848 68.4651L288.467 67.4272L288.273 69.4149L289.733 70.699Z" fill="white"/>
<path d="M285.019 70.7518L286.215 70.8573C286.338 70.8573 286.444 70.9277 286.496 71.0333L287.077 72.0887L287.517 70.9629C287.569 70.8573 287.657 70.787 287.781 70.7342L288.959 70.4704L288.044 69.6612C287.956 69.5908 287.921 69.4677 287.921 69.3446L288.044 68.1133L287.042 68.7465C286.936 68.8169 286.795 68.8169 286.69 68.7817L285.617 68.2892L285.898 69.5029C285.916 69.6084 285.898 69.7316 285.81 69.8195L285.019 70.7518ZM287.218 73.3024C287.2 73.32 287.165 73.32 287.147 73.32C287.007 73.3376 286.866 73.2672 286.795 73.1441L285.934 71.5961L284.227 71.4554C284.087 71.4378 283.963 71.3499 283.911 71.2267C283.858 71.1036 283.875 70.9453 283.963 70.8573L285.124 69.5205L284.72 67.7615C284.685 67.6207 284.737 67.48 284.843 67.3921C284.948 67.3041 285.089 67.2865 285.23 67.3393L286.795 68.0781L288.255 67.1458C288.379 67.0754 288.519 67.0754 288.642 67.1458C288.766 67.2161 288.818 67.3569 288.818 67.4976L288.642 69.2918L289.962 70.4704C290.067 70.5583 290.102 70.699 290.067 70.8398C290.032 70.9629 289.927 71.0508 289.786 71.1036L288.097 71.473L287.446 73.1265C287.429 73.1969 287.341 73.2672 287.218 73.3024Z" fill="white"/>
<path d="M348.502 57.0663L346.726 57.8227L346.339 59.74L345.09 58.2272L343.172 58.4207L344.175 56.7321L343.384 54.9027L345.248 55.3952L346.673 54.0759L346.831 56.0636L348.502 57.0663Z" fill="white"/>
<path d="M343.859 57.981L345.055 57.8578C345.178 57.8403 345.301 57.893 345.372 57.9986L346.145 58.9309L346.374 57.7523C346.409 57.6292 346.48 57.5236 346.585 57.4885L347.693 57.0311L346.638 56.3979C346.55 56.3275 346.48 56.222 346.462 56.1164L346.357 54.8851L345.495 55.6767C345.407 55.7646 345.284 55.7998 345.16 55.7646L344.017 55.4656L344.51 56.6089C344.562 56.7145 344.545 56.8376 344.492 56.9432L343.859 57.981ZM346.427 60.1094C346.286 60.1446 346.145 60.0918 346.058 59.9863L344.932 58.6142L343.225 58.7901C343.085 58.7901 342.962 58.7374 342.874 58.6142C342.803 58.4911 342.803 58.3504 342.856 58.2272L343.753 56.6969L343.032 55.0434C342.979 54.9203 342.997 54.762 343.085 54.6564C343.19 54.5509 343.313 54.4981 343.454 54.5333L345.125 54.973L346.392 53.7945C346.497 53.6889 346.638 53.6714 346.779 53.7241C346.919 53.7769 347.007 53.9 347.007 54.0408L347.148 55.835L348.661 56.7497C348.784 56.82 348.854 56.9432 348.837 57.0839C348.819 57.2246 348.749 57.3477 348.608 57.4005L347.025 58.0689L346.673 59.8104C346.673 59.9511 346.568 60.0742 346.427 60.1094Z" fill="white"/>
<path d="M375.855 35.2368L373.938 35.5534L375.398 36.8903L375.169 38.8428L376.84 37.893L378.599 38.7901L378.177 36.8551L379.496 35.4655L377.562 35.2192L376.612 33.4602L375.855 35.2368Z" fill="white"/>
<path d="M376.753 37.5412C376.84 37.5236 376.928 37.5236 377.016 37.5764L378.089 38.1041L377.826 36.9255C377.79 36.8024 377.826 36.6792 377.914 36.5913L378.74 35.7118L377.527 35.5535C377.403 35.5359 377.315 35.4655 377.245 35.36L376.647 34.2694L376.19 35.36C376.137 35.4655 376.031 35.5535 375.908 35.5711L374.747 35.7645L375.662 36.6089C375.75 36.6792 375.785 36.8024 375.767 36.9255L375.627 38.1568L376.665 37.5764C376.7 37.5588 376.717 37.5412 376.753 37.5412ZM378.705 39.1419C378.617 39.1595 378.529 39.1595 378.441 39.1067L376.858 38.3151L375.363 39.1595C375.24 39.2298 375.099 39.2123 374.976 39.1419C374.853 39.0715 374.8 38.9308 374.818 38.7901L375.029 37.031L373.709 35.7997C373.604 35.7118 373.569 35.5535 373.604 35.4303C373.639 35.2896 373.762 35.2017 373.903 35.1841L375.609 34.9026L376.295 33.3195C376.348 33.1964 376.471 33.1084 376.612 33.0908C376.753 33.0908 376.876 33.1612 376.946 33.2843L377.808 34.8674L379.549 35.0961C379.69 35.1137 379.813 35.2192 379.848 35.3424C379.901 35.4831 379.866 35.6238 379.778 35.7118L378.6 36.9607L378.987 38.7021C379.004 38.8429 378.969 38.9836 378.846 39.0715C378.793 39.1067 378.74 39.1243 378.705 39.1419Z" fill="white"/>
<path d="M64.9467 130.981L63.6626 132.388L64.1023 134.323L62.3257 133.461L60.6722 134.429L60.8833 132.476L59.4057 131.157L61.3055 130.805L62.0443 129.029L63.0117 130.77L64.9467 130.981Z" fill="white"/>
<path d="M62.2377 133.11C62.3256 133.092 62.4136 133.092 62.4839 133.127L63.5569 133.655L63.2755 132.476C63.2403 132.353 63.2755 132.23 63.3634 132.142L64.1726 131.263L62.9413 131.122C62.8357 131.104 62.7302 131.034 62.6598 130.928L62.0617 129.855L61.6044 130.946C61.5516 131.069 61.4461 131.157 61.323 131.175L60.162 131.386L61.0767 132.213C61.1646 132.301 61.1998 132.406 61.1998 132.529L61.0767 133.76L62.1145 133.162C62.1673 133.127 62.2025 133.11 62.2377 133.11ZM64.1902 134.675C64.1022 134.693 64.0143 134.693 63.9439 134.658L62.3432 133.884L60.848 134.746C60.7249 134.816 60.5842 134.816 60.461 134.746C60.3379 134.675 60.2851 134.552 60.2851 134.394L60.461 132.635L59.1242 131.421C59.0186 131.315 58.9834 131.192 59.0186 131.052C59.0538 130.911 59.1593 130.823 59.3001 130.788L61.0063 130.489L61.6748 128.888C61.7275 128.747 61.8507 128.677 61.9914 128.659C62.1321 128.659 62.2728 128.712 62.3256 128.835L63.2051 130.401L64.9642 130.612C65.1049 130.629 65.2104 130.717 65.2632 130.84C65.2984 130.964 65.2808 131.104 65.1928 131.21L64.0143 132.476L64.4364 134.218C64.4716 134.359 64.4189 134.499 64.3133 134.587C64.2957 134.64 64.243 134.675 64.1902 134.675Z" fill="white"/>
<path d="M36.0985 85.0526L34.7968 86.4774L35.2365 88.3948L33.4775 87.5329L31.8064 88.5003L32.0175 86.5478L30.5399 85.2109L32.4397 84.8767L33.1785 83.1001L34.1459 84.8239L36.0985 85.0526Z" fill="white"/>
<path d="M33.3721 87.1809C33.46 87.1634 33.548 87.1633 33.6184 87.1985L34.6914 87.7262L34.4099 86.5477C34.3923 86.4246 34.4099 86.3014 34.4979 86.2135L35.307 85.334L34.0757 85.1932C33.9702 85.1756 33.8646 85.1053 33.7943 84.9997L33.1962 83.9267L32.7388 85.0173C32.6861 85.1229 32.5981 85.2284 32.4574 85.246L31.2964 85.4395L32.2111 86.2662C32.2991 86.3542 32.3518 86.4597 32.3343 86.5829L32.2111 87.8142L33.249 87.2161C33.3193 87.1985 33.3369 87.1809 33.3721 87.1809ZM35.3422 88.7465C35.2543 88.7641 35.1663 88.7641 35.0959 88.7289L33.4952 87.9549L32 88.8168C31.8769 88.8872 31.7362 88.8872 31.6131 88.8168C31.4899 88.7289 31.4372 88.6058 31.4547 88.465L31.6306 86.706L30.2938 85.4923C30.1882 85.3867 30.1531 85.2636 30.1882 85.1053C30.2234 84.9822 30.3466 84.8766 30.4697 84.8414L32.1759 84.5424L32.8444 82.9417C32.8972 82.8185 33.0203 82.7306 33.161 82.713C33.3017 82.6954 33.4425 82.7658 33.4952 82.8889L34.3747 84.472L36.1338 84.6831C36.2745 84.7007 36.38 84.7887 36.4328 84.9118C36.468 85.0349 36.4504 85.1932 36.3624 85.2812L35.1839 86.5829L35.6061 88.3243C35.6412 88.465 35.5885 88.6058 35.4829 88.6937C35.4302 88.7113 35.3774 88.7289 35.3422 88.7465Z" fill="white"/>
<path d="M59.7574 35.7646L60.4786 37.5413L62.4135 37.9634L60.8656 39.1948L61.0239 41.1121L59.3528 40.0919L57.5234 40.8482L58.0336 38.9837L56.7319 37.5589L58.7196 37.4181L59.7574 35.7646Z" fill="white"/>
<path d="M59.2649 39.7401C59.3529 39.7225 59.4584 39.7401 59.5464 39.7753L60.6018 40.4085L60.4963 39.2124C60.4787 39.0892 60.5314 38.9661 60.637 38.8957L61.5693 38.1569L60.3907 37.9107C60.2676 37.8931 60.1621 37.8051 60.1269 37.682L59.6871 36.5738L59.0363 37.6116C58.9659 37.6996 58.8604 37.77 58.7548 37.7875L57.5235 37.8755L58.3151 38.755C58.403 38.843 58.4206 38.9661 58.403 39.0892L58.0864 40.2326L59.2298 39.7577C59.2298 39.7401 59.2474 39.7401 59.2649 39.7401ZM61.1119 41.4639C61.024 41.4991 60.9184 41.4815 60.8305 41.4287L59.3177 40.514L57.6466 41.2001C57.5235 41.2528 57.3652 41.2352 57.2596 41.1297C57.1541 41.0418 57.1013 40.901 57.1541 40.7603L57.6115 39.1068L56.4505 37.8051C56.345 37.6996 56.3274 37.5589 56.3801 37.4181C56.4329 37.295 56.556 37.2071 56.6968 37.1895L58.491 37.0663L59.4233 35.5712C59.4936 35.4656 59.6343 35.3953 59.7751 35.3953C59.9158 35.4129 60.0389 35.5008 60.0741 35.6239L60.7249 37.2247L62.4664 37.5941C62.6071 37.6292 62.7126 37.7348 62.7478 37.8755C62.783 38.0162 62.7302 38.1569 62.6247 38.2449L61.2351 39.3531L61.3758 41.0593C61.3934 41.2001 61.323 41.3408 61.1999 41.4112C61.1823 41.4287 61.1471 41.4463 61.1119 41.4639Z" fill="white"/>
<path d="M42.7652 3.41553L43.6975 8.28804L48.3941 10.3109L43.8558 12.668L43.3105 17.5933L39.5814 14.1808L34.5506 15.201L36.7669 10.7331L34.2164 6.44106L39.3175 7.0919L42.7652 3.41553Z" fill="white"/>
<path d="M39.5286 13.2316C39.7748 13.214 40.0211 13.3019 40.2146 13.4778L42.5717 15.6415L42.9235 12.5631C42.9587 12.2465 43.1522 11.9651 43.4336 11.8244L46.1777 10.3995L43.3105 9.16822C43.029 9.04508 42.8179 8.78123 42.7476 8.48219L42.1671 5.43907L40.0035 7.7434C39.7924 7.97207 39.4934 8.07762 39.1943 8.02485L36.0281 7.62027L37.5936 10.2412C37.7519 10.5227 37.7695 10.8569 37.6288 11.1383L36.2568 13.8648L39.3878 13.2316C39.4406 13.2492 39.4758 13.2316 39.5286 13.2316ZM43.3632 18.5439C43.0994 18.5614 42.8531 18.4735 42.6596 18.2976L39.2999 15.2193L34.7264 16.1516C34.3746 16.2043 34.0052 16.0812 33.7941 15.7998C33.583 15.5183 33.5479 15.1137 33.7062 14.7971L35.6939 10.7865L33.4071 6.93425C33.2136 6.61762 33.2312 6.23063 33.4247 5.9316C33.6182 5.63256 33.97 5.45666 34.3394 5.50943L38.9481 6.08991L42.0792 2.76534C42.3254 2.50149 42.6948 2.41354 43.029 2.50149C43.3808 2.60703 43.6271 2.88847 43.6975 3.24028L44.5242 7.62027L48.7635 9.44966C49.0977 9.59038 49.3264 9.9246 49.344 10.294C49.3615 10.6634 49.1505 10.9976 48.8338 11.1735L44.7529 13.3019L44.2604 17.7347C44.2252 18.0865 43.9789 18.3855 43.6623 18.5087C43.5392 18.5263 43.4512 18.5439 43.3632 18.5439Z" fill="white"/>
<path d="M116.381 35.7997L115.079 37.2245L115.536 39.1419L113.76 38.2799L112.089 39.2474L112.3 37.2949L110.822 35.9756L112.722 35.6238L113.461 33.8472L114.428 35.5886L116.381 35.7997Z" fill="white"/>
<path d="M113.654 37.9281C113.742 37.9105 113.83 37.9105 113.9 37.9457L114.973 38.4734L114.709 37.2949C114.674 37.1717 114.709 37.0486 114.797 36.9607L115.607 36.0811L114.393 35.9404C114.287 35.9404 114.164 35.8701 114.111 35.7645L113.513 34.6915L113.056 35.7821C113.003 35.9052 112.915 35.9932 112.775 35.9932L111.614 36.2043L112.528 37.031C112.616 37.119 112.669 37.2245 112.651 37.3477L112.528 38.579L113.566 37.9809C113.601 37.9457 113.636 37.9281 113.654 37.9281ZM115.624 39.4937C115.536 39.5113 115.448 39.5113 115.378 39.4761L113.777 38.7021L112.282 39.564C112.159 39.6344 112.018 39.6344 111.895 39.564C111.789 39.4937 111.719 39.3529 111.737 39.2122L111.913 37.4532L110.576 36.2395C110.47 36.1339 110.435 35.9932 110.47 35.8701C110.505 35.7293 110.629 35.6414 110.752 35.6062L112.458 35.3072L113.126 33.7065C113.179 33.5833 113.302 33.4954 113.443 33.4778C113.584 33.4778 113.724 33.5481 113.777 33.6713L114.657 35.2368L116.416 35.4479C116.556 35.4655 116.68 35.5534 116.715 35.6766C116.768 35.8173 116.732 35.958 116.644 36.046L115.483 37.3125L115.888 39.0539C115.923 39.1946 115.87 39.3354 115.765 39.4233C115.712 39.4585 115.677 39.4937 115.624 39.4937Z" fill="white"/>
<path d="M203.734 144.508L202.45 145.915L202.89 147.833L201.113 146.971L199.46 147.938L199.671 146.003L198.176 144.666L200.093 144.315L200.832 142.538L201.799 144.279L203.734 144.508Z" fill="white"/>
<path d="M201.025 146.618C201.113 146.601 201.201 146.601 201.272 146.636L202.345 147.164L202.081 146.003C202.045 145.88 202.081 145.757 202.169 145.669L202.978 144.789L201.764 144.648C201.658 144.631 201.553 144.56 201.483 144.455L200.885 143.382L200.427 144.472C200.374 144.596 200.286 144.683 200.146 144.701L198.985 144.912L199.899 145.739C199.987 145.827 200.04 145.932 200.023 146.056L199.899 147.269L200.937 146.671C200.955 146.636 200.99 146.618 201.025 146.618ZM202.978 148.184C202.89 148.202 202.802 148.202 202.732 148.166L201.131 147.392L199.636 148.254C199.512 148.325 199.372 148.325 199.249 148.254C199.143 148.184 199.073 148.061 199.09 147.903L199.266 146.143L197.929 144.93C197.824 144.842 197.789 144.701 197.824 144.56C197.859 144.42 197.982 144.332 198.105 144.297L199.812 143.997L200.48 142.397C200.533 142.256 200.656 142.168 200.797 142.168C200.937 142.15 201.078 142.221 201.131 142.344L202.01 143.91L203.769 144.121C203.91 144.138 204.033 144.226 204.068 144.349C204.121 144.472 204.086 144.613 203.998 144.719L202.837 145.985L203.242 147.727C203.277 147.867 203.224 148.008 203.118 148.096C203.083 148.149 203.031 148.184 202.978 148.184Z" fill="white"/>
<path d="M200.779 139.318C200.761 139.318 200.744 139.336 200.726 139.336C200.533 139.354 200.339 139.213 200.322 139.019L195.731 99.9161C195.713 99.705 195.854 99.5291 196.047 99.5115C196.241 99.4939 196.434 99.6346 196.452 99.8281L201.043 138.931C201.078 139.107 200.955 139.283 200.779 139.318Z" fill="white"/>
<path d="M201.254 139.952C201.236 139.952 201.219 139.969 201.201 139.969C200.972 139.987 200.779 139.846 200.744 139.635L195.238 99.3004C195.203 99.0893 195.361 98.8958 195.59 98.8782C195.819 98.8606 196.012 99.0013 196.047 99.2124L201.571 139.565C201.588 139.74 201.447 139.916 201.254 139.952Z" fill="white"/>
<path d="M201.254 139.952C201.236 139.952 201.219 139.969 201.201 139.969C200.972 139.987 200.779 139.846 200.744 139.635L195.238 99.3004C195.203 99.0893 195.361 98.8958 195.59 98.8782C195.819 98.8606 196.012 99.0013 196.047 99.2124L201.571 139.565C201.588 139.74 201.447 139.916 201.254 139.952Z" stroke="white" stroke-width="1.3" stroke-miterlimit="10"/>
<path d="M163.188 164.613C163.03 164.666 162.837 164.578 162.766 164.42C162.678 164.226 162.766 164.015 162.942 163.927L196.153 148.536C196.346 148.448 196.557 148.536 196.645 148.712C196.733 148.888 196.645 149.116 196.469 149.204L163.241 164.578C163.224 164.596 163.206 164.596 163.188 164.613Z" fill="white"/>
<path d="M162.573 165.106C162.397 165.159 162.204 165.071 162.133 164.895C162.045 164.702 162.133 164.473 162.309 164.368L196.769 148.009C196.962 147.921 197.191 148.009 197.279 148.202C197.367 148.396 197.279 148.624 197.085 148.712L162.626 165.071C162.608 165.089 162.591 165.089 162.573 165.106Z" fill="white"/>
<path d="M162.573 165.106C162.397 165.159 162.204 165.071 162.133 164.895C162.045 164.702 162.133 164.473 162.309 164.368L196.769 148.009C196.962 147.921 197.191 148.009 197.279 148.202C197.367 148.396 197.279 148.624 197.085 148.712L162.626 165.071C162.608 165.089 162.591 165.089 162.573 165.106Z" stroke="white" stroke-width="1.3" stroke-miterlimit="10"/>
<path d="M146.46 162.362C146.337 162.397 146.196 162.362 146.108 162.256L121.957 137.014C121.816 136.856 121.816 136.627 121.974 136.504C122.115 136.363 122.361 136.363 122.485 136.504L146.636 161.746C146.777 161.904 146.777 162.133 146.619 162.274C146.583 162.309 146.531 162.344 146.46 162.362Z" fill="white"/>
<path d="M146.953 162.995C146.812 163.03 146.671 162.995 146.583 162.889L121.464 136.398C121.324 136.24 121.324 135.994 121.482 135.853C121.64 135.695 121.886 135.712 122.027 135.853L147.146 162.344C147.287 162.502 147.287 162.748 147.129 162.889C147.076 162.942 147.023 162.977 146.953 162.995Z" fill="white"/>
<path d="M146.953 162.995C146.812 163.03 146.671 162.995 146.583 162.889L121.464 136.398C121.324 136.24 121.324 135.994 121.482 135.853C121.64 135.695 121.886 135.712 122.027 135.853L147.146 162.344C147.287 162.502 147.287 162.748 147.129 162.889C147.076 162.942 147.023 162.977 146.953 162.995Z" stroke="white" stroke-width="1.3" stroke-miterlimit="10"/>
<path d="M189.891 92.493C189.838 92.5106 189.785 92.5106 189.732 92.493L148.307 84.3311C148.114 84.2959 147.99 84.1024 148.026 83.9089C148.061 83.7154 148.254 83.5747 148.465 83.6099L189.891 91.7718C190.084 91.807 190.225 92.0005 190.19 92.194C190.137 92.3699 190.031 92.4578 189.891 92.493Z" fill="white"/>
<path d="M190.383 93.1266C190.33 93.1442 190.26 93.1618 190.225 93.1442L147.779 83.9269C147.586 83.8917 147.445 83.6454 147.498 83.3816C147.551 83.1177 147.744 82.9418 147.955 82.9946L190.383 92.2119C190.594 92.2471 190.717 92.5109 190.665 92.7572C190.647 92.9507 190.524 93.0914 190.383 93.1266Z" fill="white"/>
<path d="M190.383 93.1266C190.33 93.1442 190.26 93.1618 190.225 93.1442L147.779 83.9269C147.586 83.8917 147.445 83.6454 147.498 83.3816C147.551 83.1177 147.744 82.9418 147.955 82.9946L190.383 92.2119C190.594 92.2471 190.717 92.5109 190.665 92.7572C190.647 92.9507 190.524 93.0914 190.383 93.1266Z" stroke="white" stroke-width="1.3" stroke-miterlimit="10"/>
<path d="M349.945 53.4426C349.787 53.4777 349.628 53.425 349.54 53.2843C349.435 53.1083 349.488 52.8797 349.663 52.7741L372.232 38.3149C372.408 38.2094 372.636 38.2621 372.742 38.438C372.848 38.6139 372.795 38.8426 372.619 38.9481L350.05 53.4074C349.998 53.425 349.963 53.4426 349.945 53.4426Z" fill="white"/>
<path d="M349.329 53.953C349.171 53.9882 348.995 53.9354 348.907 53.7947C348.802 53.6012 348.837 53.3725 349.03 53.2494L372.83 37.8227C373.006 37.7172 373.252 37.7699 373.375 37.9458C373.481 38.1217 373.446 38.368 373.252 38.4911L349.453 53.9178C349.4 53.9354 349.365 53.9354 349.329 53.953Z" fill="white"/>
<path d="M349.329 53.953C349.171 53.9882 348.995 53.9354 348.907 53.7947C348.802 53.6012 348.837 53.3725 349.03 53.2494L372.83 37.8227C373.006 37.7172 373.252 37.7699 373.375 37.9458C373.481 38.1217 373.446 38.368 373.252 38.4911L349.453 53.9178C349.4 53.9354 349.365 53.9354 349.329 53.953Z" stroke="white" stroke-width="1.3" stroke-miterlimit="10"/>
<path d="M340.429 54.4098C340.358 54.4274 340.288 54.4274 340.2 54.3922L325.723 48.3939C325.53 48.3236 325.442 48.0949 325.512 47.919C325.582 47.7255 325.811 47.6375 325.987 47.7079L340.464 53.7062C340.657 53.7766 340.745 53.9876 340.675 54.1811C340.622 54.3043 340.534 54.3746 340.429 54.4098Z" fill="white"/>
<path d="M340.904 55.0432C340.833 55.0608 340.745 55.0608 340.657 55.0256L325.213 47.9192C325.002 47.8312 324.914 47.5674 325.002 47.3387C325.09 47.0924 325.319 46.9869 325.53 47.0748L340.974 54.1813C341.185 54.2693 341.273 54.5331 341.185 54.7618C341.132 54.9025 341.027 54.9905 340.904 55.0432Z" fill="white"/>
<path d="M340.904 55.0432C340.833 55.0608 340.745 55.0608 340.657 55.0256L325.213 47.9192C325.002 47.8312 324.914 47.5674 325.002 47.3387C325.09 47.0924 325.319 46.9869 325.53 47.0748L340.974 54.1813C341.185 54.2693 341.273 54.5331 341.185 54.7618C341.132 54.9025 341.027 54.9905 340.904 55.0432Z" stroke="white" stroke-width="1.3" stroke-miterlimit="10"/>
<path d="M291.615 67.1811C291.475 67.2163 291.352 67.1811 291.246 67.058C291.123 66.9172 291.123 66.671 291.281 66.5479L309.645 49.925C309.804 49.7843 310.032 49.8019 310.156 49.9602C310.296 50.1009 310.279 50.3472 310.12 50.4703L291.756 67.0932C291.721 67.1459 291.668 67.1811 291.615 67.1811Z" fill="white"/>
<path d="M291 67.6911C290.859 67.7263 290.718 67.6911 290.613 67.5679C290.472 67.4096 290.49 67.1634 290.648 67.0226L310.226 49.4323C310.384 49.2916 310.631 49.3092 310.771 49.4675C310.912 49.6258 310.912 49.8721 310.754 50.0128L291.158 67.6031C291.123 67.6383 291.052 67.6735 291 67.6911Z" fill="white"/>
<path d="M291 67.6911C290.859 67.7263 290.718 67.6911 290.613 67.5679C290.472 67.4096 290.49 67.1634 290.648 67.0226L310.226 49.4323C310.384 49.2916 310.631 49.3092 310.771 49.4675C310.912 49.6258 310.912 49.8721 310.754 50.0128L291.158 67.6031C291.123 67.6383 291.052 67.6735 291 67.6911Z" stroke="white" stroke-width="1.3" stroke-miterlimit="10"/>
<path d="M281.132 69.0805C281.079 69.098 281.008 69.098 280.938 69.0805L241.272 58.0513C241.078 57.9986 240.955 57.7875 241.026 57.594C241.078 57.4005 241.29 57.2774 241.483 57.3301L281.149 68.3593C281.343 68.412 281.466 68.6231 281.395 68.8166C281.36 68.9573 281.255 69.0453 281.132 69.0805Z" fill="white"/>
<path d="M281.624 69.7137C281.554 69.7313 281.483 69.7313 281.431 69.7137L240.78 57.5412C240.568 57.4884 240.463 57.2422 240.533 57.0135C240.604 56.7848 240.815 56.6441 241.008 56.6969L281.659 68.887C281.853 68.9397 281.976 69.186 281.906 69.4147C281.853 69.5554 281.747 69.6785 281.624 69.7137Z" fill="white"/>
<path d="M281.624 69.7137C281.554 69.7313 281.483 69.7313 281.431 69.7137L240.78 57.5412C240.568 57.4884 240.463 57.2422 240.533 57.0135C240.604 56.7848 240.815 56.6441 241.008 56.6969L281.659 68.887C281.853 68.9397 281.976 69.186 281.906 69.4147C281.853 69.5554 281.747 69.6785 281.624 69.7137Z" stroke="white" stroke-width="1.3" stroke-miterlimit="10"/>
<path d="M199.935 90.0835C199.812 90.1187 199.671 90.0835 199.583 89.9779C199.442 89.8372 199.442 89.6085 199.601 89.4678L230.12 59.5643C230.26 59.4236 230.489 59.4236 230.63 59.5643C230.771 59.705 230.771 59.9337 230.63 60.0744L200.111 89.9779C200.04 90.0307 199.988 90.0659 199.935 90.0835Z" fill="white"/>
<path d="M199.301 90.5934C199.178 90.6286 199.02 90.5934 198.932 90.4879C198.791 90.3472 198.791 90.1009 198.95 89.9602L230.7 59.0716C230.858 58.9309 231.087 58.9309 231.245 59.0716C231.404 59.2123 231.404 59.4586 231.245 59.5993L199.477 90.4879C199.425 90.5407 199.372 90.5759 199.301 90.5934Z" fill="white"/>
<path d="M199.301 90.5934C199.178 90.6286 199.02 90.5934 198.932 90.4879C198.791 90.3472 198.791 90.1009 198.95 89.9602L230.7 59.0716C230.858 58.9309 231.087 58.9309 231.245 59.0716C231.404 59.2123 231.404 59.4586 231.245 59.5993L199.477 90.4879C199.425 90.5407 199.372 90.5759 199.301 90.5934Z" stroke="white" stroke-width="1.3" stroke-miterlimit="10"/>
<path d="M30.3289 8.4642C30.2761 8.48179 30.2409 8.48179 30.1881 8.48179L7.83086 5.22759C7.61978 5.19241 7.49665 5.0165 7.51424 4.80542C7.54942 4.61193 7.72532 4.4712 7.9364 4.50638L30.2937 7.743C30.4872 7.77818 30.6279 7.97167 30.6103 8.16517C30.5751 8.30589 30.4696 8.42902 30.3289 8.4642Z" fill="white"/>
<path d="M30.8215 9.07982C30.7687 9.115 30.716 9.115 30.6632 9.115L7.26807 5.28031C7.05699 5.22754 6.93386 4.89332 6.96904 4.50634C7.02181 4.11935 7.23289 3.83791 7.44398 3.87309L30.8567 7.69018C31.0678 7.72536 31.1909 8.07717 31.1381 8.46416C31.1029 8.76319 30.9622 8.99187 30.8215 9.07982Z" fill="white"/>
<path d="M30.8215 9.07982C30.7687 9.115 30.716 9.115 30.6632 9.115L7.26807 5.28031C7.05699 5.22754 6.93386 4.89332 6.96904 4.50634C7.02181 4.11935 7.23289 3.83791 7.44398 3.87309L30.8567 7.69018C31.0678 7.72536 31.1909 8.07717 31.1381 8.46416C31.1029 8.76319 30.9622 8.99187 30.8215 9.07982Z" stroke="white" stroke-width="1.3" stroke-miterlimit="10"/>
<path d="M56.3976 34.006C56.2393 34.0412 56.081 33.9884 55.993 33.8477L46.5119 19.1246C46.3887 18.9487 46.4591 18.72 46.6174 18.6145C46.7933 18.5089 47.022 18.5617 47.1275 18.72L56.6087 33.4431C56.7142 33.619 56.6615 33.8477 56.5032 33.9532C56.468 33.9708 56.4328 33.9884 56.3976 34.006Z" fill="white"/>
<path d="M56.8727 34.6388C56.6968 34.674 56.5385 34.6036 56.433 34.4629L46.0195 18.5261C45.8964 18.3326 45.9491 18.0863 46.1426 17.9808C46.3361 17.8577 46.5824 17.9104 46.7055 18.1039L57.119 34.0407C57.2421 34.2342 57.1893 34.4629 56.9958 34.586C56.9607 34.6036 56.9079 34.6212 56.8727 34.6388Z" fill="white"/>
<path d="M56.8727 34.6388C56.6968 34.674 56.5385 34.6036 56.433 34.4629L46.0195 18.5261C45.8964 18.3326 45.9491 18.0863 46.1426 17.9808C46.3361 17.8577 46.5824 17.9104 46.7055 18.1039L57.119 34.0407C57.2421 34.2342 57.1893 34.4629 56.9958 34.586C56.9607 34.6036 56.9079 34.6212 56.8727 34.6388Z" stroke="white" stroke-width="1.3" stroke-miterlimit="10"/>
<path d="M108.078 36.8723C108.043 36.8723 108.025 36.8723 107.99 36.8899L66.5827 38.0685C66.3716 38.0685 66.2133 37.9101 66.1957 37.7167C66.1957 37.5056 66.354 37.3473 66.5475 37.3473L107.955 36.1687C108.149 36.1687 108.324 36.327 108.324 36.5381C108.36 36.6788 108.237 36.8371 108.078 36.8723Z" fill="white"/>
<path d="M108.694 36.4856C108.659 36.4856 108.641 36.5032 108.606 36.5032L65.9669 38.5436C65.7559 38.5612 65.58 38.3677 65.58 38.1391C65.58 37.8928 65.7383 37.6993 65.9494 37.6993L108.606 35.6412C108.817 35.6237 108.993 35.8172 108.993 36.0634C108.993 36.2569 108.852 36.4328 108.694 36.4856Z" fill="white"/>
<path d="M108.694 36.4856C108.659 36.4856 108.641 36.5032 108.606 36.5032L65.9669 38.5436C65.7559 38.5612 65.58 38.3677 65.58 38.1391C65.58 37.8928 65.7383 37.6993 65.9494 37.6993L108.606 35.6412C108.817 35.6237 108.993 35.8172 108.993 36.0634C108.993 36.2569 108.852 36.4328 108.694 36.4856Z" stroke="white" stroke-width="1.3" stroke-miterlimit="10"/>
<path d="M139.899 78.9313C139.741 78.9665 139.583 78.9137 139.495 78.773L117.032 42.4842C116.926 42.3083 116.979 42.0796 117.137 41.9741C117.313 41.8685 117.542 41.9213 117.647 42.0972L140.11 78.3684C140.216 78.5443 140.163 78.773 139.987 78.8786C139.969 78.8961 139.934 78.9137 139.899 78.9313Z" fill="white"/>
<path d="M140.392 79.5643C140.233 79.5995 140.057 79.5291 139.969 79.3884L116.539 41.8682C116.434 41.6923 116.486 41.4637 116.662 41.3405C116.838 41.235 117.084 41.2878 117.19 41.4637L140.62 78.9838C140.726 79.1597 140.673 79.3884 140.497 79.5115C140.462 79.5467 140.427 79.5643 140.392 79.5643Z" fill="white"/>
<path d="M140.392 79.5643C140.233 79.5995 140.057 79.5291 139.969 79.3884L116.539 41.8682C116.434 41.6923 116.486 41.4637 116.662 41.3405C116.838 41.235 117.084 41.2878 117.19 41.4637L140.62 78.9838C140.726 79.1597 140.673 79.3884 140.497 79.5115C140.462 79.5467 140.427 79.5643 140.392 79.5643Z" stroke="white" stroke-width="1.3" stroke-miterlimit="10"/>
<path d="M119.635 125.791C119.547 125.809 119.459 125.809 119.371 125.756C119.195 125.65 119.125 125.439 119.213 125.264L139.459 87.9896C139.565 87.8137 139.776 87.7434 139.952 87.8489C140.128 87.9544 140.198 88.1655 140.11 88.3414L119.864 125.633C119.811 125.703 119.723 125.774 119.635 125.791Z" fill="white"/>
<path d="M119.019 126.302C118.931 126.319 118.826 126.319 118.738 126.267C118.544 126.161 118.474 125.932 118.579 125.756L140.057 87.4975C140.163 87.304 140.391 87.2336 140.585 87.3392C140.778 87.4447 140.849 87.6734 140.743 87.8493L119.283 126.108C119.23 126.196 119.125 126.267 119.019 126.302Z" fill="white"/>
<path d="M119.019 126.302C118.931 126.319 118.826 126.319 118.738 126.267C118.544 126.161 118.474 125.932 118.579 125.756L140.057 87.4975C140.163 87.304 140.391 87.2336 140.585 87.3392C140.778 87.4447 140.849 87.6734 140.743 87.8493L119.283 126.108C119.23 126.196 119.125 126.267 119.019 126.302Z" stroke="white" stroke-width="1.3" stroke-miterlimit="10"/>
<path d="M112.229 131.28C112.194 131.28 112.177 131.297 112.159 131.28L68.1128 132.881C67.9017 132.881 67.7434 132.722 67.7258 132.529C67.7082 132.335 67.8841 132.159 68.0776 132.142L112.124 130.541C112.335 130.541 112.493 130.699 112.511 130.91C112.511 131.086 112.388 131.227 112.229 131.28Z" fill="white"/>
<path d="M112.845 130.875C112.81 130.893 112.792 130.893 112.757 130.893L67.462 133.39C67.2509 133.408 67.075 133.215 67.075 132.986C67.075 132.757 67.2333 132.546 67.4444 132.546L112.739 130.066C112.951 130.048 113.109 130.242 113.126 130.471C113.144 130.664 113.021 130.822 112.845 130.875Z" fill="white"/>
<path d="M112.845 130.875C112.81 130.893 112.792 130.893 112.757 130.893L67.462 133.39C67.2509 133.408 67.075 133.215 67.075 132.986C67.075 132.757 67.2333 132.546 67.4444 132.546L112.739 130.066C112.951 130.048 113.109 130.242 113.126 130.471C113.144 130.664 113.021 130.822 112.845 130.875Z" stroke="white" stroke-width="1.3" stroke-miterlimit="10"/>
<path d="M58.7549 127.498C58.5966 127.533 58.4383 127.481 58.3503 127.34L35.8348 91.5611C35.7292 91.4028 35.782 91.1565 35.9403 91.051C36.1162 90.9454 36.3449 90.9982 36.4504 91.1741L58.966 126.953C59.0716 127.129 59.0188 127.357 58.8429 127.463C58.8429 127.481 58.7901 127.498 58.7549 127.498Z" fill="white"/>
<path d="M59.2475 128.131C59.0892 128.166 58.9133 128.113 58.8254 127.955L35.3423 90.9274C35.2368 90.7515 35.2895 90.5229 35.4654 90.3997C35.6413 90.2942 35.8876 90.347 35.9931 90.5229L59.4762 127.55C59.5818 127.726 59.529 127.955 59.3531 128.078C59.3355 128.113 59.2827 128.131 59.2475 128.131Z" fill="white"/>
<path d="M59.2475 128.131C59.0892 128.166 58.9133 128.113 58.8254 127.955L35.3423 90.9274C35.2368 90.7515 35.2895 90.5229 35.4654 90.3997C35.6413 90.2942 35.8876 90.347 35.9931 90.5229L59.4762 127.55C59.5818 127.726 59.529 127.955 59.3531 128.078C59.3355 128.113 59.2827 128.131 59.2475 128.131Z" stroke="white" stroke-width="1.3" stroke-miterlimit="10"/>
<path d="M35.9931 81.4988C35.9051 81.5163 35.8171 81.5163 35.7292 81.4636C35.5533 81.358 35.4829 81.1469 35.5709 80.971L55.5359 43.662C55.6238 43.4861 55.8525 43.4157 56.0284 43.5213C56.2043 43.6268 56.2747 43.8379 56.1867 44.0138L36.2217 81.3053C36.169 81.4108 36.081 81.4636 35.9931 81.4988Z" fill="white"/>
<path d="M35.3774 81.9916C35.2894 82.0092 35.1839 82.0092 35.0959 81.9564C34.9025 81.8509 34.8321 81.6222 34.9376 81.4463L56.134 43.1522C56.2395 42.9587 56.4682 42.9059 56.6617 42.9939C56.8552 43.0994 56.9255 43.3281 56.82 43.504L35.6412 81.8157C35.5885 81.9036 35.4829 81.974 35.3774 81.9916Z" fill="white"/>
<path d="M35.3774 81.9916C35.2894 82.0092 35.1839 82.0092 35.0959 81.9564C34.9025 81.8509 34.8321 81.6222 34.9376 81.4463L56.134 43.1522C56.2395 42.9587 56.4682 42.9059 56.6617 42.9939C56.8552 43.0994 56.9255 43.3281 56.82 43.504L35.6412 81.8157C35.5885 81.9036 35.4829 81.974 35.3774 81.9916Z" stroke="white" stroke-width="1.3" stroke-miterlimit="10"/>
<path d="M352.39 75.2369C352.214 75.2721 352.021 75.2018 351.95 75.0258L346.902 62.3608C346.832 62.1673 346.919 61.9562 347.113 61.8859C347.306 61.8155 347.518 61.9035 347.588 62.097L352.636 74.7444C352.707 74.9379 352.619 75.149 352.425 75.2193C352.408 75.2369 352.39 75.2369 352.39 75.2369Z" fill="white"/>
<path d="M352.847 75.8704C352.636 75.9232 352.425 75.8176 352.337 75.6241L346.392 61.763C346.304 61.5519 346.409 61.3232 346.62 61.2529C346.831 61.1825 347.095 61.2705 347.183 61.4815L353.129 75.3251C353.217 75.5362 353.111 75.7649 352.882 75.8528C352.882 75.8528 352.865 75.8704 352.847 75.8704Z" fill="white"/>
<path d="M352.847 75.8704C352.636 75.9232 352.425 75.8176 352.337 75.6241L346.392 61.763C346.304 61.5519 346.409 61.3232 346.62 61.2529C346.831 61.1825 347.095 61.2705 347.183 61.4815L353.129 75.3251C353.217 75.5362 353.111 75.7649 352.882 75.8528C352.882 75.8528 352.865 75.8704 352.847 75.8704Z" stroke="white" stroke-width="1.3" stroke-miterlimit="10"/>
<path d="M151.122 163.91L146.531 166.249L151.069 168.343L151.755 173.285L155.343 169.609L160.339 170.33L158.017 165.933L160.427 161.447L155.414 162.415L151.896 158.932L151.122 163.91Z" fill="white"/>
<path d="M154.763 168.853C154.974 168.694 155.22 168.624 155.484 168.659L158.633 169.117L157.19 166.373C157.05 166.091 157.05 165.775 157.19 165.475L158.668 162.731L155.607 163.329C155.29 163.4 154.974 163.294 154.763 163.083L152.564 160.902L152.071 164.051C152.019 164.35 151.843 164.614 151.561 164.754L148.712 166.197L151.473 167.481C151.772 167.621 151.966 167.885 152.019 168.202L152.441 171.228L154.657 168.941C154.692 168.923 154.728 168.888 154.763 168.853ZM160.919 171.087C160.726 171.228 160.462 171.298 160.198 171.263L155.677 170.612L152.441 173.954C152.195 174.2 151.808 174.306 151.456 174.2C151.122 174.095 150.858 173.796 150.823 173.426L150.207 168.994L146.144 167.111C145.827 166.953 145.598 166.636 145.598 166.267C145.598 165.915 145.792 165.563 146.126 165.405L150.26 163.277L150.963 158.774C151.016 158.422 151.262 158.14 151.614 158.017C151.948 157.912 152.318 158 152.582 158.246L155.73 161.377L160.251 160.497C160.62 160.427 160.972 160.568 161.201 160.867C161.412 161.166 161.447 161.553 161.271 161.869L159.108 165.933L161.201 169.873C161.377 170.19 161.342 170.577 161.13 170.858C161.06 170.946 160.99 171.016 160.919 171.087Z" fill="white"/>
<path d="M315.644 38.1741L318.652 42.0967L323.753 41.8153L320.763 45.949L322.486 50.5928L317.614 49.2208L313.586 52.387L313.568 47.3914L309.346 44.7177L314.201 43.0114L315.644 38.1741Z" fill="white"/>
<path d="M317.156 48.3942C317.367 48.271 317.631 48.2359 317.895 48.3062L320.956 49.1681L319.883 46.2657C319.777 45.9667 319.813 45.6501 320.006 45.3862L321.818 42.8708L318.704 43.0467C318.388 43.0643 318.089 42.9236 317.895 42.6773L316.013 40.2147L315.098 43.2754C315.01 43.5744 314.799 43.8031 314.5 43.8911L311.492 44.9465L314.06 46.5824C314.324 46.7583 314.5 47.0573 314.5 47.3739L314.518 50.4171L317.033 48.4469C317.068 48.4469 317.104 48.4118 317.156 48.3942ZM322.961 51.4197C322.75 51.5428 322.486 51.578 322.24 51.5253L317.842 50.2763L314.184 53.1611C313.885 53.3722 313.498 53.425 313.181 53.2667C312.864 53.1084 312.653 52.7742 312.653 52.4048L312.636 47.9368L308.854 45.5269C308.537 45.3335 308.379 44.9817 308.414 44.6298C308.467 44.278 308.695 43.9614 309.047 43.8383L313.445 42.2903L314.746 37.9103C314.852 37.5761 315.134 37.3123 315.485 37.2419C315.837 37.1891 316.189 37.3123 316.418 37.5937L319.126 41.1294L323.718 40.8479C324.087 40.8303 324.421 41.0238 324.597 41.3405C324.773 41.6571 324.738 42.0617 324.527 42.3607L321.835 46.0898L323.383 50.2587C323.506 50.593 323.436 50.9799 323.19 51.2438C323.119 51.3142 323.032 51.3669 322.961 51.4197Z" fill="white"/>
<path d="M356.928 74.6389L358.423 79.3707L363.331 80.8131L359.109 83.6979L359.162 88.6408L355.046 85.7032L350.174 87.3215L351.845 82.6249L348.802 78.6671L353.938 78.7023L356.928 74.6389Z" fill="white"/>
<path d="M354.888 84.7711C355.151 84.7183 355.398 84.7886 355.609 84.9294L358.195 86.7764L358.159 83.6805C358.159 83.3638 358.318 83.0648 358.564 82.8889L361.132 81.1299L358.142 80.2503C357.843 80.1624 357.597 79.9337 357.509 79.6347L356.576 76.6795L354.694 79.2477C354.518 79.494 354.237 79.6347 353.92 79.6347L350.719 79.6171L352.583 82.027C352.777 82.2732 352.83 82.625 352.724 82.9241L351.704 85.7913L354.729 84.7887C354.8 84.7887 354.835 84.7711 354.888 84.7711ZM359.32 89.5732C359.074 89.626 358.81 89.5556 358.599 89.4149L354.888 86.7588L350.455 88.2188C350.121 88.3243 349.734 88.2364 349.487 87.9725C349.224 87.7086 349.153 87.3392 349.276 86.9874L350.771 82.7658L348.045 79.2125C347.816 78.9311 347.781 78.5441 347.939 78.2099C348.098 77.8932 348.432 77.6822 348.801 77.6822L353.463 77.7173L356.172 74.041C356.383 73.7595 356.735 73.6188 357.086 73.6716C357.438 73.7243 357.737 73.9882 357.843 74.3224L359.197 78.5617L363.612 79.8634C363.964 79.9689 364.228 80.2679 364.281 80.6198C364.334 80.9716 364.193 81.341 363.876 81.552L360.077 84.1554L360.112 88.6057C360.112 88.9576 359.918 89.2918 359.602 89.4501C359.514 89.538 359.426 89.5732 359.32 89.5732Z" fill="white"/>
</svg>
