<svg width="817" height="114" viewBox="0 0 817 114" fill="none" xmlns="http://www.w3.org/2000/svg">
<path d="M17.706 16.0693V96.4157H27.6749C33.2793 96.4157 36.6519 93.5391 36.6519 85.5045V26.9805C36.6519 18.9459 33.2793 16.0693 27.6749 16.0693H17.706V16.0693ZM0 0H27.9725C45.6785 0 54.3082 9.82012 54.3082 27.8237V84.711C54.3082 102.715 45.6289 112.485 27.9725 112.485H0V0Z" fill="#0057B7"/>
<path d="M83.2724 16.0693V50.6381H90.1663C96.7626 50.6381 100.78 47.7615 100.78 38.7349V27.6253C100.78 19.5906 98.0522 16.0693 91.803 16.0693H83.2724ZM102.565 112.485C101.574 109.608 100.978 107.823 100.978 98.6476V80.9912C100.978 70.5263 97.4074 66.7074 89.3728 66.7074H83.2724V112.485H65.5664V0H92.2494C110.551 0 118.436 8.53062 118.436 25.8894V34.7176C118.436 46.2736 114.766 53.8619 106.88 57.532C115.709 61.2022 118.585 69.7328 118.585 81.4872V98.846C118.585 104.302 118.734 108.319 120.519 112.485H102.565Z" fill="#0057B7"/>
<path d="M147.897 47.4143H172.15V63.4836H147.897V96.4157H178.399V112.485H130.191V0H178.399V16.0693H147.897V47.4143Z" fill="#0057B7"/>
<path d="M206.223 76.8251H223.235L214.704 19.9378L206.223 76.8251ZM246.545 112.485H228.69L225.615 92.1008H203.942L200.867 112.485H184.648L202.702 0H228.591L246.545 112.485Z" fill="#0057B7"/>
<path d="M292.224 79.8505L304.276 0H328.826V112.485H312.112V31.7914L299.911 112.485H283.197L270.005 32.9321V112.485H254.58V0H279.18L292.224 79.8505Z" fill="#0057B7"/>
<path d="M377.574 1.30591H432.313V17.4316H413.794V113.997H396.094V17.4316H377.574V1.30591Z" fill="#0057B7"/>
<path d="M457.761 113.997H440.061V1.30591H457.761V49.6199H477.855V1.30591H495.87V113.997H477.855V65.6826H457.761V113.997Z" fill="#0057B7"/>
<path d="M526.486 48.801H550.8V64.8637H526.486V97.8709H557.036V113.997H508.785V1.30591H557.036V17.4316H526.486V48.801Z" fill="#0057B7"/>
<path d="M585.697 17.4316V52.0136H592.626C599.24 52.0136 603.271 49.116 603.271 40.1083V29.0219C603.271 20.9591 600.562 17.4316 594.263 17.4316H585.697V17.4316ZM605.035 113.934C604.09 111.036 603.46 109.272 603.46 100.139V82.4382C603.46 71.9817 599.932 68.0763 591.87 68.0763H585.697V113.934H567.996V1.30591H594.704C613.035 1.30591 620.971 9.87267 620.971 27.1952V36.0769C620.971 47.6672 617.255 55.2261 609.381 58.9426C618.2 62.659 621.16 71.1628 621.16 82.9421V100.328C621.16 105.808 621.349 109.839 623.05 113.997H605.035V113.934Z" fill="#0057B7"/>
<path d="M649.631 78.2211H666.702L658.135 21.2773L649.631 78.2211ZM690.008 114H672.119L669.095 93.5908H647.364L644.277 114H628.025L646.041 1.37219H671.993L690.008 114Z" fill="#0057B7"/>
<path d="M715.96 17.4316V55.541H724.338C730.007 55.541 733.031 52.9584 733.031 44.9586V28.077C733.031 20.0142 729.944 17.4316 724.338 17.4316H715.96V17.4316ZM750.731 29.1479V43.8247C750.731 61.8401 742.038 71.6667 724.338 71.6667H715.96V113.997H698.26V1.30591H724.338C742.038 1.30591 750.731 11.1325 750.731 29.1479Z" fill="#0057B7"/>
<path d="M775.991 76.643L753.629 1.30591H772.148L785.628 52.6435L799.171 1.30591H816.053L793.691 76.643V113.934H775.991V76.643Z" fill="#0057B7"/>
</svg>
