<svg width="235" height="239" viewBox="0 0 235 239" fill="none" xmlns="http://www.w3.org/2000/svg">
<path d="M116.719 2.60767H114.987V21.1047H116.719V2.60767Z" fill="white"/>
<path d="M68.1204 33.3806L66.6116 34.2561L56.0871 15.9453L57.5959 15.0698L68.1204 33.3806Z" fill="white"/>
<path d="M16.1447 59.0582L15.2696 60.5747L31.2899 69.8195L32.165 68.303L16.1447 59.0582Z" fill="white"/>
<path d="M18.497 116.552H0V118.284H18.497V116.552Z" fill="white"/>
<path d="M30.7731 165.147L14.7529 174.392L15.6187 175.892L31.639 166.647L30.7731 165.147Z" fill="white"/>
<path d="M65.7001 201.101L53.9974 221.381L55.4978 222.246L67.2005 201.967L65.7001 201.101Z" fill="white"/>
<path d="M115.676 214.774H113.925V233.271H115.676V214.774Z" fill="white"/>
<path d="M164.053 201.612L162.537 202.487L171.782 218.507L173.298 217.632L164.053 201.612Z" fill="white"/>
<path d="M198.494 167.572L199.351 166.045L215.37 175.303L214.495 176.812L198.494 167.572Z" fill="white"/>
<path d="M230.645 117.595H212.148V119.346H230.645V117.595Z" fill="white"/>
<path d="M215.015 59.9881L198.995 69.2329L199.87 70.7494L215.89 61.5046L215.015 59.9881Z" fill="white"/>
<path d="M172.678 17.9021L163.433 33.9224L164.95 34.7975L174.195 18.7772L172.678 17.9021Z" fill="white"/>
<path d="M105.319 18.0873L104.518 18.1804L103.065 4.20984L103.848 4.1167L105.319 18.0873Z" fill="white"/>
<path d="M94.8507 19.7079L94.0684 19.8755L91.1439 6.14714L91.9262 5.97949L94.8507 19.7079Z" fill="white"/>
<path d="M80.2526 9.05068L79.4908 9.29834L83.8336 22.6552L84.5953 22.4075L80.2526 9.05068Z" fill="white"/>
<path d="M68.988 13.3322L68.2555 13.6562L73.9381 26.5005L74.6706 26.1764L68.988 13.3322Z" fill="white"/>
<path d="M48.0641 25.3199L47.416 25.7905L55.6689 37.1544L56.317 36.6837L48.0641 25.3199Z" fill="white"/>
<path d="M38.674 32.873L38.0775 33.4075L47.4497 43.8682L48.0463 43.3337L38.674 32.873Z" fill="white"/>
<path d="M30.1048 41.3801L29.5682 41.9749L39.9966 51.3836L40.5332 50.7889L30.1048 41.3801Z" fill="white"/>
<path d="M22.4805 50.7241L22.0081 51.3708L33.3495 59.6546L33.8219 59.0078L22.4805 50.7241Z" fill="white"/>
<path d="M10.3497 71.553L10.0234 72.2844L22.8493 78.0064L23.1756 77.2749L10.3497 71.553Z" fill="white"/>
<path d="M5.98539 82.8086L5.73773 83.5703L19.0946 87.913L19.3422 87.1513L5.98539 82.8086Z" fill="white"/>
<path d="M2.83028 94.4552L2.66272 95.2385L16.3974 98.1768L16.565 97.3935L2.83028 94.4552Z" fill="white"/>
<path d="M0.800964 107.163L14.7715 108.635L14.8647 107.852L0.894101 106.381L0.800964 107.163Z" fill="white"/>
<path d="M0.800964 130.485L0.875474 131.267L14.8647 129.796L14.7715 129.013L0.800964 130.485Z" fill="white"/>
<path d="M16.3763 139.481L2.64166 142.419L2.80922 143.202L16.5439 140.264L16.3763 139.481Z" fill="white"/>
<path d="M19.0947 149.735L5.73785 154.078L5.98552 154.84L19.3424 150.497L19.0947 149.735Z" fill="white"/>
<path d="M22.8435 159.638L10.0176 165.36L10.3439 166.091L23.1699 160.369L22.8435 159.638Z" fill="white"/>
<path d="M33.3617 178.004L33.8274 178.656L22.4646 186.908L21.999 186.274L33.3617 178.004Z" fill="white"/>
<path d="M39.9981 186.281L29.5696 195.689L30.1062 196.284L40.5347 186.875L39.9981 186.281Z" fill="white"/>
<path d="M47.4792 193.801L38.0704 204.229L38.6652 204.766L48.074 194.338L47.4792 193.801Z" fill="white"/>
<path d="M55.6611 200.505L47.4083 211.869L48.0563 212.34L56.3092 200.976L55.6611 200.505Z" fill="white"/>
<path d="M73.9695 211.16L74.6959 211.477L68.9773 224.311L68.2509 223.976L73.9695 211.16Z" fill="white"/>
<path d="M83.8354 214.983L79.4927 228.34L80.2544 228.588L84.5971 215.231L83.8354 214.983Z" fill="white"/>
<path d="M94.0815 217.774L91.1433 231.508L91.9266 231.676L94.8648 217.941L94.0815 217.774Z" fill="white"/>
<path d="M104.547 219.477L103.036 233.441L103.832 233.527L105.344 219.563L104.547 219.477Z" fill="white"/>
<path d="M125.698 219.561L126.48 219.468L127.952 233.439L127.151 233.532L125.698 219.561Z" fill="white"/>
<path d="M136.943 217.777L136.16 217.944L139.098 231.679L139.881 231.511L136.943 217.777Z" fill="white"/>
<path d="M147.167 214.995L146.406 215.242L150.748 228.599L151.51 228.352L147.167 214.995Z" fill="white"/>
<path d="M157.028 211.161L156.297 211.488L162.018 224.314L162.75 223.987L157.028 211.161Z" fill="white"/>
<path d="M174.688 200.971L175.34 200.487L183.592 211.868L182.94 212.334L174.688 200.971Z" fill="white"/>
<path d="M183.542 193.8L182.947 194.336L192.356 204.765L192.95 204.228L183.542 193.8Z" fill="white"/>
<path d="M191.029 186.262L190.492 186.857L200.921 196.266L201.457 195.671L191.029 186.262Z" fill="white"/>
<path d="M197.648 177.98L197.175 178.626L208.517 186.91L208.989 186.263L197.648 177.98Z" fill="white"/>
<path d="M208.147 159.633L207.82 160.365L220.646 166.087L220.973 165.355L208.147 159.633Z" fill="white"/>
<path d="M211.918 149.73L211.671 150.492L225.028 154.834L225.275 154.073L211.918 149.73Z" fill="white"/>
<path d="M214.457 140.264L214.625 139.482L228.353 142.406L228.186 143.189L214.457 140.264Z" fill="white"/>
<path d="M216.231 128.978L216.145 129.774L230.109 131.286L230.195 130.489L216.231 128.978Z" fill="white"/>
<path d="M230.113 106.36L216.15 107.871L216.236 108.668L230.2 107.156L230.113 106.36Z" fill="white"/>
<path d="M214.606 98.1663L214.457 97.384L228.186 94.4595L228.353 95.2418L214.606 98.1663Z" fill="white"/>
<path d="M225.021 82.8291L211.664 87.1719L211.912 87.9336L225.269 83.5909L225.021 82.8291Z" fill="white"/>
<path d="M220.646 71.5822L207.82 77.3042L208.147 78.0357L220.973 72.3137L220.646 71.5822Z" fill="white"/>
<path d="M203.374 68.5487L202.983 67.8594L215.147 60.8369L215.538 61.5261L203.374 68.5487Z" fill="white"/>
<path d="M208.527 50.7077L197.186 58.9929L197.658 59.6397L208.999 51.3545L208.527 50.7077Z" fill="white"/>
<path d="M200.921 41.3849L190.493 50.7937L191.029 51.3884L201.458 41.9796L200.921 41.3849Z" fill="white"/>
<path d="M183.536 43.8487L182.958 43.3272L192.347 32.8772L192.943 33.4174L183.536 43.8487Z" fill="white"/>
<path d="M182.947 25.328L174.663 36.6694L175.31 37.1419L183.594 25.8005L182.947 25.328Z" fill="white"/>
<path d="M162.03 13.335L156.334 26.1736L157.067 26.4984L162.762 13.6598L162.03 13.335Z" fill="white"/>
<path d="M150.757 9.0533L146.414 22.4102L147.176 22.6578L151.519 9.30096L150.757 9.0533Z" fill="white"/>
<path d="M136.949 19.8755L136.166 19.7079L139.091 5.97949L139.855 6.12851L136.949 19.8755Z" fill="white"/>
<path d="M127.174 4.12941L125.663 18.093L126.459 18.1792L127.97 4.2156L127.174 4.12941Z" fill="white"/>
<path d="M115.508 238.412C93.9938 238.412 72.9076 232.619 54.5223 221.648L58.4155 215.128C75.6086 225.392 95.3536 230.812 115.508 230.812C177.053 230.812 227.124 180.742 227.124 119.215C227.124 57.6705 177.053 7.59998 115.508 7.59998C95.5213 7.59998 76.8007 12.6108 59.9057 22.4647L56.087 15.9078C74.1556 5.34607 94.1428 0 115.508 0C181.226 0 234.705 53.4793 234.705 119.215C234.705 184.933 181.226 238.412 115.508 238.412Z" fill="white"/>
<path d="M57.5959 80.5448V110.721H61.34C63.4449 110.721 64.7116 109.641 64.7116 106.623V84.6428C64.7116 81.6252 63.4449 80.5448 61.34 80.5448H57.5959ZM50.9459 74.5095H61.4518C68.1018 74.5095 71.3429 78.1977 71.3429 84.9595V106.325C71.3429 113.087 68.0831 116.756 61.4518 116.756H50.9459V74.5095Z" fill="white"/>
<path d="M82.2214 80.5448V93.5281H84.8106C87.2881 93.5281 88.7969 92.4477 88.7969 89.0575V84.885C88.7969 81.8673 87.7724 80.5448 85.4253 80.5448H82.2214ZM89.4675 116.756C89.0949 115.676 88.8714 115.006 88.8714 111.559V104.928C88.8714 100.998 87.5302 99.5634 84.5126 99.5634H82.2214V116.756H75.5714V74.5095H85.593C92.4665 74.5095 95.4282 77.7134 95.4282 84.233V87.5487C95.4282 91.8889 94.0498 94.7389 91.088 96.1173C94.4037 97.4957 95.4841 100.7 95.4841 105.114V111.634C95.4841 113.683 95.54 115.192 96.2106 116.756H89.4675Z" fill="white"/>
<path d="M106.493 92.3173H115.602V98.3526H106.493V110.721H117.949V116.756H99.8429V74.5095H117.949V80.5448H106.493V92.3173Z" fill="white"/>
<path d="M128.399 103.363H134.788L131.584 81.9977L128.399 103.363ZM143.543 116.756H136.837L135.682 109.101H127.542L126.387 116.756H120.296L127.076 74.5095H136.8L143.543 116.756Z" fill="white"/>
<path d="M160.699 104.5L165.225 74.5095H174.446V116.756H168.168V86.4497L163.586 116.756H157.308L152.354 86.8781V116.756H146.56V74.5095H155.8L160.699 104.5Z" fill="white"/>
<path d="M48.9156 125.437H65.1028V130.205H59.6263V158.761H54.392V130.205H48.9156V125.437Z" fill="white"/>
<path d="M72.6282 158.761H67.3939V125.437H72.6282V139.724H78.5704V125.437H83.8978V158.761H78.5704V144.474H72.6282V158.761Z" fill="white"/>
<path d="M92.9508 139.482H100.141V144.232H92.9508V153.992H101.985V158.761H87.7165V125.437H101.985V130.205H92.9508V139.482Z" fill="white"/>
<path d="M110.46 130.205V140.432H112.51C114.465 140.432 115.658 139.575 115.658 136.911V133.633C115.658 131.248 114.857 130.205 112.994 130.205H110.46ZM116.179 158.742C115.9 157.885 115.713 157.364 115.713 154.663V149.429C115.713 146.336 114.67 145.182 112.286 145.182H110.46V158.742H105.226V125.437H113.124C118.545 125.437 120.892 127.97 120.892 133.092V135.719C120.892 139.146 119.793 141.382 117.464 142.481C120.072 143.58 120.948 146.094 120.948 149.578V154.719C120.948 156.339 121.004 157.532 121.507 158.761H116.179V158.742Z" fill="white"/>
<path d="M129.367 148.181H134.415L131.882 131.342L129.367 148.181ZM141.308 158.762H136.017L135.123 152.726H128.697L127.784 158.762H122.978L128.306 125.456H135.98L141.308 158.762Z" fill="white"/>
<path d="M148.982 130.205V141.475H151.459C153.136 141.475 154.03 140.711 154.03 138.345V133.353C154.03 130.969 153.117 130.205 151.459 130.205H148.982ZM159.264 133.67V138.01C159.264 143.337 156.694 146.243 151.459 146.243H148.982V158.761H143.748V125.437H151.459C156.694 125.437 159.264 128.342 159.264 133.67Z" fill="white"/>
<path d="M166.734 147.715L160.121 125.437H165.598L169.584 140.618L173.589 125.437H178.581L171.968 147.715V158.742H166.734V147.715Z" fill="white"/>
</svg>
