<svg width="665" height="489" viewBox="0 0 665 489" fill="none" xmlns="http://www.w3.org/2000/svg">
<g opacity="0.52">
<path opacity="0.52" d="M472.806 455.567C472.847 455.649 472.888 455.689 472.969 455.73L553.452 481.227C553.574 481.268 553.737 481.186 553.778 481.064C553.818 480.942 553.737 480.779 553.615 480.738L473.132 455.241C473.01 455.201 472.847 455.282 472.806 455.404C472.806 455.445 472.806 455.526 472.806 455.567Z" fill="#0068D9"/>
</g>
<g opacity="0.63">
<path opacity="0.63" d="M496.145 154.614C496.226 154.777 496.43 154.899 496.633 154.817L538.748 138.933C538.952 138.851 539.033 138.648 538.952 138.444C538.952 138.444 538.952 138.444 538.952 138.403C538.87 138.24 538.667 138.118 538.463 138.2L496.348 154.084C496.185 154.206 496.063 154.41 496.145 154.614Z" fill="#0068D9"/>
</g>
<path opacity="0.82" d="M556.724 479.49C555.888 477.664 553.739 476.83 551.869 477.664C550.038 478.498 549.202 480.642 550.038 482.508C550.874 484.334 553.023 485.168 554.893 484.334C556.724 483.5 557.52 481.356 556.724 479.49Z" fill="#0068D9"/>
<path opacity="0.83" d="M476.202 454.281C475.368 452.455 473.224 451.621 471.358 452.455C469.532 453.289 468.698 455.433 469.532 457.299C470.366 459.125 472.51 459.959 474.376 459.125C476.202 458.292 477.036 456.108 476.202 454.281Z" fill="#0068D9"/>
<path opacity="0.89" d="M499.777 152.833C498.94 150.801 496.808 149.87 494.943 150.801C493.116 151.733 492.278 154.103 493.116 156.177C493.953 158.209 496.085 159.14 497.95 158.209C499.815 157.278 500.615 154.907 499.777 152.833Z" fill="#0068D9"/>
<path opacity="0.93" d="M542.045 136.578C541.141 134.525 538.719 133.622 536.665 134.525C534.612 135.429 533.709 137.851 534.612 139.904C535.516 141.958 537.938 142.861 539.992 141.958C542.045 141.013 542.948 138.632 542.045 136.578Z" fill="#0068D9"/>
<g opacity="0.36">
<path opacity="0.36" d="M65.3837 118.73C65.343 118.649 65.3022 118.608 65.2208 118.608L5.83645 119.3C5.71426 119.3 5.63279 119.382 5.63279 119.504C5.63279 119.626 5.71426 119.708 5.83645 119.708L65.2208 119.015C65.343 119.015 65.4244 118.934 65.4244 118.812C65.3837 118.771 65.3837 118.73 65.3837 118.73Z" fill="#0068D9"/>
</g>
<g opacity="0.35">
<path opacity="0.35" d="M48.888 68.9176C48.888 68.8769 48.8473 68.8769 48.8473 68.8362C48.7659 68.7547 48.6436 68.7954 48.5622 68.8769L5.63276 119.341C5.5513 119.423 5.59201 119.545 5.67347 119.626C5.75493 119.708 5.87715 119.667 5.95861 119.586L48.888 69.1213C48.888 69.0805 48.9288 68.9991 48.888 68.9176Z" fill="#0068D9"/>
</g>
<g opacity="0.45">
<path opacity="0.45" d="M49.0103 68.8766C48.9288 68.7137 48.7659 68.6322 48.603 68.673C48.4401 68.7137 48.3179 68.9174 48.3993 69.0803L64.895 118.852C64.9765 119.056 65.1394 119.137 65.3023 119.056C65.4652 119.015 65.5874 118.812 65.5059 118.649L49.0103 68.8766C49.0103 68.9174 49.0103 68.8766 49.0103 68.8766Z" fill="#0068D9"/>
</g>
<g opacity="0.35">
<path opacity="0.35" d="M290.662 424.327C290.662 424.287 290.662 424.287 290.662 424.327C290.58 424.205 290.458 424.164 290.336 424.205L269.971 434.591C269.849 434.632 269.808 434.795 269.849 434.917C269.93 435.039 270.052 435.08 270.175 435.039L290.54 424.653C290.662 424.572 290.703 424.409 290.662 424.327Z" fill="#0068D9"/>
</g>
<g opacity="0.42">
<path opacity="0.42" d="M156.782 236.359C156.741 236.318 156.7 236.237 156.66 236.237L140.531 227.48C140.368 227.398 140.205 227.439 140.123 227.602C140.042 227.765 140.083 227.928 140.246 228.009L156.375 236.766C156.538 236.848 156.7 236.807 156.782 236.644C156.823 236.562 156.823 236.44 156.782 236.359Z" fill="#0068D9"/>
</g>
<g opacity="0.35">
<path opacity="0.35" d="M231.726 313.746C231.726 313.746 231.726 313.706 231.685 313.706L156.579 236.4C156.538 236.319 156.416 236.319 156.334 236.4C156.294 236.441 156.253 236.563 156.334 236.644L231.44 313.95C231.481 314.031 231.603 314.031 231.685 313.95C231.766 313.868 231.766 313.828 231.726 313.746Z" fill="#0068D9"/>
</g>
<g opacity="0.47">
<path opacity="0.47" d="M479.038 31.5677C478.997 31.4863 478.957 31.4456 478.875 31.4456C478.753 31.4456 478.672 31.527 478.672 31.6085L470.078 153.921C470.078 154.043 470.159 154.124 470.24 154.124C470.363 154.124 470.444 154.043 470.444 153.961L479.079 31.6492C479.079 31.6085 479.079 31.5677 479.038 31.5677Z" fill="#0068D9"/>
</g>
<g opacity="0.58">
<path opacity="0.58" d="M479.16 31.4866C479.119 31.3644 478.957 31.283 478.834 31.283L409.96 40.1621C409.797 40.2028 409.675 40.3658 409.675 40.5287C409.675 40.6916 409.838 40.8138 410.041 40.8138L478.916 31.9346C479.079 31.8939 479.201 31.7717 479.201 31.5681C479.201 31.5681 479.16 31.5273 479.16 31.4866Z" fill="#0068D9"/>
</g>
<g opacity="0.47">
<path opacity="0.47" d="M470.444 153.88L410.164 40.4473C410.123 40.3658 410.001 40.3251 409.919 40.3658C409.838 40.4066 409.797 40.5288 409.838 40.6102L470.077 154.043C470.118 154.125 470.24 154.166 470.322 154.125C470.444 154.084 470.485 153.962 470.444 153.88Z" fill="#0068D9"/>
</g>
<g opacity="0.47">
<path opacity="0.47" d="M410.204 40.447C410.163 40.4063 410.163 40.3656 410.082 40.3248C410.001 40.2841 409.878 40.3248 409.838 40.447L368.212 154.491C368.171 154.613 368.212 154.695 368.334 154.735C368.415 154.776 368.537 154.735 368.578 154.613L410.204 40.5692C410.204 40.5285 410.204 40.4878 410.204 40.447Z" fill="#0068D9"/>
</g>
<g opacity="0.48">
<path opacity="0.48" d="M470.444 153.88C470.403 153.799 470.322 153.758 470.24 153.758L368.334 154.369C368.212 154.369 368.13 154.45 368.13 154.573C368.13 154.695 368.212 154.776 368.334 154.776L470.2 154.165C470.322 154.165 470.403 154.084 470.403 153.962C470.485 153.921 470.485 153.88 470.444 153.88Z" fill="#0068D9"/>
</g>
<g opacity="0.51">
<path opacity="0.51" d="M429.714 221.411C429.714 221.37 429.673 221.37 429.673 221.329L368.578 154.369C368.497 154.288 368.334 154.247 368.212 154.369C368.09 154.451 368.09 154.613 368.212 154.736L429.307 221.696C429.388 221.818 429.551 221.818 429.673 221.696C429.714 221.614 429.755 221.492 429.714 221.411Z" fill="#0068D9"/>
</g>
<g opacity="0.54">
<path opacity="0.54" d="M368.619 154.451C368.578 154.328 368.415 154.247 368.252 154.288C368.089 154.328 368.049 154.491 368.089 154.654L394.971 229.72C395.053 229.923 395.175 229.923 395.338 229.883C395.501 229.842 395.541 229.679 395.501 229.516L368.619 154.451C368.66 154.451 368.66 154.451 368.619 154.451Z" fill="#0068D9"/>
</g>
<g opacity="0.52">
<path opacity="0.52" d="M368.619 154.45C368.619 154.45 368.619 154.41 368.578 154.41C368.497 154.288 368.334 154.288 368.212 154.369L306.75 200.923C306.628 201.005 306.628 201.168 306.709 201.29C306.791 201.412 306.954 201.412 307.076 201.331L368.538 154.776C368.66 154.695 368.66 154.532 368.619 154.45Z" fill="#0068D9"/>
</g>
<g opacity="0.45">
<path opacity="0.45" d="M567.544 233.997C567.504 233.915 567.422 233.875 567.341 233.875L521.723 237.744C521.601 237.744 521.519 237.866 521.56 237.948C521.56 238.07 521.682 238.151 521.764 238.11L567.381 234.241C567.504 234.241 567.585 234.119 567.544 234.037V233.997Z" fill="#0068D9"/>
</g>
<g opacity="0.42">
<path opacity="0.42" d="M521.886 237.866C521.886 237.825 521.886 237.825 521.886 237.866L470.403 153.881C470.363 153.799 470.24 153.758 470.159 153.84C470.078 153.881 470.078 154.003 470.118 154.084L521.56 238.029C521.601 238.11 521.723 238.151 521.805 238.069C521.886 238.029 521.927 237.907 521.886 237.866Z" fill="#0068D9"/>
</g>
<g opacity="0.44">
<path opacity="0.44" d="M521.927 237.825C521.886 237.784 521.845 237.744 521.804 237.703L429.551 221.289C429.429 221.289 429.347 221.329 429.306 221.451C429.306 221.574 429.347 221.655 429.469 221.696L521.723 238.11C521.845 238.11 521.927 238.069 521.967 237.947C521.927 237.906 521.927 237.866 521.927 237.825Z" fill="#0068D9"/>
</g>
<g opacity="0.46">
<path opacity="0.46" d="M567.544 233.996C567.544 233.956 567.504 233.956 567.504 233.915L470.403 153.799C470.322 153.718 470.2 153.758 470.118 153.84C470.037 153.921 470.077 154.043 470.159 154.125L567.219 234.2C567.3 234.282 567.422 234.241 567.504 234.159C567.544 234.119 567.544 234.037 567.544 233.996Z" fill="#0068D9"/>
</g>
<g opacity="0.5">
<path opacity="0.5" d="M494.597 163.167C494.556 163.086 494.515 163.045 494.475 163.045L470.363 153.758C470.24 153.718 470.118 153.758 470.077 153.881C470.037 154.003 470.077 154.125 470.2 154.166L494.312 163.452C494.434 163.493 494.556 163.452 494.597 163.33C494.638 163.249 494.638 163.208 494.597 163.167Z" fill="#0068D9"/>
</g>
<g opacity="0.56">
<path opacity="0.56" d="M470.525 153.839C470.485 153.799 470.444 153.717 470.403 153.717C470.24 153.636 470.077 153.677 469.996 153.839L429.225 221.411C429.144 221.533 429.184 221.736 429.347 221.818C429.51 221.899 429.673 221.859 429.755 221.696L470.525 154.125C470.566 154.002 470.566 153.921 470.525 153.839Z" fill="#0068D9"/>
</g>
<g opacity="0.5">
<path opacity="0.5" d="M470.444 153.88C470.444 153.839 470.403 153.839 470.403 153.799C470.322 153.717 470.2 153.717 470.118 153.799L395.093 229.434C395.012 229.516 395.012 229.679 395.093 229.719C395.175 229.801 395.297 229.801 395.379 229.719L470.403 154.124C470.485 154.043 470.485 153.962 470.444 153.88Z" fill="#0068D9"/>
</g>
<g opacity="0.58">
<path opacity="0.58" d="M167.983 166.099C167.942 166.018 167.901 165.977 167.82 165.936L83.4271 128.913C83.2642 128.831 83.1013 128.913 83.0605 129.076C82.9791 129.198 83.0606 129.402 83.2235 129.442L167.616 166.466C167.779 166.547 167.942 166.466 167.983 166.303C168.023 166.262 168.023 166.181 167.983 166.099Z" fill="#0068D9"/>
</g>
<g opacity="0.52">
<path opacity="0.52" d="M83.5496 129.075C83.5088 129.035 83.4681 128.994 83.4274 128.953L11.824 99.3017C11.7018 99.2609 11.5796 99.3016 11.5389 99.4238C11.4982 99.546 11.5389 99.6682 11.6611 99.709L83.2645 129.36C83.3867 129.401 83.5088 129.36 83.5496 129.238C83.5496 129.197 83.5496 129.157 83.5496 129.075Z" fill="#0068D9"/>
</g>
<g opacity="0.47">
<path opacity="0.47" d="M429.673 221.452C429.632 221.411 429.592 221.37 429.51 221.329L306.954 200.964C306.831 200.964 306.75 201.005 306.709 201.127C306.709 201.209 306.75 201.331 306.872 201.372L429.429 221.737C429.551 221.737 429.632 221.696 429.673 221.574C429.673 221.492 429.673 221.492 429.673 221.452Z" fill="#0068D9"/>
</g>
<g opacity="0.52">
<path opacity="0.52" d="M395.46 229.475C395.419 229.394 395.379 229.353 395.297 229.353L306.994 200.883C306.872 200.842 306.709 200.923 306.669 201.046C306.628 201.168 306.709 201.331 306.831 201.371L395.175 229.842C395.297 229.882 395.46 229.801 395.501 229.679C395.501 229.597 395.501 229.557 395.46 229.475Z" fill="#0068D9"/>
</g>
<g opacity="0.67">
<path opacity="0.67" d="M429.999 221.289C429.877 221.044 429.592 220.881 429.347 220.963L395.134 229.027C394.808 229.109 394.645 229.435 394.686 229.72C394.768 230.046 395.093 230.249 395.378 230.168L429.592 222.103C429.918 222.022 430.08 221.696 430.04 221.411C430.04 221.329 430.04 221.329 429.999 221.289Z" fill="#0068D9"/>
</g>
<g opacity="0.45">
<path opacity="0.45" d="M567.504 233.997C567.463 233.915 567.422 233.875 567.341 233.875C567.259 233.875 567.178 233.956 567.178 234.038L567.3 319.041C567.3 319.123 567.381 319.204 567.463 319.204C567.544 319.204 567.626 319.123 567.626 319.041L567.504 234.038C567.544 234.038 567.544 234.038 567.504 233.997Z" fill="#0068D9"/>
</g>
<g opacity="0.46">
<path opacity="0.46" d="M567.544 233.996C567.544 233.956 567.504 233.956 567.504 233.956L494.515 163.085C494.434 163.004 494.312 163.004 494.23 163.085C494.149 163.167 494.149 163.289 494.23 163.37L567.219 234.2C567.3 234.281 567.422 234.281 567.504 234.2C567.544 234.159 567.585 234.078 567.544 233.996Z" fill="#0068D9"/>
</g>
<g opacity="0.51">
<path opacity="0.51" d="M567.667 318.958C567.667 318.958 567.667 318.918 567.626 318.918L531.376 271.671C531.295 271.589 531.172 271.549 531.091 271.63C531.01 271.712 530.969 271.834 531.05 271.915L567.3 319.162C567.381 319.243 567.504 319.284 567.585 319.203C567.707 319.162 567.707 319.04 567.667 318.958Z" fill="#0068D9"/>
</g>
<g opacity="0.53">
<path opacity="0.53" d="M531.417 271.753C531.417 271.712 531.417 271.712 531.417 271.753L448.246 159.868C448.165 159.786 448.042 159.745 447.961 159.827C447.879 159.908 447.839 160.031 447.92 160.112L531.091 271.916C531.172 271.997 531.295 272.038 531.376 271.957C531.417 271.916 531.457 271.834 531.417 271.753Z" fill="#0068D9"/>
</g>
<g opacity="0.58">
<path opacity="0.58" d="M448.328 159.868C448.287 159.827 448.246 159.786 448.205 159.745C448.083 159.705 447.92 159.746 447.88 159.868L403.525 256.887C403.484 257.009 403.525 257.172 403.647 257.212C403.769 257.253 403.932 257.212 403.973 257.09L448.328 160.071C448.328 159.99 448.328 159.908 448.328 159.868Z" fill="#0068D9"/>
</g>
<g opacity="0.62">
<path opacity="0.62" d="M590.638 80.9328C590.638 80.8921 590.638 80.8921 590.638 80.9328L547.261 13.8912C547.179 13.769 546.976 13.7283 546.853 13.8097C546.731 13.8912 546.65 14.0948 546.772 14.217L590.109 81.2179C590.19 81.3401 590.394 81.3808 590.516 81.2994C590.679 81.2179 590.72 81.055 590.638 80.9328Z" fill="#0068D9"/>
</g>
<g opacity="0.81">
<path opacity="0.81" d="M39.846 135.715C39.7645 135.552 39.6423 135.43 39.4794 135.348L4.61453 121.541C4.24797 121.378 3.84062 121.581 3.6777 121.948C3.55551 122.315 3.71845 122.722 4.08502 122.885L38.9499 136.692C39.3165 136.855 39.7238 136.652 39.8867 136.285C39.9274 136.081 39.9274 135.878 39.846 135.715Z" fill="#0068D9"/>
</g>
<g opacity="0.56">
<path opacity="0.56" d="M531.458 271.712C531.417 271.631 531.376 271.59 531.254 271.59L403.769 256.764C403.647 256.764 403.525 256.846 403.525 256.968C403.525 257.09 403.606 257.212 403.728 257.212L531.213 272.038C531.335 272.038 531.458 271.957 531.458 271.835C531.458 271.794 531.458 271.753 531.458 271.712Z" fill="#0068D9"/>
</g>
<g opacity="0.56">
<path opacity="0.56" d="M213.804 88.6717C213.804 88.6309 213.763 88.5902 213.722 88.5495L176.984 63.8671C176.862 63.7856 176.699 63.8264 176.658 63.9485C176.577 64.0707 176.617 64.1929 176.74 64.2744L213.478 88.9568C213.6 89.0382 213.763 88.9975 213.804 88.8753C213.845 88.8346 213.845 88.7531 213.804 88.6717Z" fill="#0068D9"/>
</g>
<g opacity="0.62">
<path opacity="0.62" d="M213.845 88.6714C213.804 88.5899 213.722 88.5492 213.641 88.5085L191.973 82.5619C191.81 82.5212 191.647 82.6026 191.606 82.7655C191.565 82.9285 191.647 83.0914 191.81 83.1321L213.478 89.0787C213.641 89.1194 213.804 89.038 213.845 88.8751C213.885 88.7936 213.885 88.7121 213.845 88.6714Z" fill="#0068D9"/>
</g>
<g opacity="0.55">
<path opacity="0.55" d="M277.302 222.022L213.804 88.6719C213.763 88.5497 213.6 88.509 213.478 88.5497C213.356 88.5904 213.315 88.7534 213.356 88.8348L276.854 222.226C276.895 222.348 277.058 222.389 277.18 222.348C277.302 222.307 277.343 222.144 277.302 222.022Z" fill="#0068D9"/>
</g>
<g opacity="0.54">
<path opacity="0.54" d="M277.302 222.022C277.221 221.9 277.099 221.859 276.976 221.9L213.275 253.18C213.152 253.221 213.112 253.384 213.152 253.465C213.193 253.588 213.356 253.628 213.478 253.588L277.18 222.307C277.302 222.307 277.343 222.144 277.302 222.022Z" fill="#0068D9"/>
</g>
<g opacity="0.53">
<path opacity="0.53" d="M192.136 82.7251C192.095 82.6436 192.013 82.5621 191.891 82.6029C191.769 82.6029 191.688 82.7251 191.688 82.8473L213.152 253.465C213.152 253.587 213.274 253.669 213.397 253.669C213.519 253.669 213.6 253.547 213.6 253.425L192.136 82.8065C192.136 82.7658 192.136 82.7658 192.136 82.7251Z" fill="#0068D9"/>
</g>
<g opacity="0.84">
<path opacity="0.84" d="M192.747 82.44C192.706 82.3585 192.665 82.3178 192.624 82.2364L177.554 63.5006C177.228 63.0933 176.658 63.0525 176.251 63.3784C175.844 63.7042 175.803 64.2744 176.088 64.6817L191.158 83.4175C191.484 83.8248 192.054 83.8656 192.461 83.5397C192.828 83.2953 192.909 82.8066 192.747 82.44Z" fill="#0068D9"/>
</g>
<g opacity="0.53">
<path opacity="0.53" d="M660.205 460.211C660.165 460.17 660.165 460.129 660.083 460.089L564.327 417.241C564.205 417.2 564.082 417.241 564.042 417.363C564.001 417.485 564.042 417.607 564.164 417.648L659.92 460.496C660.042 460.537 660.165 460.496 660.205 460.374C660.246 460.333 660.246 460.252 660.205 460.211Z" fill="#0068D9"/>
</g>
<g opacity="0.6">
<path opacity="0.6" d="M561.924 307.758C561.883 307.677 561.761 307.595 561.638 307.595C561.476 307.595 561.353 307.718 561.353 307.881L563.96 417.404C563.96 417.567 564.082 417.689 564.245 417.689C564.408 417.689 564.53 417.567 564.53 417.404L561.924 307.881C561.964 307.84 561.964 307.799 561.924 307.758Z" fill="#0068D9"/>
</g>
<g opacity="0.61">
<path opacity="0.61" d="M272.944 235.87C272.904 235.748 272.741 235.666 272.578 235.707L213.275 253.139C213.112 253.18 213.03 253.343 213.071 253.506C213.112 253.669 213.275 253.75 213.438 253.71L272.741 236.277C272.944 236.236 273.026 236.073 272.944 235.87C272.985 235.87 272.985 235.87 272.944 235.87Z" fill="#0068D9"/>
</g>
<g opacity="0.69">
<path opacity="0.69" d="M213.763 253.262C213.723 253.139 213.601 253.017 213.438 253.017L153.32 244.342C153.076 244.301 152.872 244.464 152.831 244.708C152.791 244.953 152.954 245.156 153.198 245.197L213.315 253.832C213.56 253.873 213.763 253.71 213.804 253.465C213.804 253.384 213.804 253.302 213.763 253.262Z" fill="#0068D9"/>
</g>
<g opacity="0.55">
<path opacity="0.55" d="M352.368 264.666C352.327 264.585 352.246 264.544 352.164 264.504L213.397 253.14C213.275 253.14 213.153 253.221 213.112 253.384C213.112 253.506 213.193 253.629 213.356 253.669L352.123 265.033C352.246 265.033 352.368 264.952 352.409 264.789C352.368 264.748 352.368 264.707 352.368 264.666Z" fill="#0068D9"/>
</g>
<g opacity="0.53">
<path opacity="0.53" d="M411.385 303.767C411.385 303.726 411.345 303.686 411.304 303.686L352.286 264.626C352.164 264.544 352.042 264.585 351.96 264.707C351.879 264.829 351.92 264.951 352.042 265.033L411.019 304.052C411.141 304.134 411.263 304.093 411.345 303.971C411.386 303.93 411.385 303.849 411.385 303.767Z" fill="#0068D9"/>
</g>
<g opacity="0.54">
<path opacity="0.54" d="M352.327 264.707C352.286 264.626 352.246 264.585 352.164 264.585C352.042 264.585 351.92 264.667 351.92 264.789L327.726 421.518C327.685 421.64 327.808 421.762 327.93 421.762C328.052 421.762 328.174 421.681 328.174 421.559L352.368 264.83C352.368 264.789 352.368 264.748 352.327 264.707Z" fill="#0068D9"/>
</g>
<g opacity="0.59">
<path opacity="0.59" d="M434.154 369.22L434.113 369.179L352.368 264.625C352.286 264.503 352.083 264.462 351.96 264.585C351.838 264.666 351.838 264.829 351.92 264.992L433.665 369.546C433.746 369.668 433.95 369.668 434.072 369.587C434.194 369.505 434.235 369.342 434.154 369.22Z" fill="#0068D9"/>
</g>
<g opacity="0.67">
<path opacity="0.67" d="M352.49 264.625C352.449 264.544 352.368 264.462 352.245 264.421L272.781 235.625C272.578 235.544 272.333 235.666 272.252 235.87C272.17 236.073 272.292 236.318 272.496 236.399L351.96 265.195C352.164 265.277 352.408 265.155 352.49 264.951C352.571 264.829 352.531 264.707 352.49 264.625Z" fill="#0068D9"/>
</g>
<g opacity="0.58">
<path opacity="0.58" d="M334.568 69.3246C334.568 69.2838 334.568 69.2838 334.568 69.3246L295.183 5.2155C295.101 5.05257 294.897 5.01184 294.775 5.13404C294.612 5.2155 294.572 5.41915 294.694 5.54134L334.039 69.6097C334.12 69.7726 334.324 69.8133 334.446 69.6911C334.568 69.6097 334.609 69.4467 334.568 69.3246Z" fill="#0068D9"/>
</g>
<g opacity="0.58">
<path opacity="0.58" d="M295.224 5.25628C295.183 5.13409 295.061 5.05263 294.898 5.09336C294.735 5.09336 294.613 5.25628 294.613 5.4192L310.009 155.794C310.009 155.957 310.171 156.08 310.334 156.08C310.497 156.08 310.62 155.917 310.62 155.754L295.224 5.37847C295.224 5.33774 295.224 5.29701 295.224 5.25628Z" fill="#0068D9"/>
</g>
<g opacity="0.74">
<path opacity="0.74" d="M369.759 6.6412C369.678 6.43755 369.474 6.31536 369.23 6.31536L294.938 4.80835C294.612 4.80835 294.368 5.05273 294.327 5.37857C294.327 5.70441 294.572 5.98952 294.898 5.98952L369.23 7.4558C369.556 7.4558 369.841 7.21142 369.841 6.88558C369.841 6.80412 369.8 6.72266 369.759 6.6412Z" fill="#0068D9"/>
</g>
<g opacity="0.59">
<path opacity="0.59" d="M369.556 6.72245C369.515 6.68172 369.474 6.60026 369.433 6.55953C369.271 6.47807 369.067 6.5188 368.985 6.68172L334.039 69.243C333.958 69.4059 333.998 69.6096 334.161 69.6911C334.324 69.7725 334.528 69.7318 334.609 69.5689L369.515 7.00756C369.556 6.9261 369.556 6.84464 369.556 6.72245Z" fill="#0068D9"/>
</g>
<g opacity="0.57">
<path opacity="0.57" d="M369.515 6.76355C369.474 6.68209 369.434 6.64136 369.352 6.60063C369.189 6.5599 369.026 6.60063 368.985 6.76355L310.049 155.632C310.008 155.795 310.049 155.958 310.212 155.998C310.375 156.039 310.538 155.998 310.579 155.835L369.515 6.9672C369.556 6.88574 369.515 6.80428 369.515 6.76355Z" fill="#0068D9"/>
</g>
<g opacity="0.6">
<path opacity="0.6" d="M272.944 235.87C272.904 235.748 272.781 235.666 272.659 235.707L153.239 244.505C153.076 244.505 152.954 244.667 152.954 244.83C152.954 244.993 153.116 245.116 153.279 245.116L272.7 236.318C272.863 236.318 272.985 236.155 272.985 235.992C272.985 235.911 272.985 235.911 272.944 235.87Z" fill="#0068D9"/>
</g>
<g opacity="0.53">
<path opacity="0.53" d="M272.903 235.91C272.863 235.829 272.781 235.788 272.7 235.788C272.578 235.788 272.455 235.869 272.455 235.991L265.572 403.473C265.572 403.596 265.653 403.718 265.776 403.718C265.898 403.718 266.02 403.636 266.02 403.514L272.903 236.032C272.903 235.951 272.903 235.91 272.903 235.91Z" fill="#0068D9"/>
</g>
<g opacity="0.52">
<path opacity="0.52" d="M310.538 155.632C310.497 155.591 310.457 155.55 310.416 155.509C310.294 155.469 310.171 155.509 310.131 155.632L272.496 235.87C272.455 235.992 272.496 236.114 272.618 236.196C272.741 236.236 272.863 236.196 272.903 236.073L310.538 155.835C310.538 155.795 310.538 155.713 310.538 155.632Z" fill="#0068D9"/>
</g>
<g opacity="0.53">
<path opacity="0.53" d="M411.385 303.766C411.345 303.644 411.222 303.603 411.1 303.644C410.978 303.685 410.897 303.807 410.978 303.929L433.705 369.423C433.746 369.545 433.868 369.627 433.991 369.586C434.113 369.545 434.194 369.423 434.113 369.301L411.385 303.766Z" fill="#0068D9"/>
</g>
<g opacity="0.56">
<path opacity="0.56" d="M530.358 483.794L530.317 483.753L434.072 369.22C433.991 369.098 433.828 369.098 433.705 369.18C433.624 369.261 433.583 369.424 433.665 369.546L529.95 484.079C530.032 484.201 530.195 484.201 530.317 484.12C530.399 484.038 530.398 483.916 530.358 483.794Z" fill="#0068D9"/>
</g>
<g opacity="0.61">
<path opacity="0.61" d="M434.194 369.22C434.113 369.057 433.95 369.016 433.787 369.057L327.807 421.232C327.645 421.314 327.604 421.477 327.685 421.64C327.767 421.803 327.93 421.843 328.093 421.762L434.031 369.627C434.194 369.546 434.235 369.383 434.194 369.22Z" fill="#0068D9"/>
</g>
<g opacity="0.53">
<path opacity="0.53" d="M411.386 303.767C411.386 303.726 411.386 303.726 411.386 303.767L310.538 155.632C310.456 155.51 310.294 155.51 310.171 155.55C310.049 155.632 310.049 155.795 310.09 155.876L410.937 304.011C411.019 304.133 411.182 304.133 411.304 304.093C411.386 304.011 411.426 303.848 411.386 303.767Z" fill="#0068D9"/>
</g>
<g opacity="0.61">
<path opacity="0.61" d="M334.61 69.2839C334.569 69.2024 334.487 69.121 334.406 69.0803C334.243 69.0395 334.039 69.121 333.999 69.3246L310.009 155.672C309.968 155.835 310.049 156.039 310.253 156.08C310.416 156.12 310.62 156.039 310.66 155.835L334.65 69.5283C334.65 69.4468 334.65 69.3654 334.61 69.2839Z" fill="#0068D9"/>
</g>
<g opacity="0.65">
<path opacity="0.65" d="M334.65 69.2839C334.61 69.2431 334.61 69.2024 334.569 69.1617L267.934 7.49643C267.772 7.33351 267.527 7.33351 267.364 7.53716C267.201 7.70008 267.201 7.98519 267.405 8.10738L333.999 69.7319C334.161 69.8948 334.406 69.8948 334.569 69.6912C334.691 69.6097 334.732 69.4061 334.65 69.2839Z" fill="#0068D9"/>
</g>
<g opacity="0.59">
<path opacity="0.59" d="M328.174 421.395C328.133 421.314 328.093 421.273 328.011 421.232L265.898 403.189C265.735 403.148 265.572 403.23 265.531 403.393C265.49 403.556 265.572 403.719 265.735 403.759L327.848 421.803C328.011 421.843 328.174 421.762 328.215 421.599C328.215 421.518 328.215 421.477 328.174 421.395Z" fill="#0068D9"/>
</g>
<g opacity="0.69">
<path opacity="0.69" d="M190.914 237.825C190.832 237.621 190.588 237.499 190.344 237.54L95.6055 263.281C95.3611 263.363 95.1982 263.607 95.2389 263.892C95.3204 264.177 95.6055 264.299 95.8499 264.259L190.588 238.517C190.832 238.436 190.995 238.191 190.954 237.906C190.954 237.906 190.914 237.866 190.914 237.825Z" fill="#0068D9"/>
</g>
<path opacity="0.64" d="M258.074 37.1177C258.791 38.7547 260.742 39.4734 262.375 38.7547C264.008 38.0361 264.724 36.0797 264.008 34.4427C263.291 32.8057 261.34 32.087 259.707 32.8057C258.074 33.5643 257.318 35.4808 258.074 37.1177Z" fill="#0068D9"/>
<path opacity="0.64" d="M391.437 4.59028C392.153 6.22726 394.105 6.94594 395.737 6.22726C397.37 5.50858 398.087 3.55219 397.37 1.9152C396.653 0.278218 394.702 -0.440458 393.069 0.278218C391.437 1.03682 390.68 2.95329 391.437 4.59028Z" fill="#0068D9"/>
<path opacity="0.6" d="M2.73169 120.873C3.48227 122.499 5.40043 123.249 7.0267 122.499C8.65297 121.748 9.40356 119.83 8.65297 118.204C7.90238 116.577 5.98422 115.827 4.35795 116.577C2.73168 117.328 1.9811 119.246 2.73169 120.873Z" fill="#0068D9"/>
<path opacity="0.63" d="M45.8167 70.4583C46.5354 72.0953 48.4917 72.814 50.1287 72.0953C51.7657 71.3766 52.4844 69.4202 51.7657 67.7832C51.047 66.1463 49.0906 65.4276 47.4536 66.1463C45.8166 66.8649 45.098 68.8213 45.8167 70.4583Z" fill="#0068D9"/>
<path opacity="0.63" d="M62.0967 120.063C62.8135 121.7 64.7648 122.418 66.3974 121.7C68.0301 120.981 68.7469 119.024 68.0301 117.387C67.3133 115.751 65.3621 115.032 63.7294 115.751C62.0967 116.509 61.3401 118.426 62.0967 120.063Z" fill="#0068D9"/>
<path opacity="0.51" d="M288.115 425.235C288.755 426.674 290.434 427.314 291.873 426.674C293.312 426.035 293.951 424.356 293.312 422.917C292.672 421.478 290.993 420.838 289.554 421.478C288.115 422.117 287.476 423.796 288.115 425.235Z" fill="#0068D9"/>
<path opacity="0.61" d="M137.703 229.026C138.456 230.652 140.379 231.403 142.01 230.652C143.641 229.902 144.393 227.984 143.641 226.357C142.888 224.731 140.965 223.981 139.334 224.731C137.703 225.482 136.992 227.4 137.703 229.026Z" fill="#0068D9"/>
<path opacity="0.63" d="M153.21 237.974C154.017 239.611 156.212 240.33 158.049 239.611C159.885 238.893 160.692 236.936 159.885 235.299C159.079 233.662 156.884 232.944 155.047 233.662C153.21 234.381 152.359 236.337 153.21 237.974Z" fill="#0068D9"/>
<path opacity="0.53" d="M266.997 435.816C267.744 437.272 269.679 437.885 271.306 437.234C272.977 436.583 273.68 434.896 272.933 433.478C272.185 432.022 270.25 431.409 268.624 432.061C266.997 432.674 266.293 434.36 266.997 435.816Z" fill="#0068D9"/>
<path opacity="0.62" d="M228.797 315.224C229.548 316.85 231.466 317.601 233.092 316.85C234.718 316.099 235.469 314.181 234.718 312.555C233.968 310.929 232.05 310.178 230.423 310.929C228.797 311.638 228.047 313.556 228.797 315.224Z" fill="#0068D9"/>
<path opacity="0.85" d="M475.26 32.8164C476.187 34.6429 478.569 35.4767 480.642 34.6429C482.672 33.8091 483.598 31.665 482.672 29.7989C481.745 27.9724 479.363 27.1386 477.29 27.9724C475.26 28.8062 474.334 30.99 475.26 32.8164Z" fill="#0068D9"/>
<path opacity="0.86" d="M406.917 41.7615C407.75 43.5879 409.894 44.4217 411.761 43.5879C413.587 42.7541 414.421 40.6101 413.587 38.7439C412.753 36.9175 410.609 36.0837 408.743 36.9175C406.917 37.7513 406.083 39.8954 406.917 41.7615Z" fill="#0068D9"/>
<path opacity="0.83" d="M364.667 156.182C365.593 158.211 367.976 159.137 370.049 158.211C372.079 157.284 373.005 154.902 372.079 152.829C371.152 150.799 368.77 149.873 366.696 150.799C364.667 151.726 363.741 154.152 364.667 156.182Z" fill="#0068D9"/>
<path opacity="0.79" d="M518.318 239.341C519.143 241.196 521.328 242.021 523.142 241.196C524.998 240.372 525.822 238.186 524.998 236.372C524.173 234.517 521.988 233.692 520.174 234.517C518.318 235.3 517.494 237.486 518.318 239.341Z" fill="#0068D9"/>
<path opacity="0.85" d="M467.082 155.607C467.917 157.434 470.064 158.268 471.933 157.434C473.762 156.6 474.597 154.456 473.762 152.59C472.927 150.763 470.78 149.93 468.911 150.763C467.042 151.597 466.287 153.741 467.082 155.607Z" fill="#0068D9"/>
<path opacity="0.91" d="M80.0181 130.968C80.8562 133 82.9896 133.931 84.8563 133C86.685 132.069 87.5231 129.699 86.6849 127.624C85.8468 125.593 83.7134 124.661 81.8467 125.593C80.0181 126.524 79.18 128.937 80.0181 130.968Z" fill="#0068D9"/>
<path opacity="0.85" d="M303.642 202.772C304.476 204.598 306.62 205.432 308.486 204.598C310.313 203.765 311.146 201.621 310.313 199.754C309.479 197.928 307.335 197.094 305.469 197.928C303.642 198.762 302.808 200.906 303.642 202.772Z" fill="#0068D9"/>
<path opacity="0.83" d="M391.502 231.234C392.427 233.06 394.808 233.894 396.879 233.06C398.951 232.226 399.833 230.082 398.907 228.216C397.981 226.39 395.601 225.556 393.529 226.39C391.502 227.223 390.576 229.367 391.502 231.234Z" fill="#0068D9"/>
<path opacity="0.84" d="M426.433 223.102C427.267 224.928 429.411 225.762 431.277 224.928C433.103 224.094 433.937 221.95 433.103 220.084C432.27 218.258 430.126 217.424 428.259 218.258C426.433 219.092 425.599 221.275 426.433 223.102Z" fill="#0068D9"/>
<path opacity="0.86" d="M563.861 235.299C564.695 237.126 566.839 237.96 568.705 237.126C570.532 236.292 571.366 234.148 570.532 232.282C569.698 230.455 567.554 229.622 565.688 230.455C563.861 231.289 563.027 233.433 563.861 235.299Z" fill="#0068D9"/>
<path opacity="0.92" d="M490.695 165.122C491.629 167.154 494.004 168.085 496.083 167.154C498.119 166.223 499.053 163.852 498.119 161.778C497.186 159.746 494.81 158.815 492.732 159.746C490.695 160.678 489.804 163.09 490.695 165.122Z" fill="#0068D9"/>
<path opacity="0.98" d="M11.3847 103.275C9.13912 103.275 7.31871 101.454 7.31871 99.2086C7.31871 96.9631 9.13912 95.1427 11.3847 95.1427C13.6302 95.1427 15.4506 96.9631 15.4506 99.2086C15.4506 101.454 13.6302 103.275 11.3847 103.275Z" fill="#0068D9"/>
<path opacity="0.9" d="M163.795 167.801C164.728 169.63 167.104 170.468 169.183 169.63C171.219 168.792 172.152 166.658 171.219 164.791C170.286 162.963 167.91 162.125 165.831 162.963C163.795 163.801 162.904 165.972 163.795 167.801Z" fill="#0068D9"/>
<path opacity="0.93" d="M563.882 320.68C564.815 322.508 567.191 323.347 569.27 322.508C571.306 321.67 572.239 319.537 571.306 317.67C570.373 315.842 567.997 315.004 565.918 315.842C563.882 316.68 562.991 318.813 563.882 320.68Z" fill="#0068D9"/>
<path d="M444.353 161.612C445.267 163.874 447.665 164.879 449.721 163.874C451.777 162.869 452.69 160.231 451.777 157.969C450.863 155.708 448.465 154.703 446.409 155.708C444.353 156.713 443.44 159.351 444.353 161.612Z" fill="#0068D9"/>
<path d="M542.79 16.0653C543.809 18.3074 546.459 19.3265 548.701 18.3074C550.943 17.2882 551.963 14.6385 550.943 12.3964C549.924 10.1543 547.274 9.13514 545.032 10.1543C542.79 11.1734 541.771 13.7824 542.79 16.0653Z" fill="#0068D9"/>
<path d="M0.389608 124.206C1.39464 126.467 4.03287 127.472 6.29419 126.467C8.55551 125.462 9.56052 122.824 8.55548 120.563C7.55045 118.301 4.91229 117.296 2.65097 118.301C0.389644 119.306 -0.615425 121.945 0.389608 124.206Z" fill="#0068D9"/>
<path d="M35.3565 138.03C36.3616 140.291 38.9998 141.296 41.2611 140.291C43.5224 139.286 44.5274 136.648 43.5224 134.387C42.5174 132.126 39.8792 131.121 37.6179 132.126C35.3566 133.131 34.3515 135.769 35.3565 138.03Z" fill="#0068D9"/>
<path d="M399.685 258.653C400.682 260.663 403.326 261.61 405.579 260.663C407.833 259.757 408.829 257.352 407.833 255.302C406.836 253.252 404.192 252.345 401.939 253.252C399.642 254.198 398.645 256.603 399.685 258.653Z" fill="#0068D9"/>
<path d="M209.385 90.8782C210.404 93.1203 213.053 94.1395 215.296 93.1203C217.538 92.1012 218.557 89.4515 217.538 87.2094C216.518 84.9673 213.869 83.9481 211.627 84.9673C209.385 85.9456 208.365 88.5954 209.385 90.8782Z" fill="#0068D9"/>
<path d="M527.296 273.263C528.205 275.318 530.615 276.226 532.669 275.318C534.724 274.409 535.632 271.999 534.724 269.944C533.815 267.89 531.405 266.981 529.35 267.89C527.296 268.799 526.387 271.209 527.296 273.263Z" fill="#0068D9"/>
<path d="M585.927 82.7426C587.044 84.9866 589.921 86.0102 592.369 84.9866C594.817 83.963 595.934 81.3253 594.817 79.0813C593.701 76.8373 590.823 75.8137 588.375 76.8373C585.927 77.8609 584.811 80.4986 585.927 82.7426Z" fill="#0068D9"/>
<path d="M272.813 224.241C273.832 226.483 276.482 227.502 278.724 226.483C280.966 225.464 281.985 222.814 280.966 220.572C279.947 218.33 277.297 217.31 275.055 218.33C272.813 219.349 271.794 221.958 272.813 224.241Z" fill="#0068D9"/>
<path d="M187.756 85.1392C186.464 82.8458 187.277 79.9399 189.57 78.6487C191.864 77.3575 194.77 78.17 196.061 80.4634C197.352 82.7568 196.54 85.6627 194.246 86.9539C191.953 88.2451 189.047 87.4326 187.756 85.1392Z" fill="#0068D9"/>
<path d="M172.796 66.2422C173.787 68.7011 176.456 69.7847 178.706 68.7011C180.956 67.6175 181.948 64.7001 180.956 62.2412C179.965 59.7822 177.295 58.6986 175.045 59.7822C172.796 60.9075 171.766 63.7832 172.796 66.2422Z" fill="#0068D9"/>
<path d="M655.817 461.919C656.822 463.974 659.46 464.888 661.721 463.974C663.982 463.061 664.988 460.662 663.982 458.607C662.977 456.551 660.339 455.637 658.078 456.551C655.817 457.465 654.812 459.863 655.817 461.919Z" fill="#0068D9"/>
<path d="M557.435 309.621C558.458 311.865 561.094 312.889 563.337 311.865C565.579 310.842 566.602 308.204 565.579 305.96C564.556 303.716 561.92 302.692 559.678 303.716C557.396 304.7 556.412 307.338 557.435 309.621Z" fill="#0068D9"/>
<path d="M209.392 255.138C210.415 257.382 213.051 258.405 215.294 257.382C217.536 256.358 218.559 253.72 217.536 251.476C216.513 249.232 213.877 248.209 211.635 249.232C209.353 250.217 208.369 252.854 209.392 255.138Z" fill="#0068D9"/>
<path d="M347.65 266.526C348.733 268.78 351.651 269.773 354.11 268.78C356.568 267.786 357.652 265.112 356.569 262.858C355.485 260.604 352.567 259.611 350.109 260.604C347.65 261.635 346.566 264.272 347.65 266.526Z" fill="#0068D9"/>
<path d="M559.867 419.405C560.886 421.647 563.536 422.666 565.778 421.647C568.02 420.628 569.039 417.978 568.02 415.736C567.001 413.494 564.351 412.475 562.109 413.494C559.867 414.513 558.848 417.163 559.867 419.405Z" fill="#0068D9"/>
<path d="M289.96 7.45767C291.16 10.1054 294.262 11.3052 296.952 10.1054C299.599 8.90565 300.799 5.80284 299.599 3.11374C298.4 0.466005 295.297 -0.733748 292.608 0.466005C289.96 1.66576 288.76 4.80994 289.96 7.45767Z" fill="#0068D9"/>
<path d="M364.743 9.08413C365.849 11.7319 368.712 12.9316 371.193 11.7319C373.635 10.5321 374.742 7.4293 373.635 4.7402C372.528 2.09247 369.666 0.892717 367.185 2.09247C364.704 3.29222 363.636 6.4364 364.743 9.08413Z" fill="#0068D9"/>
<path d="M583.523 59.4857C584.732 62.1456 587.836 63.3546 590.495 62.1456C593.155 60.9366 594.364 57.8334 593.155 55.1736C591.946 52.5137 588.843 51.3047 586.183 52.5137C583.523 53.7227 582.314 56.8259 583.523 59.4857Z" fill="#0068D9"/>
<path d="M149.069 247.104C147.778 244.811 148.59 241.905 150.884 240.614C153.177 239.322 156.083 240.135 157.374 242.428C158.665 244.722 157.853 247.628 155.559 248.919C153.266 250.21 150.36 249.398 149.069 247.104Z" fill="#0068D9"/>
<path d="M267.984 237.808C269.075 240.279 271.984 241.373 274.409 240.279C276.873 239.185 277.964 236.269 276.873 233.839C275.782 231.368 272.873 230.275 270.449 231.368C267.944 232.462 266.853 235.338 267.984 237.808Z" fill="#0068D9"/>
<path d="M429.746 371.186C430.74 373.645 433.414 374.729 435.668 373.645C437.922 372.562 438.915 369.644 437.922 367.185C436.929 364.727 434.254 363.643 432 364.727C429.746 365.852 428.753 368.728 429.746 371.186Z" fill="#0068D9"/>
<path d="M305.41 157.897C306.61 160.545 309.713 161.744 312.402 160.545C315.05 159.345 316.249 156.242 315.05 153.553C313.85 150.905 310.747 149.705 308.058 150.905C305.41 152.105 304.211 155.249 305.41 157.897Z" fill="#0068D9"/>
<path d="M329.018 71.6868C330.287 74.3567 333.669 75.5347 336.545 74.3567C339.42 73.1788 340.689 70.0377 339.42 67.3678C338.152 64.6978 334.769 63.5199 331.893 64.6978C329.018 65.8757 327.75 69.0168 329.018 71.6868Z" fill="#0068D9"/>
<path d="M323.254 423.23C324.338 425.689 327.255 426.773 329.714 425.689C332.173 424.606 333.257 421.688 332.173 419.229C331.089 416.77 328.172 415.687 325.713 416.77C323.254 417.896 322.17 420.771 323.254 423.23Z" fill="#0068D9"/>
<path d="M261.456 405.324C262.55 407.795 265.466 408.889 267.896 407.795C270.367 406.702 271.461 403.785 270.367 401.355C269.273 398.884 266.357 397.791 263.927 398.884C261.456 399.978 260.363 402.854 261.456 405.324Z" fill="#0068D9"/>
<path d="M525.754 485.846C526.836 488.305 529.748 489.388 532.202 488.304C534.657 487.221 535.738 484.304 534.657 481.845C533.575 479.386 530.663 478.302 528.209 479.386C525.754 480.469 524.631 483.387 525.754 485.846Z" fill="#0068D9"/>
<path d="M406.242 305.891C407.434 308.566 410.584 309.755 413.224 308.524C415.906 307.334 417.097 304.192 415.863 301.559C414.671 298.883 411.521 297.694 408.881 298.925C406.242 300.115 405.05 303.257 406.242 305.891Z" fill="#0068D9"/>
<path d="M262.339 10.4538C263.613 13.3305 266.983 14.6045 269.86 13.3305C272.737 12.0565 274.011 8.68667 272.737 5.80994C271.463 2.93322 268.093 1.65924 265.216 2.93322C262.339 4.24829 261.065 7.57707 262.339 10.4538Z" fill="#0068D9"/>
<path d="M90.7198 266.038C91.8977 268.708 95.0388 269.886 97.7088 268.708C100.379 267.53 101.557 264.389 100.379 261.719C99.2008 259.049 96.0597 257.871 93.3897 259.049C90.7198 260.266 89.5419 263.368 90.7198 266.038Z" fill="#0068D9"/>
<path d="M185.102 240.589C186.368 243.464 189.746 244.733 192.616 243.464C195.487 242.196 196.754 238.813 195.487 235.938C194.221 233.062 190.843 231.794 187.972 233.062C185.102 234.331 183.793 237.714 185.102 240.589Z" fill="#0068D9"/>
</svg>
