<svg width="37" height="37" viewBox="0 0 37 37" fill="none" xmlns="http://www.w3.org/2000/svg">
<path d="M22.2654 16.6521C22.258 16.6203 22.3984 16.2878 22.5758 15.9112C22.8739 15.2828 23.1006 14.6837 23.9186 12.3926C24.4113 11.0086 25.9093 7.52421 26.3011 6.84689C26.7495 6.07176 26.7322 5.92749 26.1655 5.81012C25.6555 5.70498 25.3303 5.98129 24.3892 7.3237C24.0713 7.77851 23.3322 8.73702 22.7508 9.45591C22.1693 10.1748 21.3489 11.2702 20.93 11.8913C19.6587 13.7766 19.2251 14.3047 19.0748 14.1531C18.9984 14.0749 18.5254 12.3437 18.0228 10.3044C17.5202 8.2651 16.9313 6.14512 16.7145 5.59495C16.4952 5.04233 16.101 3.64368 15.8374 2.48466C15.5738 1.32564 15.2855 0.274203 15.2018 0.147053C15.017 -0.129254 14.2902 0.00523129 13.9797 0.372011C13.7999 0.582297 13.8467 1.06889 14.2557 3.14975C14.5809 4.80026 14.7016 5.771 14.608 5.95439C14.5292 6.10844 14.4996 6.51679 14.5439 6.86156C14.5883 7.20633 14.6696 8.04503 14.7263 8.72724C14.7805 9.40945 14.9308 10.7201 15.0589 11.6419C15.187 12.5638 15.2584 13.3658 15.2215 13.4245C15.1254 13.5761 13.8295 13.1041 12.0334 12.2679C9.75684 11.2067 7.42611 10.3582 7.02945 10.4462C6.52437 10.5587 6.4209 11.5074 6.87177 11.8987C7.04916 12.0503 7.55423 12.51 7.99278 12.9183C8.88959 13.7497 8.92162 13.7766 10.1855 14.7864C12.3906 16.547 13.2677 17.3343 13.3318 17.6082C13.3909 17.8698 13.2086 17.9579 11.6884 18.3907C10.7473 18.6596 9.38235 19.112 8.65553 19.3981C7.92872 19.6842 7.14278 19.9702 6.90872 20.0314C6.67466 20.095 5.9035 20.3908 5.19394 20.6916C4.48437 20.9923 3.23278 21.4692 2.41234 21.7552C0.909443 22.2761 -0.0588179 22.8116 0.00277629 23.0854C0.0520517 23.3006 0.6064 23.5525 0.700023 23.4033C0.744371 23.3324 0.953791 23.3397 1.16568 23.4155C1.92698 23.6894 3.64423 23.4864 7.85974 22.6184C12.2132 21.721 13.6422 21.5107 13.8615 21.7308C13.9723 21.8433 13.7457 23.7359 13.3318 26.1933C13.2431 26.7214 13.0952 27.6237 13.0066 28.2008C12.9179 28.7754 12.7208 29.6361 12.5705 30.1129C12.2305 31.1986 12.2699 31.3697 12.9302 31.6461L13.4599 31.8661L13.9255 31.3673C14.1818 31.0934 14.7435 30.2352 15.1722 29.4625C16.4583 27.1493 17.5941 25.3252 17.705 25.3961C17.7616 25.4328 18.045 26.1615 18.3357 27.0173C19.2153 29.6214 20.011 31.6118 20.6787 32.876C21.0286 33.5386 21.5189 34.705 21.7702 35.4679C22.2408 36.9008 22.4182 37.1037 23.0784 36.9619C23.7806 36.8103 23.7855 36.4411 23.1179 33.4408C22.4329 30.3574 21.2947 23.9315 21.4006 23.7652C21.541 23.5451 23.0735 24.3374 26.5326 26.4109C27.7719 27.1542 28.1513 27.3009 28.7106 27.252C29.2428 27.2056 29.3955 27.1322 29.43 26.9048C29.4719 26.6285 28.7993 25.9023 27.9912 25.3448C27.7966 25.2103 27.3482 24.7628 26.9958 24.3471C26.3109 23.5427 24.2142 21.5547 23.5884 21.1195C23.0612 20.7527 23.0809 20.6549 23.7166 20.5131C24.0221 20.4446 24.7982 20.0852 25.4412 19.7135C29.2132 17.5373 32.7192 15.9797 34.9834 15.4735C35.8211 15.2877 36.6292 15.0285 36.7795 14.8989C37.1712 14.5615 37.0258 14.1971 36.4641 14.1165C35.7866 14.0186 30.1174 14.9845 25.8625 15.9235C23.8939 16.3514 22.2728 16.6839 22.2654 16.6521ZM12.4522 14.8671C11.8831 14.4392 11.139 13.8548 10.799 13.5687C10.257 13.109 10.2299 13.0601 10.5797 13.1555C10.7966 13.2142 11.0355 13.3267 11.1119 13.4025C11.1858 13.4783 11.8461 13.7595 12.5754 14.026C13.3047 14.2925 14.2237 14.6617 14.6129 14.8451C15.3496 15.1899 15.4752 15.432 15.4826 16.5299C15.49 17.3001 15.2215 17.2756 14.3222 16.4296C13.8639 15.9993 13.0213 15.295 12.4522 14.8671ZM14.9505 26.9733C14.9209 26.8437 15.081 25.5502 15.2092 24.8826C15.2683 24.5697 15.3693 23.9633 15.4358 23.5329C15.6748 21.9386 15.7684 21.6085 16.005 21.5572C16.138 21.5278 16.3203 21.6574 16.4115 21.8457C16.5026 22.034 16.7195 22.4961 16.8968 22.8727C17.0742 23.2493 17.2196 23.594 17.2196 23.6405C17.2171 23.7725 14.9726 27.0735 14.9505 26.9733ZM20.2919 16.9529C20.2057 16.8966 20.0283 16.6032 19.9002 16.3025C19.6784 15.7841 19.7055 15.696 20.3683 14.7522C20.7551 14.202 21.3144 13.4514 21.6125 13.087C21.9106 12.7202 22.157 12.4464 22.1644 12.4757C22.2235 12.8278 20.457 17.0605 20.2919 16.9529ZM21.2134 21.6966C21.105 21.2613 21.3858 21.3078 22.0732 21.8359C22.4206 22.1025 22.7163 22.3763 22.7311 22.4448C22.7902 22.704 21.2799 21.9582 21.2134 21.6966Z" fill="white"/>
</svg>
